<?xml version="1.0" encoding="UTF-8"?>
<svg xmlns="http://www.w3.org/2000/svg" xmlns:xlink="http://www.w3.org/1999/xlink" width="395.6457pt" height="214.56pt" viewBox="0 0 395.6457 214.56" version="1.1">
<defs>
<clipPath id="clip1">
  <path d="M 47 0 L 395.644531 0 L 395.644531 214.558594 L 47 214.558594 Z M 47 0 "/>
</clipPath>
</defs>
<g id="surface1">
<g clip-path="url(#clip1)" clip-rule="nonzero">
<path style=" stroke:none;fill-rule:nonzero;fill:rgb(0%,0%,0%);fill-opacity:1;" d="M 105.804688 199.078125 C 106.207031 199.480469 106.566406 199.933594 106.886719 200.441406 C 107.179688 200.972656 107.433594 201.546875 107.644531 202.160156 C 107.859375 202.800781 108.019531 203.480469 108.125 204.199219 C 108.230469 204.945312 108.285156 205.734375 108.285156 206.558594 C 108.285156 207.28125 108.246094 207.960938 108.164062 208.601562 C 108.085938 209.320312 107.953125 209.988281 107.765625 210.601562 C 107.550781 211.292969 107.285156 211.921875 106.964844 212.480469 C 106.617188 213.09375 106.207031 213.640625 105.726562 214.121094 C 105.59375 214.253906 105.527344 214.347656 105.527344 214.398438 C 105.527344 214.507812 105.578125 214.558594 105.6875 214.558594 C 106.753906 213.839844 107.59375 212.800781 108.207031 211.441406 C 108.5 210.851562 108.777344 209.988281 109.046875 208.839844 C 109.179688 208.121094 109.246094 207.359375 109.246094 206.558594 C 109.246094 205.785156 109.179688 205.027344 109.046875 204.28125 L 108.726562 202.921875 C 108.566406 202.441406 108.378906 201.988281 108.164062 201.558594 C 107.527344 200.253906 106.699219 199.253906 105.6875 198.558594 C 105.578125 198.558594 105.527344 198.613281 105.527344 198.71875 C 105.527344 198.773438 105.617188 198.894531 105.804688 199.078125 M 53.765625 199.441406 C 53.6875 199.226562 53.566406 199.121094 53.40625 199.121094 C 53.21875 199.121094 53.085938 199.226562 53.003906 199.441406 L 49.726562 209 C 49.59375 209.375 49.367188 209.652344 49.046875 209.839844 C 48.753906 209.972656 48.378906 210.054688 47.925781 210.078125 L 47.925781 210.558594 L 51.40625 210.558594 L 51.40625 210.078125 C 51.003906 210.078125 50.699219 209.988281 50.484375 209.800781 C 50.300781 209.667969 50.207031 209.480469 50.207031 209.238281 L 50.207031 209 L 50.964844 206.921875 L 54.925781 206.921875 L 55.765625 209.359375 L 55.804688 209.601562 C 55.804688 209.785156 55.632812 209.921875 55.285156 210 C 55.097656 210.054688 54.832031 210.078125 54.484375 210.078125 L 54.484375 210.558594 C 54.859375 210.535156 55.617188 210.519531 56.765625 210.519531 L 58.886719 210.558594 L 58.886719 210.078125 L 58.605469 210.078125 C 58.125 210.078125 57.792969 210.039062 57.605469 209.960938 C 57.445312 209.851562 57.324219 209.679688 57.246094 209.441406 L 53.765625 199.441406 M 54.726562 206.398438 L 51.125 206.398438 L 52.925781 201.199219 L 54.726562 206.398438 M 96.046875 210.558594 L 96.964844 210.558594 L 99.925781 204.71875 L 102.886719 210.558594 L 103.765625 210.558594 L 99.925781 202.960938 L 96.046875 210.558594 M 69.925781 200.238281 C 70.164062 200.160156 70.472656 200.121094 70.84375 200.121094 L 70.84375 199.640625 L 67.125 199.640625 L 67.125 200.121094 C 67.5 200.121094 67.820312 200.160156 68.085938 200.238281 C 68.300781 200.320312 68.460938 200.425781 68.566406 200.558594 C 68.699219 200.71875 68.765625 200.972656 68.765625 201.320312 L 68.765625 208.160156 L 63.125 199.839844 C 63.019531 199.707031 62.859375 199.640625 62.644531 199.640625 L 59.925781 199.640625 L 59.925781 200.121094 L 61.207031 200.160156 C 61.390625 200.1875 61.5 200.214844 61.527344 200.238281 C 61.550781 200.292969 61.566406 200.386719 61.566406 200.519531 L 61.566406 208.878906 C 61.566406 209.226562 61.5 209.480469 61.367188 209.640625 C 61.257812 209.773438 61.097656 209.878906 60.886719 209.960938 C 60.644531 210.039062 60.324219 210.078125 59.925781 210.078125 L 59.925781 210.558594 L 63.6875 210.558594 L 63.6875 210.078125 C 63.285156 210.078125 62.964844 210.039062 62.726562 209.960938 C 62.511719 209.878906 62.351562 209.773438 62.246094 209.640625 C 62.113281 209.480469 62.046875 209.226562 62.046875 208.878906 L 62.046875 200.558594 L 62.207031 200.761719 L 68.726562 210.359375 C 68.832031 210.492188 68.925781 210.558594 69.003906 210.558594 C 69.140625 210.558594 69.207031 210.425781 69.207031 210.160156 L 69.207031 201.320312 C 69.207031 200.972656 69.273438 200.71875 69.40625 200.558594 C 69.511719 200.425781 69.6875 200.320312 69.925781 200.238281 M 73.445312 200.28125 C 73.550781 200.359375 73.605469 200.558594 73.605469 200.878906 L 73.605469 209.320312 C 73.605469 209.613281 73.550781 209.8125 73.445312 209.921875 C 73.285156 210.027344 72.925781 210.078125 72.367188 210.078125 L 71.964844 210.078125 L 71.964844 210.558594 L 77.804688 210.558594 C 78.152344 210.558594 78.484375 210.519531 78.804688 210.441406 C 79.125 210.386719 79.433594 210.292969 79.726562 210.160156 C 80.019531 210.027344 80.300781 209.851562 80.566406 209.640625 C 80.804688 209.453125 81.046875 209.238281 81.285156 209 C 81.5 208.761719 81.699219 208.492188 81.886719 208.199219 C 82.074219 207.90625 82.21875 207.601562 82.324219 207.28125 C 82.460938 206.960938 82.550781 206.625 82.605469 206.28125 C 82.6875 205.90625 82.726562 205.546875 82.726562 205.199219 C 82.726562 204.828125 82.6875 204.453125 82.605469 204.078125 C 82.550781 203.707031 82.460938 203.359375 82.324219 203.039062 C 82.21875 202.691406 82.074219 202.375 81.886719 202.078125 C 81.699219 201.785156 81.5 201.519531 81.285156 201.28125 C 81.074219 201.011719 80.832031 200.785156 80.566406 200.601562 C 80.300781 200.386719 80.019531 200.214844 79.726562 200.078125 C 79.433594 199.921875 79.125 199.8125 78.804688 199.761719 C 78.484375 199.679688 78.152344 199.640625 77.804688 199.640625 L 71.964844 199.640625 L 71.964844 200.121094 L 72.367188 200.121094 C 72.925781 200.121094 73.285156 200.171875 73.445312 200.28125 M 79.605469 200.921875 C 79.871094 201.105469 80.097656 201.332031 80.285156 201.601562 C 80.445312 201.839844 80.578125 202.105469 80.6875 202.398438 L 80.964844 203.28125 C 81.074219 203.8125 81.125 204.453125 81.125 205.199219 C 81.125 206.054688 81.046875 206.761719 80.886719 207.320312 C 80.753906 207.828125 80.539062 208.292969 80.246094 208.71875 C 80.003906 209.039062 79.6875 209.320312 79.285156 209.558594 C 79.046875 209.691406 78.777344 209.8125 78.484375 209.921875 C 78.140625 210.027344 77.777344 210.078125 77.40625 210.078125 L 75.765625 210.078125 C 75.417969 210.078125 75.191406 210.039062 75.085938 209.960938 C 75.03125 209.878906 75.003906 209.707031 75.003906 209.441406 L 75.003906 200.761719 C 75.003906 200.492188 75.03125 200.320312 75.085938 200.238281 C 75.191406 200.160156 75.417969 200.121094 75.765625 200.121094 L 77.367188 200.121094 C 77.925781 200.121094 78.433594 200.226562 78.886719 200.441406 C 79.152344 200.574219 79.390625 200.734375 79.605469 200.921875 M 91.003906 203 L 90.726562 204.28125 C 90.59375 205 90.527344 205.761719 90.527344 206.558594 C 90.527344 207.332031 90.59375 208.09375 90.726562 208.839844 C 90.992188 210.039062 91.273438 210.945312 91.566406 211.558594 C 92.207031 212.867188 93.03125 213.867188 94.046875 214.558594 C 94.152344 214.558594 94.207031 214.507812 94.207031 214.398438 C 94.207031 214.347656 94.125 214.226562 93.964844 214.039062 C 93.351562 213.320312 92.9375 212.761719 92.726562 212.359375 C 92.40625 211.800781 92.140625 211.171875 91.925781 210.480469 C 91.765625 209.839844 91.644531 209.171875 91.566406 208.480469 C 91.484375 207.867188 91.445312 207.226562 91.445312 206.558594 C 91.445312 205.839844 91.484375 205.148438 91.566406 204.480469 C 91.644531 203.761719 91.792969 203.09375 92.003906 202.480469 C 92.191406 201.8125 92.445312 201.199219 92.765625 200.640625 C 93.113281 200.027344 93.527344 199.480469 94.003906 199 C 94.140625 198.867188 94.207031 198.773438 94.207031 198.71875 C 94.207031 198.613281 94.152344 198.558594 94.046875 198.558594 C 92.980469 199.28125 92.140625 200.320312 91.527344 201.679688 C 91.3125 202.105469 91.140625 202.546875 91.003906 203 M 83.527344 2 C 83.710938 2 83.898438 1.933594 84.085938 1.800781 C 84.273438 1.640625 84.367188 1.398438 84.367188 1.078125 C 84.367188 0.894531 84.3125 0.71875 84.207031 0.558594 C 84.125 0.425781 83.992188 0.308594 83.804688 0.199219 C 83.539062 0.0664062 83.230469 0 82.886719 0 C 82.484375 0 82.113281 0.160156 81.765625 0.480469 C 81.527344 0.667969 81.339844 0.894531 81.207031 1.160156 C 81.074219 0.839844 80.804688 0.519531 80.40625 0.199219 C 80.164062 0.0664062 79.886719 0 79.566406 0 C 78.417969 0 77.539062 0.878906 76.925781 2.640625 C 76.925781 2.773438 77.003906 2.839844 77.164062 2.839844 L 77.367188 2.800781 L 77.484375 2.558594 C 77.59375 2.1875 77.726562 1.851562 77.886719 1.558594 C 78.046875 1.320312 78.21875 1.105469 78.40625 0.921875 C 78.777344 0.574219 79.152344 0.398438 79.527344 0.398438 C 79.765625 0.398438 79.964844 0.492188 80.125 0.679688 C 80.285156 0.867188 80.367188 1.132812 80.367188 1.480469 C 80.367188 1.746094 80.246094 2.375 80.003906 3.359375 L 79.605469 4.921875 C 79.390625 5.691406 79.207031 6.253906 79.046875 6.601562 C 78.914062 6.839844 78.753906 7.039062 78.566406 7.199219 C 78.378906 7.332031 78.164062 7.398438 77.925781 7.398438 C 77.632812 7.398438 77.378906 7.332031 77.164062 7.199219 C 77.511719 7.09375 77.738281 6.8125 77.84375 6.359375 C 77.84375 6.066406 77.644531 5.878906 77.246094 5.800781 C 77.03125 5.800781 76.84375 5.878906 76.6875 6.039062 C 76.5 6.226562 76.40625 6.453125 76.40625 6.71875 C 76.40625 7.039062 76.550781 7.308594 76.84375 7.519531 C 77.140625 7.707031 77.5 7.800781 77.925781 7.800781 C 78.273438 7.800781 78.605469 7.667969 78.925781 7.398438 C 79.191406 7.214844 79.417969 6.960938 79.605469 6.640625 C 79.738281 7.066406 79.992188 7.386719 80.367188 7.601562 C 80.632812 7.734375 80.925781 7.800781 81.246094 7.800781 C 82.390625 7.800781 83.257812 6.921875 83.84375 5.160156 C 83.84375 5.027344 83.765625 4.960938 83.605469 4.960938 C 83.445312 4.960938 83.351562 5.054688 83.324219 5.238281 C 83.191406 5.613281 83.046875 5.945312 82.886719 6.238281 C 82.726562 6.507812 82.550781 6.71875 82.367188 6.878906 C 82.019531 7.226562 81.644531 7.398438 81.246094 7.398438 C 81.03125 7.398438 80.859375 7.332031 80.726562 7.199219 C 80.539062 7.011719 80.445312 6.71875 80.445312 6.320312 C 80.445312 6.078125 80.550781 5.507812 80.765625 4.601562 L 81.367188 2.238281 C 81.5 1.707031 81.671875 1.28125 81.886719 0.960938 C 82.046875 0.773438 82.191406 0.640625 82.324219 0.558594 C 82.484375 0.453125 82.671875 0.398438 82.886719 0.398438 C 83.207031 0.398438 83.460938 0.480469 83.644531 0.640625 C 83.191406 0.746094 82.964844 1.011719 82.964844 1.441406 C 82.964844 1.574219 83.003906 1.691406 83.085938 1.800781 C 83.191406 1.933594 83.339844 2 83.527344 2 M 87.246094 4.480469 L 87.246094 4.359375 C 87.246094 4.308594 87.21875 4.28125 87.164062 4.28125 C 87.140625 4.28125 87.085938 4.320312 87.003906 4.398438 C 86.84375 4.613281 86.6875 4.785156 86.527344 4.921875 C 86.390625 5.027344 86.257812 5.105469 86.125 5.160156 C 85.9375 5.265625 85.738281 5.332031 85.527344 5.359375 C 85.445312 5.359375 85.40625 5.414062 85.40625 5.519531 C 85.40625 5.574219 85.445312 5.601562 85.527344 5.601562 C 85.632812 5.601562 85.753906 5.585938 85.886719 5.558594 C 86.097656 5.480469 86.285156 5.375 86.445312 5.238281 L 85.484375 9.238281 C 85.433594 9.375 85.367188 9.464844 85.285156 9.519531 C 85.179688 9.574219 84.964844 9.601562 84.644531 9.601562 L 84.605469 9.601562 C 84.445312 9.601562 84.367188 9.652344 84.367188 9.761719 C 84.367188 9.8125 84.40625 9.839844 84.484375 9.839844 L 86.726562 9.839844 C 86.832031 9.839844 86.886719 9.800781 86.886719 9.71875 C 86.886719 9.640625 86.820312 9.601562 86.6875 9.601562 L 86.246094 9.558594 L 86.046875 9.519531 C 86.019531 9.519531 86.003906 9.492188 86.003906 9.441406 L 87.246094 4.480469 M 174.246094 90.238281 C 174.246094 90.054688 174.191406 89.878906 174.085938 89.71875 C 174.003906 89.558594 173.871094 89.441406 173.6875 89.359375 C 173.417969 89.226562 173.097656 89.160156 172.726562 89.160156 C 172.324219 89.160156 171.953125 89.308594 171.605469 89.601562 C 171.367188 89.8125 171.179688 90.054688 171.046875 90.320312 C 170.914062 90 170.632812 89.667969 170.207031 89.320312 C 169.9375 89.214844 169.644531 89.160156 169.324219 89.160156 C 168.152344 89.160156 167.257812 90.054688 166.644531 91.839844 C 166.644531 91.972656 166.726562 92.039062 166.886719 92.039062 L 167.125 92 L 167.246094 91.71875 C 167.351562 91.347656 167.484375 91.011719 167.644531 90.71875 C 167.804688 90.480469 167.980469 90.253906 168.164062 90.039062 C 168.539062 89.691406 168.914062 89.519531 169.285156 89.519531 C 169.550781 89.519531 169.765625 89.625 169.925781 89.839844 C 170.085938 90.027344 170.164062 90.292969 170.164062 90.640625 C 170.164062 90.90625 170.03125 91.546875 169.765625 92.558594 L 169.367188 94.160156 C 169.179688 94.933594 168.992188 95.492188 168.804688 95.839844 C 168.671875 96.105469 168.511719 96.320312 168.324219 96.480469 C 168.140625 96.613281 167.925781 96.679688 167.6875 96.679688 C 167.367188 96.679688 167.097656 96.613281 166.886719 96.480469 C 167.257812 96.375 167.484375 96.078125 167.566406 95.601562 C 167.566406 95.308594 167.378906 95.132812 167.003906 95.078125 C 166.765625 95.078125 166.566406 95.160156 166.40625 95.320312 C 166.21875 95.507812 166.125 95.734375 166.125 96 C 166.125 96.320312 166.285156 96.585938 166.605469 96.800781 C 166.871094 96.988281 167.21875 97.078125 167.644531 97.078125 C 168.019531 97.078125 168.378906 96.945312 168.726562 96.679688 C 168.964844 96.492188 169.179688 96.226562 169.367188 95.878906 C 169.527344 96.332031 169.792969 96.667969 170.164062 96.878906 C 170.433594 97.011719 170.726562 97.078125 171.046875 97.078125 C 172.246094 97.078125 173.140625 96.171875 173.726562 94.359375 C 173.726562 94.253906 173.644531 94.199219 173.484375 94.199219 C 173.324219 94.199219 173.21875 94.292969 173.164062 94.480469 C 173.058594 94.878906 172.914062 95.214844 172.726562 95.480469 C 172.59375 95.746094 172.417969 95.972656 172.207031 96.160156 C 171.859375 96.507812 171.484375 96.679688 171.085938 96.679688 C 170.871094 96.679688 170.6875 96.613281 170.527344 96.480469 C 170.339844 96.292969 170.246094 95.988281 170.246094 95.558594 C 170.246094 95.320312 170.351562 94.734375 170.566406 93.800781 L 171.164062 91.398438 C 171.324219 90.867188 171.511719 90.441406 171.726562 90.121094 C 171.859375 89.933594 172.003906 89.785156 172.164062 89.679688 C 172.351562 89.574219 172.539062 89.519531 172.726562 89.519531 C 173.046875 89.519531 173.300781 89.613281 173.484375 89.800781 C 173.03125 89.90625 172.804688 90.1875 172.804688 90.640625 C 172.804688 90.746094 172.84375 90.867188 172.925781 91 C 173.03125 91.105469 173.191406 91.160156 173.40625 91.160156 C 173.59375 91.160156 173.777344 91.09375 173.964844 90.960938 C 174.152344 90.800781 174.246094 90.558594 174.246094 90.238281 M 178.285156 93.558594 C 178.125 93.507812 177.964844 93.480469 177.804688 93.480469 C 177.644531 93.480469 177.5 93.507812 177.367188 93.558594 C 177.207031 93.585938 177.074219 93.652344 176.964844 93.761719 C 176.726562 93.921875 176.511719 94.132812 176.324219 94.398438 C 176.191406 94.640625 176.074219 94.894531 175.964844 95.160156 C 175.886719 95.425781 175.84375 95.625 175.84375 95.761719 C 175.871094 96.132812 176.019531 96.320312 176.285156 96.320312 C 176.417969 96.320312 176.566406 96.265625 176.726562 96.160156 C 176.832031 96.054688 176.9375 95.921875 177.046875 95.761719 C 177.152344 95.546875 177.230469 95.28125 177.285156 94.960938 L 177.246094 94.679688 C 177.191406 94.546875 177.152344 94.480469 177.125 94.480469 C 177.046875 94.480469 177.003906 94.519531 177.003906 94.601562 L 177.003906 94.640625 C 177.085938 94.773438 177.125 94.878906 177.125 94.960938 C 177.125 95.148438 177.046875 95.375 176.886719 95.640625 C 176.804688 95.773438 176.710938 95.878906 176.605469 95.960938 C 176.5 96.066406 176.390625 96.121094 176.285156 96.121094 C 176.152344 96.121094 176.085938 96.027344 176.085938 95.839844 C 176.085938 95.707031 176.125 95.507812 176.207031 95.238281 C 176.285156 95 176.390625 94.773438 176.527344 94.558594 C 176.6875 94.292969 176.859375 94.078125 177.046875 93.921875 C 177.179688 93.839844 177.300781 93.773438 177.40625 93.71875 C 177.539062 93.691406 177.660156 93.679688 177.765625 93.679688 C 177.980469 93.679688 178.152344 93.746094 178.285156 93.878906 C 178.367188 93.960938 178.417969 94.054688 178.445312 94.160156 C 178.5 94.292969 178.527344 94.441406 178.527344 94.601562 C 178.527344 94.921875 178.484375 95.199219 178.40625 95.441406 C 178.324219 95.679688 178.207031 95.90625 178.046875 96.121094 C 177.914062 96.308594 177.738281 96.480469 177.527344 96.640625 C 177.367188 96.800781 177.164062 96.945312 176.925781 97.078125 C 176.445312 97.375 176.085938 97.667969 175.84375 97.960938 C 175.445312 98.441406 175.207031 98.878906 175.125 99.28125 C 175.125 99.359375 175.179688 99.398438 175.285156 99.398438 C 175.339844 99.398438 175.378906 99.359375 175.40625 99.28125 C 175.460938 99.121094 175.511719 98.988281 175.566406 98.878906 C 175.671875 98.773438 175.777344 98.71875 175.886719 98.71875 C 176.074219 98.71875 176.3125 98.828125 176.605469 99.039062 L 177.003906 99.28125 C 177.140625 99.359375 177.285156 99.398438 177.445312 99.398438 C 177.578125 99.398438 177.6875 99.375 177.765625 99.320312 L 178.085938 99.160156 C 178.246094 99.027344 178.378906 98.851562 178.484375 98.640625 C 178.644531 98.375 178.765625 98.09375 178.84375 97.800781 C 178.84375 97.746094 178.792969 97.71875 178.6875 97.71875 C 178.605469 97.71875 178.550781 97.761719 178.527344 97.839844 C 178.472656 98.078125 178.367188 98.28125 178.207031 98.441406 C 178.125 98.546875 178.03125 98.625 177.925781 98.679688 C 177.792969 98.734375 177.660156 98.761719 177.527344 98.761719 C 177.3125 98.761719 177.074219 98.734375 176.804688 98.679688 C 176.378906 98.574219 176.074219 98.519531 175.886719 98.519531 L 175.726562 98.558594 C 176.019531 98.078125 176.460938 97.667969 177.046875 97.320312 L 177.925781 96.761719 C 178.191406 96.601562 178.40625 96.425781 178.566406 96.238281 C 178.753906 96.054688 178.898438 95.867188 179.003906 95.679688 C 179.085938 95.441406 179.125 95.1875 179.125 94.921875 C 179.125 94.679688 179.097656 94.464844 179.046875 94.28125 C 178.964844 94.121094 178.859375 93.972656 178.726562 93.839844 C 178.59375 93.707031 178.445312 93.613281 178.285156 93.558594 M 142.285156 36.71875 C 143.085938 35.945312 143.484375 35.011719 143.484375 33.921875 C 143.484375 32.828125 143.085938 31.878906 142.285156 31.078125 C 141.511719 30.308594 140.578125 29.921875 139.484375 29.921875 C 138.390625 29.921875 137.445312 30.308594 136.644531 31.078125 C 135.871094 31.878906 135.484375 32.828125 135.484375 33.921875 C 135.484375 35.011719 135.871094 35.945312 136.644531 36.71875 C 137.445312 37.519531 138.390625 37.921875 139.484375 37.921875 C 140.578125 37.921875 141.511719 37.519531 142.285156 36.71875 M 310.925781 198.71875 C 310.925781 198.613281 310.871094 198.558594 310.765625 198.558594 C 309.699219 199.28125 308.859375 200.320312 308.246094 201.679688 C 308.03125 202.105469 307.859375 202.546875 307.726562 203 L 307.445312 204.28125 C 307.3125 205 307.246094 205.761719 307.246094 206.558594 C 307.246094 207.332031 307.3125 208.09375 307.445312 208.839844 C 307.710938 210.039062 307.992188 210.945312 308.285156 211.558594 C 308.925781 212.867188 309.753906 213.867188 310.765625 214.558594 C 310.871094 214.558594 310.925781 214.507812 310.925781 214.398438 C 310.925781 214.347656 310.84375 214.226562 310.6875 214.039062 C 310.074219 213.320312 309.660156 212.761719 309.445312 212.359375 C 309.125 211.800781 308.859375 211.171875 308.644531 210.480469 C 308.484375 209.839844 308.367188 209.171875 308.285156 208.480469 C 308.207031 207.867188 308.164062 207.226562 308.164062 206.558594 C 308.164062 205.839844 308.207031 205.148438 308.285156 204.480469 C 308.367188 203.761719 308.511719 203.09375 308.726562 202.480469 C 308.914062 201.8125 309.164062 201.199219 309.484375 200.640625 C 309.832031 200.027344 310.246094 199.480469 310.726562 199 C 310.859375 198.867188 310.925781 198.773438 310.925781 198.71875 M 317.886719 201.359375 C 316.605469 201.359375 315.511719 201.8125 314.605469 202.71875 C 313.699219 203.625 313.246094 204.707031 313.246094 205.960938 C 313.246094 207.214844 313.699219 208.292969 314.605469 209.199219 C 315.511719 210.105469 316.59375 210.558594 317.84375 210.558594 C 319.125 210.558594 320.207031 210.105469 321.085938 209.199219 C 321.992188 208.292969 322.445312 207.214844 322.445312 205.960938 C 322.445312 205.398438 322.324219 204.828125 322.085938 204.238281 C 321.84375 203.652344 321.539062 203.160156 321.164062 202.761719 C 320.792969 202.359375 320.300781 202.027344 319.6875 201.761719 C 319.074219 201.492188 318.472656 201.359375 317.886719 201.359375 M 315.445312 203 C 315.871094 202.652344 316.527344 202.375 317.40625 202.160156 L 318.207031 202.160156 C 318.84375 202.292969 319.339844 202.441406 319.6875 202.601562 C 320.03125 202.785156 320.367188 203.054688 320.6875 203.398438 C 321.085938 203.851562 321.40625 204.574219 321.644531 205.558594 L 321.644531 206.359375 C 321.539062 206.921875 321.433594 207.347656 321.324219 207.640625 C 321.191406 207.90625 320.992188 208.1875 320.726562 208.480469 C 320.40625 208.851562 320.074219 209.132812 319.726562 209.320312 C 319.378906 209.480469 318.871094 209.625 318.207031 209.761719 L 317.40625 209.71875 C 316.792969 209.585938 316.3125 209.441406 315.964844 209.28125 C 315.644531 209.121094 315.324219 208.867188 315.003906 208.519531 C 314.765625 208.253906 314.578125 207.972656 314.445312 207.679688 C 314.3125 207.359375 314.179688 206.921875 314.046875 206.359375 L 314.046875 205.558594 C 314.207031 204.894531 314.378906 204.375 314.566406 204 C 314.753906 203.625 315.046875 203.292969 315.445312 203 M 314.886719 205.558594 L 314.886719 206.359375 L 317.40625 206.359375 L 317.40625 209 L 318.207031 209 L 318.207031 206.359375 L 320.804688 206.359375 L 320.804688 205.558594 L 318.207031 205.558594 L 318.207031 202.839844 L 317.40625 202.839844 L 317.40625 205.558594 L 314.886719 205.558594 M 327.527344 202.921875 C 327.367188 202.441406 327.179688 201.988281 326.964844 201.558594 C 326.324219 200.253906 325.5 199.253906 324.484375 198.558594 C 324.378906 198.558594 324.324219 198.613281 324.324219 198.71875 C 324.324219 198.773438 324.417969 198.894531 324.605469 199.078125 C 325.003906 199.480469 325.367188 199.933594 325.6875 200.441406 C 325.980469 200.972656 326.230469 201.546875 326.445312 202.160156 C 326.660156 202.800781 326.820312 203.480469 326.925781 204.199219 C 327.03125 204.945312 327.085938 205.734375 327.085938 206.558594 C 327.085938 207.28125 327.046875 207.960938 326.964844 208.601562 C 326.886719 209.320312 326.753906 209.988281 326.566406 210.601562 C 326.351562 211.292969 326.085938 211.921875 325.765625 212.480469 C 325.417969 213.09375 325.003906 213.640625 324.527344 214.121094 C 324.390625 214.253906 324.324219 214.347656 324.324219 214.398438 C 324.324219 214.507812 324.378906 214.558594 324.484375 214.558594 C 325.550781 213.839844 326.390625 212.800781 327.003906 211.441406 C 327.300781 210.851562 327.578125 209.988281 327.84375 208.839844 C 327.980469 208.121094 328.046875 207.359375 328.046875 206.558594 C 328.046875 205.785156 327.980469 205.027344 327.84375 204.28125 L 327.527344 202.921875 M 269.164062 200.121094 L 269.164062 199.640625 C 268.792969 199.667969 268.019531 199.679688 266.84375 199.679688 L 264.765625 199.640625 L 264.765625 200.121094 L 265.046875 200.121094 C 265.5 200.121094 265.820312 200.160156 266.003906 200.238281 C 266.21875 200.320312 266.40625 200.464844 266.566406 200.679688 L 269.484375 205.121094 L 266.886719 209 C 266.40625 209.71875 265.632812 210.078125 264.566406 210.078125 L 264.566406 210.558594 L 266.324219 210.519531 C 267.3125 210.519531 267.992188 210.535156 268.367188 210.558594 L 268.367188 210.078125 C 268.046875 210.054688 267.792969 209.960938 267.605469 209.800781 C 267.445312 209.667969 267.367188 209.507812 267.367188 209.320312 C 267.367188 209.238281 267.417969 209.121094 267.527344 208.960938 L 269.804688 205.601562 L 272.324219 209.398438 L 272.40625 209.601562 C 272.40625 209.707031 272.3125 209.800781 272.125 209.878906 C 271.9375 209.988281 271.6875 210.054688 271.367188 210.078125 L 271.367188 210.558594 C 271.738281 210.535156 272.511719 210.519531 273.6875 210.519531 L 275.765625 210.558594 L 275.765625 210.078125 L 275.484375 210.078125 C 275.03125 210.078125 274.710938 210.039062 274.527344 209.960938 C 274.3125 209.878906 274.125 209.71875 273.964844 209.480469 L 270.605469 204.398438 L 272.804688 201.160156 C 273.019531 200.867188 273.273438 200.625 273.566406 200.441406 C 273.753906 200.359375 273.964844 200.292969 274.207031 200.238281 C 274.472656 200.160156 274.777344 200.121094 275.125 200.121094 L 275.125 199.640625 L 273.324219 199.679688 C 272.390625 199.679688 271.710938 199.667969 271.285156 199.640625 L 271.285156 200.121094 C 271.578125 200.121094 271.820312 200.199219 272.003906 200.359375 C 272.191406 200.492188 272.285156 200.667969 272.285156 200.878906 C 272.285156 200.960938 272.230469 201.078125 272.125 201.238281 L 270.324219 203.921875 L 268.246094 200.839844 L 268.125 200.601562 C 268.125 200.492188 268.21875 200.398438 268.40625 200.320312 C 268.59375 200.1875 268.84375 200.121094 269.164062 200.121094 M 290.605469 200.28125 C 290.710938 200.359375 290.765625 200.558594 290.765625 200.878906 L 290.765625 209.320312 C 290.765625 209.613281 290.710938 209.8125 290.605469 209.921875 C 290.445312 210.027344 290.085938 210.078125 289.527344 210.078125 L 289.125 210.078125 L 289.125 210.558594 C 289.5 210.535156 290.273438 210.519531 291.445312 210.519531 C 292.617188 210.519531 293.40625 210.535156 293.804688 210.558594 L 293.804688 210.078125 L 293.40625 210.078125 C 292.820312 210.078125 292.460938 210.027344 292.324219 209.921875 C 292.21875 209.8125 292.164062 209.613281 292.164062 209.320312 L 292.164062 205.28125 L 294.003906 205.28125 C 294.617188 205.28125 295.113281 205.453125 295.484375 205.800781 C 295.753906 206.066406 295.925781 206.359375 296.003906 206.679688 C 296.058594 206.921875 296.085938 207.347656 296.085938 207.960938 C 296.085938 208.574219 296.113281 209 296.164062 209.238281 C 296.246094 209.640625 296.433594 209.972656 296.726562 210.238281 C 297.179688 210.613281 297.859375 210.839844 298.765625 210.921875 C 299.59375 210.921875 300.097656 210.332031 300.285156 209.160156 C 300.285156 208.972656 300.21875 208.878906 300.085938 208.878906 C 299.980469 208.878906 299.914062 208.960938 299.886719 209.121094 C 299.832031 209.652344 299.6875 210.039062 299.445312 210.28125 C 299.285156 210.464844 299.074219 210.558594 298.804688 210.558594 C 298.617188 210.558594 298.472656 210.507812 298.367188 210.398438 C 298.230469 210.320312 298.125 210.171875 298.046875 209.960938 C 297.9375 209.691406 297.820312 209.121094 297.6875 208.238281 L 297.484375 206.960938 C 297.40625 206.71875 297.300781 206.492188 297.164062 206.28125 C 297.058594 206.09375 296.914062 205.921875 296.726562 205.761719 C 296.40625 205.492188 296.003906 205.28125 295.527344 205.121094 C 295.925781 205.011719 296.285156 204.878906 296.605469 204.71875 C 296.953125 204.558594 297.257812 204.359375 297.527344 204.121094 C 297.765625 203.90625 297.953125 203.667969 298.085938 203.398438 C 298.246094 203.105469 298.324219 202.8125 298.324219 202.519531 C 298.324219 202.148438 298.21875 201.773438 298.003906 201.398438 C 297.792969 201.054688 297.5 200.746094 297.125 200.480469 C 296.726562 200.214844 296.285156 200.011719 295.804688 199.878906 C 295.273438 199.71875 294.726562 199.640625 294.164062 199.640625 L 289.125 199.640625 L 289.125 200.121094 L 289.527344 200.121094 C 290.085938 200.121094 290.445312 200.171875 290.605469 200.28125 M 292.164062 200.761719 C 292.164062 200.546875 292.179688 200.414062 292.207031 200.359375 C 292.230469 200.253906 292.324219 200.1875 292.484375 200.160156 L 294.566406 200.160156 C 294.964844 200.214844 295.3125 200.308594 295.605469 200.441406 C 295.953125 200.625 296.207031 200.867188 296.367188 201.160156 C 296.578125 201.507812 296.6875 201.960938 296.6875 202.519531 C 296.6875 202.839844 296.644531 203.121094 296.566406 203.359375 C 296.484375 203.652344 296.367188 203.90625 296.207031 204.121094 C 295.992188 204.359375 295.710938 204.546875 295.367188 204.679688 C 294.964844 204.839844 294.484375 204.921875 293.925781 204.921875 L 292.164062 204.921875 L 292.164062 200.761719 M 285.324219 200.28125 C 285.058594 200.066406 284.765625 199.878906 284.445312 199.71875 C 284.125 199.585938 283.792969 199.480469 283.445312 199.398438 C 283.097656 199.320312 282.738281 199.28125 282.367188 199.28125 C 282.019531 199.28125 281.671875 199.320312 281.324219 199.398438 C 280.980469 199.480469 280.644531 199.585938 280.324219 199.71875 C 280.003906 199.878906 279.710938 200.066406 279.445312 200.28125 C 279.152344 200.464844 278.886719 200.691406 278.644531 200.960938 C 278.40625 201.226562 278.191406 201.519531 278.003906 201.839844 C 277.792969 202.160156 277.617188 202.492188 277.484375 202.839844 C 277.351562 203.1875 277.246094 203.546875 277.164062 203.921875 C 277.085938 204.320312 277.046875 204.71875 277.046875 205.121094 C 277.046875 205.519531 277.085938 205.921875 277.164062 206.320312 C 277.246094 206.691406 277.351562 207.054688 277.484375 207.398438 C 277.617188 207.773438 277.792969 208.105469 278.003906 208.398438 C 278.191406 208.71875 278.40625 209 278.644531 209.238281 C 278.886719 209.507812 279.152344 209.746094 279.445312 209.960938 C 279.738281 210.148438 280.03125 210.320312 280.324219 210.480469 C 280.644531 210.613281 280.980469 210.71875 281.324219 210.800781 C 281.671875 210.878906 282.019531 210.921875 282.367188 210.921875 C 282.738281 210.921875 283.097656 210.878906 283.445312 210.800781 C 283.792969 210.71875 284.125 210.613281 284.445312 210.480469 C 284.765625 210.320312 285.058594 210.132812 285.324219 209.921875 C 285.617188 209.734375 285.886719 209.507812 286.125 209.238281 C 286.367188 208.972656 286.578125 208.691406 286.765625 208.398438 C 286.980469 208.078125 287.152344 207.746094 287.285156 207.398438 C 287.417969 207.054688 287.527344 206.691406 287.605469 206.320312 C 287.660156 205.921875 287.6875 205.519531 287.6875 205.121094 C 287.6875 204.71875 287.660156 204.332031 287.605469 203.960938 C 287.527344 203.585938 287.417969 203.214844 287.285156 202.839844 C 287.152344 202.492188 286.980469 202.160156 286.765625 201.839844 C 286.578125 201.546875 286.367188 201.265625 286.125 201 C 285.886719 200.734375 285.617188 200.492188 285.324219 200.28125 M 282.367188 199.679688 C 282.765625 199.679688 283.152344 199.761719 283.527344 199.921875 C 283.980469 200.105469 284.378906 200.386719 284.726562 200.761719 C 285.207031 201.375 285.527344 201.90625 285.6875 202.359375 C 285.792969 202.707031 285.886719 203.09375 285.964844 203.519531 C 286.019531 203.945312 286.046875 204.414062 286.046875 204.921875 C 286.046875 205.425781 286.019531 205.90625 285.964844 206.359375 C 285.914062 206.785156 285.820312 207.1875 285.6875 207.558594 C 285.578125 207.90625 285.445312 208.238281 285.285156 208.558594 C 285.125 208.828125 284.953125 209.066406 284.765625 209.28125 C 284.417969 209.707031 284.019531 210.011719 283.566406 210.199219 C 283.191406 210.386719 282.804688 210.480469 282.40625 210.480469 C 281.980469 210.480469 281.566406 210.386719 281.164062 210.199219 C 280.710938 209.988281 280.3125 209.679688 279.964844 209.28125 C 279.511719 208.613281 279.21875 208.039062 279.085938 207.558594 C 278.953125 207.1875 278.859375 206.785156 278.804688 206.359375 C 278.753906 205.90625 278.726562 205.425781 278.726562 204.921875 C 278.726562 204.414062 278.753906 203.933594 278.804688 203.480469 C 278.886719 203.078125 278.980469 202.707031 279.085938 202.359375 C 279.246094 201.90625 279.566406 201.359375 280.046875 200.71875 C 280.390625 200.375 280.792969 200.105469 281.246094 199.921875 C 281.617188 199.761719 281.992188 199.679688 282.367188 199.679688 M 352.246094 144.921875 C 352.246094 146.011719 352.632812 146.945312 353.40625 147.71875 C 354.207031 148.519531 355.152344 148.921875 356.246094 148.921875 C 357.339844 148.921875 358.273438 148.519531 359.046875 147.71875 C 359.84375 146.945312 360.246094 146.011719 360.246094 144.921875 C 360.246094 143.828125 359.84375 142.878906 359.046875 142.078125 C 358.273438 141.308594 357.339844 140.921875 356.246094 140.921875 C 355.152344 140.921875 354.207031 141.308594 353.40625 142.078125 C 352.632812 142.878906 352.246094 143.828125 352.246094 144.921875 M 243.207031 36.71875 C 244.003906 35.945312 244.40625 35.011719 244.40625 33.921875 C 244.40625 32.828125 244.003906 31.878906 243.207031 31.078125 C 242.433594 30.308594 241.5 29.921875 240.40625 29.921875 C 239.3125 29.921875 238.367188 30.308594 237.566406 31.078125 C 236.792969 31.878906 236.40625 32.828125 236.40625 33.921875 C 236.40625 35.011719 236.792969 35.945312 237.566406 36.71875 C 238.367188 37.519531 239.3125 37.921875 240.40625 37.921875 C 241.5 37.921875 242.433594 37.519531 243.207031 36.71875 M 300.886719 9.761719 C 300.886719 9.8125 300.925781 9.839844 301.003906 9.839844 L 303.246094 9.839844 C 303.351562 9.839844 303.40625 9.800781 303.40625 9.71875 C 303.40625 9.640625 303.339844 9.601562 303.207031 9.601562 L 302.765625 9.558594 L 302.566406 9.519531 C 302.539062 9.519531 302.527344 9.492188 302.527344 9.441406 L 303.765625 4.480469 L 303.765625 4.359375 C 303.765625 4.308594 303.738281 4.28125 303.6875 4.28125 C 303.660156 4.28125 303.605469 4.320312 303.527344 4.398438 C 303.367188 4.613281 303.207031 4.785156 303.046875 4.921875 C 302.914062 5.027344 302.777344 5.105469 302.644531 5.160156 C 302.460938 5.265625 302.257812 5.332031 302.046875 5.359375 C 301.964844 5.359375 301.925781 5.414062 301.925781 5.519531 C 301.925781 5.574219 301.964844 5.601562 302.046875 5.601562 C 302.152344 5.601562 302.273438 5.585938 302.40625 5.558594 C 302.617188 5.480469 302.804688 5.375 302.964844 5.238281 L 302.003906 9.238281 C 301.953125 9.375 301.886719 9.464844 301.804688 9.519531 C 301.699219 9.574219 301.484375 9.601562 301.164062 9.601562 L 301.125 9.601562 C 300.964844 9.601562 300.886719 9.652344 300.886719 9.761719 M 300.605469 1.800781 C 300.792969 1.640625 300.886719 1.398438 300.886719 1.078125 C 300.886719 0.894531 300.832031 0.71875 300.726562 0.558594 C 300.644531 0.425781 300.511719 0.308594 300.324219 0.199219 C 300.058594 0.0664062 299.753906 0 299.40625 0 C 299.003906 0 298.632812 0.160156 298.285156 0.480469 C 298.046875 0.667969 297.859375 0.894531 297.726562 1.160156 C 297.59375 0.839844 297.324219 0.519531 296.925781 0.199219 C 296.6875 0.0664062 296.40625 0 296.085938 0 C 294.9375 0 294.058594 0.878906 293.445312 2.640625 C 293.445312 2.773438 293.527344 2.839844 293.6875 2.839844 L 293.886719 2.800781 L 294.003906 2.558594 C 294.113281 2.1875 294.246094 1.851562 294.40625 1.558594 C 294.566406 1.320312 294.738281 1.105469 294.925781 0.921875 C 295.300781 0.574219 295.671875 0.398438 296.046875 0.398438 C 296.285156 0.398438 296.484375 0.492188 296.644531 0.679688 C 296.804688 0.867188 296.886719 1.132812 296.886719 1.480469 C 296.886719 1.746094 296.765625 2.375 296.527344 3.359375 L 296.125 4.921875 C 295.914062 5.691406 295.726562 6.253906 295.566406 6.601562 C 295.433594 6.839844 295.273438 7.039062 295.085938 7.199219 C 294.898438 7.332031 294.6875 7.398438 294.445312 7.398438 C 294.152344 7.398438 293.898438 7.332031 293.6875 7.199219 C 294.03125 7.09375 294.257812 6.8125 294.367188 6.359375 C 294.367188 6.066406 294.164062 5.878906 293.765625 5.800781 C 293.550781 5.800781 293.367188 5.878906 293.207031 6.039062 C 293.019531 6.226562 292.925781 6.453125 292.925781 6.71875 C 292.925781 7.039062 293.074219 7.308594 293.367188 7.519531 C 293.660156 7.707031 294.019531 7.800781 294.445312 7.800781 C 294.792969 7.800781 295.125 7.667969 295.445312 7.398438 C 295.710938 7.214844 295.9375 6.960938 296.125 6.640625 C 296.257812 7.066406 296.511719 7.386719 296.886719 7.601562 C 297.152344 7.734375 297.445312 7.800781 297.765625 7.800781 C 298.914062 7.800781 299.777344 6.921875 300.367188 5.160156 C 300.367188 5.027344 300.285156 4.960938 300.125 4.960938 C 299.964844 4.960938 299.871094 5.054688 299.84375 5.238281 C 299.710938 5.613281 299.566406 5.945312 299.40625 6.238281 C 299.246094 6.507812 299.074219 6.71875 298.886719 6.878906 C 298.539062 7.226562 298.164062 7.398438 297.765625 7.398438 C 297.550781 7.398438 297.378906 7.332031 297.246094 7.199219 C 297.058594 7.011719 296.964844 6.71875 296.964844 6.320312 C 296.964844 6.078125 297.074219 5.507812 297.285156 4.601562 L 297.886719 2.238281 C 298.019531 1.707031 298.191406 1.28125 298.40625 0.960938 C 298.566406 0.773438 298.710938 0.640625 298.84375 0.558594 C 299.003906 0.453125 299.191406 0.398438 299.40625 0.398438 C 299.726562 0.398438 299.980469 0.480469 300.164062 0.640625 C 299.710938 0.746094 299.484375 1.011719 299.484375 1.441406 C 299.484375 1.574219 299.527344 1.691406 299.605469 1.800781 C 299.710938 1.933594 299.859375 2 300.046875 2 C 300.230469 2 300.417969 1.933594 300.605469 1.800781 M 393.886719 93.558594 C 393.726562 93.585938 393.59375 93.652344 393.484375 93.761719 C 393.246094 93.921875 393.03125 94.132812 392.84375 94.398438 C 392.710938 94.640625 392.59375 94.894531 392.484375 95.160156 C 392.40625 95.425781 392.367188 95.625 392.367188 95.761719 C 392.390625 96.132812 392.539062 96.320312 392.804688 96.320312 C 392.9375 96.320312 393.085938 96.265625 393.246094 96.160156 C 393.351562 96.054688 393.460938 95.921875 393.566406 95.761719 C 393.671875 95.546875 393.753906 95.28125 393.804688 94.960938 L 393.765625 94.679688 C 393.710938 94.546875 393.671875 94.480469 393.644531 94.480469 C 393.566406 94.480469 393.527344 94.519531 393.527344 94.601562 L 393.527344 94.640625 C 393.605469 94.773438 393.644531 94.878906 393.644531 94.960938 C 393.644531 95.148438 393.566406 95.375 393.40625 95.640625 C 393.324219 95.773438 393.230469 95.878906 393.125 95.960938 C 393.019531 96.066406 392.914062 96.121094 392.804688 96.121094 C 392.671875 96.121094 392.605469 96.027344 392.605469 95.839844 C 392.605469 95.707031 392.644531 95.507812 392.726562 95.238281 C 392.804688 95 392.914062 94.773438 393.046875 94.558594 C 393.207031 94.292969 393.378906 94.078125 393.566406 93.921875 C 393.699219 93.839844 393.820312 93.773438 393.925781 93.71875 C 394.058594 93.691406 394.179688 93.679688 394.285156 93.679688 C 394.5 93.679688 394.671875 93.746094 394.804688 93.878906 C 394.886719 93.960938 394.9375 94.054688 394.964844 94.160156 C 395.019531 94.292969 395.046875 94.441406 395.046875 94.601562 C 395.046875 94.921875 395.003906 95.199219 394.925781 95.441406 C 394.84375 95.679688 394.726562 95.90625 394.566406 96.121094 C 394.433594 96.308594 394.257812 96.480469 394.046875 96.640625 C 393.886719 96.800781 393.6875 96.945312 393.445312 97.078125 C 392.964844 97.375 392.605469 97.667969 392.367188 97.960938 C 391.964844 98.441406 391.726562 98.878906 391.644531 99.28125 C 391.644531 99.359375 391.699219 99.398438 391.804688 99.398438 C 391.859375 99.398438 391.898438 99.359375 391.925781 99.28125 C 391.980469 99.121094 392.03125 98.988281 392.085938 98.878906 C 392.191406 98.773438 392.300781 98.71875 392.40625 98.71875 C 392.59375 98.71875 392.832031 98.828125 393.125 99.039062 L 393.527344 99.28125 C 393.660156 99.359375 393.804688 99.398438 393.964844 99.398438 C 394.097656 99.398438 394.207031 99.375 394.285156 99.320312 L 394.605469 99.160156 C 394.765625 99.027344 394.898438 98.851562 395.003906 98.640625 C 395.164062 98.375 395.285156 98.09375 395.367188 97.800781 C 395.367188 97.746094 395.3125 97.71875 395.207031 97.71875 C 395.125 97.71875 395.074219 97.761719 395.046875 97.839844 C 394.992188 98.078125 394.886719 98.28125 394.726562 98.441406 C 394.644531 98.546875 394.550781 98.625 394.445312 98.679688 C 394.3125 98.734375 394.179688 98.761719 394.046875 98.761719 C 393.832031 98.761719 393.59375 98.734375 393.324219 98.679688 C 392.898438 98.574219 392.59375 98.519531 392.40625 98.519531 L 392.246094 98.558594 C 392.539062 98.078125 392.980469 97.667969 393.566406 97.320312 L 394.445312 96.761719 C 394.710938 96.601562 394.925781 96.425781 395.085938 96.238281 C 395.273438 96.054688 395.417969 95.867188 395.527344 95.679688 C 395.605469 95.441406 395.644531 95.1875 395.644531 94.921875 C 395.644531 94.679688 395.617188 94.464844 395.566406 94.28125 C 395.484375 94.121094 395.378906 93.972656 395.246094 93.839844 C 395.113281 93.707031 394.964844 93.613281 394.804688 93.558594 C 394.644531 93.507812 394.484375 93.480469 394.324219 93.480469 C 394.164062 93.480469 394.019531 93.507812 393.886719 93.558594 M 390.605469 89.71875 C 390.527344 89.558594 390.390625 89.441406 390.207031 89.359375 C 389.9375 89.226562 389.617188 89.160156 389.246094 89.160156 C 388.84375 89.160156 388.472656 89.308594 388.125 89.601562 C 387.886719 89.8125 387.699219 90.054688 387.566406 90.320312 C 387.433594 90 387.152344 89.667969 386.726562 89.320312 C 386.460938 89.214844 386.164062 89.160156 385.84375 89.160156 C 384.671875 89.160156 383.777344 90.054688 383.164062 91.839844 C 383.164062 91.972656 383.246094 92.039062 383.40625 92.039062 L 383.644531 92 L 383.765625 91.71875 C 383.871094 91.347656 384.003906 91.011719 384.164062 90.71875 C 384.324219 90.480469 384.5 90.253906 384.6875 90.039062 C 385.058594 89.691406 385.433594 89.519531 385.804688 89.519531 C 386.074219 89.519531 386.285156 89.625 386.445312 89.839844 C 386.605469 90.027344 386.6875 90.292969 386.6875 90.640625 C 386.6875 90.90625 386.550781 91.546875 386.285156 92.558594 L 385.886719 94.160156 C 385.699219 94.933594 385.511719 95.492188 385.324219 95.839844 C 385.191406 96.105469 385.03125 96.320312 384.84375 96.480469 C 384.660156 96.613281 384.445312 96.679688 384.207031 96.679688 C 383.886719 96.679688 383.617188 96.613281 383.40625 96.480469 C 383.777344 96.375 384.003906 96.078125 384.085938 95.601562 C 384.085938 95.308594 383.898438 95.132812 383.527344 95.078125 C 383.285156 95.078125 383.085938 95.160156 382.925781 95.320312 C 382.738281 95.507812 382.644531 95.734375 382.644531 96 C 382.644531 96.320312 382.804688 96.585938 383.125 96.800781 C 383.390625 96.988281 383.738281 97.078125 384.164062 97.078125 C 384.539062 97.078125 384.898438 96.945312 385.246094 96.679688 C 385.484375 96.492188 385.699219 96.226562 385.886719 95.878906 C 386.046875 96.332031 386.3125 96.667969 386.6875 96.878906 C 386.953125 97.011719 387.246094 97.078125 387.566406 97.078125 C 388.765625 97.078125 389.660156 96.171875 390.246094 94.359375 C 390.246094 94.253906 390.164062 94.199219 390.003906 94.199219 C 389.84375 94.199219 389.738281 94.292969 389.6875 94.480469 C 389.578125 94.878906 389.433594 95.214844 389.246094 95.480469 C 389.113281 95.746094 388.9375 95.972656 388.726562 96.160156 C 388.378906 96.507812 388.003906 96.679688 387.605469 96.679688 C 387.390625 96.679688 387.207031 96.613281 387.046875 96.480469 C 386.859375 96.292969 386.765625 95.988281 386.765625 95.558594 C 386.765625 95.320312 386.871094 94.734375 387.085938 93.800781 L 387.6875 91.398438 C 387.84375 90.867188 388.03125 90.441406 388.246094 90.121094 C 388.378906 89.933594 388.527344 89.785156 388.6875 89.679688 C 388.871094 89.574219 389.058594 89.519531 389.246094 89.519531 C 389.566406 89.519531 389.820312 89.613281 390.003906 89.800781 C 389.550781 89.90625 389.324219 90.1875 389.324219 90.640625 C 389.324219 90.746094 389.367188 90.867188 389.445312 91 C 389.550781 91.105469 389.710938 91.160156 389.925781 91.160156 C 390.113281 91.160156 390.300781 91.09375 390.484375 90.960938 C 390.671875 90.800781 390.765625 90.558594 390.765625 90.238281 C 390.765625 90.054688 390.710938 89.878906 390.605469 89.71875 Z M 390.605469 89.71875 "/>
</g>
<path style="fill:none;stroke-width:0.8;stroke-linecap:round;stroke-linejoin:round;stroke:rgb(0%,0%,0%);stroke-opacity:1;stroke-miterlimit:4;" d="M 360.246094 33.921875 C 360.246094 35.011719 359.84375 35.945312 359.046875 36.71875 C 358.273438 37.519531 357.339844 37.921875 356.246094 37.921875 C 355.152344 37.921875 354.207031 37.519531 353.40625 36.71875 C 352.632812 35.945312 352.246094 35.011719 352.246094 33.921875 C 352.246094 32.828125 352.632812 31.878906 353.40625 31.078125 C 354.207031 30.308594 355.152344 29.921875 356.246094 29.921875 C 357.339844 29.921875 358.273438 30.308594 359.046875 31.078125 C 359.84375 31.878906 360.246094 32.828125 360.246094 33.921875 Z M 297.765625 44.761719 L 297.765625 94.640625 L 347.644531 94.640625 L 257.285156 4.28125 M 297.765625 142.359375 L 297.765625 94.640625 L 250.046875 94.640625 L 337.964844 182.558594 M 297.765625 14.039062 L 297.765625 44.761719 M 297.765625 142.359375 L 297.765625 175.238281 M 244.40625 144.921875 C 244.40625 146.011719 244.003906 146.945312 243.207031 147.71875 C 242.433594 148.519531 241.5 148.921875 240.40625 148.921875 C 239.3125 148.921875 238.367188 148.519531 237.566406 147.71875 C 236.792969 146.945312 236.40625 146.011719 236.40625 144.921875 C 236.40625 143.828125 236.792969 142.878906 237.566406 142.078125 C 238.367188 141.308594 239.3125 140.921875 240.40625 140.921875 C 241.5 140.921875 242.433594 141.308594 243.207031 142.078125 C 244.003906 142.878906 244.40625 143.828125 244.40625 144.921875 Z M 390.765625 137.761719 L 347.644531 94.640625 L 378.367188 94.640625 M 161.605469 94.640625 L 113.246094 94.640625 L 166.125 147.519531 M 27.644531 33.921875 C 27.644531 35.011719 27.246094 35.945312 26.445312 36.71875 C 25.671875 37.519531 24.738281 37.921875 23.644531 37.921875 C 22.550781 37.921875 21.605469 37.519531 20.804688 36.71875 C 20.03125 35.945312 19.644531 35.011719 19.644531 33.921875 C 19.644531 32.828125 20.03125 31.878906 20.804688 31.078125 C 21.605469 30.308594 22.550781 29.921875 23.644531 29.921875 C 24.738281 29.921875 25.671875 30.308594 26.445312 31.078125 C 27.246094 31.878906 27.644531 32.828125 27.644531 33.921875 Z M 81.003906 62.398438 L 81.003906 94.640625 L 113.246094 94.640625 L 32.644531 14.039062 M 81.003906 14.039062 L 81.003906 62.398438 M 81.003906 175.238281 L 81.003906 94.640625 L 0.40625 94.640625 M 27.644531 144.921875 C 27.644531 146.011719 27.246094 146.945312 26.445312 147.71875 C 25.671875 148.519531 24.738281 148.921875 23.644531 148.921875 C 22.550781 148.921875 21.605469 148.519531 20.804688 147.71875 C 20.03125 146.945312 19.644531 146.011719 19.644531 144.921875 C 19.644531 143.828125 20.03125 142.878906 20.804688 142.078125 C 21.605469 141.308594 22.550781 140.921875 23.644531 140.921875 C 24.738281 140.921875 25.671875 141.308594 26.445312 142.078125 C 27.246094 142.878906 27.644531 143.828125 27.644531 144.921875 Z M 143.484375 144.921875 C 143.484375 146.011719 143.085938 146.945312 142.285156 147.71875 C 141.511719 148.519531 140.578125 148.921875 139.484375 148.921875 C 138.390625 148.921875 137.445312 148.519531 136.644531 147.71875 C 135.871094 146.945312 135.484375 146.011719 135.484375 144.921875 C 135.484375 143.828125 135.871094 142.878906 136.644531 142.078125 C 137.445312 141.308594 138.390625 140.921875 139.484375 140.921875 C 140.578125 140.921875 141.511719 141.308594 142.285156 142.078125 C 143.085938 142.878906 143.484375 143.828125 143.484375 144.921875 Z M 217.164062 94.640625 L 250.046875 94.640625 L 204.484375 49.078125 "/>
</g>
</svg>
