<?xml version="1.0" encoding="UTF-8"?>
<svg xmlns="http://www.w3.org/2000/svg" xmlns:xlink="http://www.w3.org/1999/xlink" width="169.6514pt" height="203.7657pt" viewBox="0 0 169.6514 203.7657" version="1.1">
<defs>
<clipPath id="clip1">
  <path d="M 0 34 L 169.652344 34 L 169.652344 203.765625 L 0 203.765625 Z M 0 34 "/>
</clipPath>
</defs>
<g id="surface1">
<path style=" stroke:none;fill-rule:nonzero;fill:rgb(0%,0%,0%);fill-opacity:1;" d="M 94.925781 192.199219 C 94.871094 191.878906 94.738281 191.414062 94.527344 190.800781 C 94.390625 190.535156 94.230469 190.308594 94.046875 190.121094 C 93.859375 189.933594 93.671875 189.785156 93.484375 189.679688 C 93.164062 189.519531 92.820312 189.441406 92.445312 189.441406 C 91.9375 189.492188 91.566406 189.601562 91.324219 189.761719 C 91.140625 189.867188 90.964844 190.011719 90.804688 190.199219 C 90.617188 190.386719 90.472656 190.613281 90.367188 190.878906 C 90.179688 191.253906 90.058594 191.691406 90.003906 192.199219 C 89.953125 192.574219 89.925781 193.054688 89.925781 193.640625 C 89.925781 194.199219 89.953125 194.679688 90.003906 195.078125 C 90.140625 195.746094 90.285156 196.226562 90.445312 196.519531 C 90.578125 196.761719 90.738281 196.960938 90.925781 197.121094 C 91.058594 197.28125 91.21875 197.414062 91.40625 197.519531 C 91.726562 197.679688 92.074219 197.761719 92.445312 197.761719 L 92.964844 197.679688 C 93.179688 197.652344 93.367188 197.585938 93.527344 197.480469 C 93.738281 197.375 93.925781 197.226562 94.085938 197.039062 C 94.273438 196.851562 94.417969 196.625 94.527344 196.359375 C 94.710938 195.960938 94.84375 195.519531 94.925781 195.039062 C 94.980469 194.640625 95.003906 194.171875 95.003906 193.640625 C 95.003906 193.054688 94.980469 192.574219 94.925781 192.199219 M 93.246094 189.960938 C 93.378906 190.066406 93.5 190.214844 93.605469 190.398438 C 93.738281 190.613281 93.832031 190.851562 93.886719 191.121094 C 93.9375 191.414062 93.964844 191.800781 93.964844 192.28125 L 94.003906 193.480469 C 94.003906 194.625 93.953125 195.453125 93.84375 195.960938 C 93.820312 196.253906 93.753906 196.492188 93.644531 196.679688 C 93.539062 196.867188 93.417969 197.027344 93.285156 197.160156 C 93.046875 197.375 92.765625 197.480469 92.445312 197.480469 C 92.152344 197.480469 91.886719 197.386719 91.644531 197.199219 C 91.511719 197.066406 91.390625 196.90625 91.285156 196.71875 C 91.179688 196.535156 91.097656 196.292969 91.046875 196 C 90.964844 195.519531 90.925781 194.679688 90.925781 193.480469 C 90.925781 192.972656 90.953125 192.226562 91.003906 191.238281 C 91.164062 190.308594 91.644531 189.800781 92.445312 189.71875 C 92.738281 189.71875 93.003906 189.800781 93.246094 189.960938 M 71.765625 4.71875 C 71.925781 4.375 72.003906 4 72.003906 3.601562 C 72.003906 3.121094 71.871094 2.667969 71.605469 2.238281 C 71.367188 1.8125 71.003906 1.425781 70.527344 1.078125 C 70.019531 0.734375 69.460938 0.464844 68.84375 0.28125 C 68.179688 0.09375 67.484375 0 66.765625 0 L 60.484375 0 L 60.484375 0.601562 L 60.964844 0.601562 C 61.6875 0.601562 62.140625 0.667969 62.324219 0.800781 C 62.460938 0.90625 62.527344 1.160156 62.527344 1.558594 L 62.527344 12.160156 C 62.527344 12.535156 62.460938 12.773438 62.324219 12.878906 C 62.140625 13.039062 61.6875 13.121094 60.964844 13.121094 L 60.484375 13.121094 L 60.484375 13.71875 C 60.964844 13.691406 61.9375 13.679688 63.40625 13.679688 C 64.871094 13.679688 65.84375 13.691406 66.324219 13.71875 L 66.324219 13.121094 L 65.84375 13.121094 C 65.125 13.121094 64.671875 13.039062 64.484375 12.878906 C 64.351562 12.773438 64.285156 12.535156 64.285156 12.160156 L 64.285156 7.078125 L 66.566406 7.078125 C 67.339844 7.078125 67.964844 7.308594 68.445312 7.761719 C 68.792969 8.078125 69.019531 8.453125 69.125 8.878906 C 69.179688 9.148438 69.207031 9.667969 69.207031 10.441406 C 69.207031 11.238281 69.246094 11.785156 69.324219 12.078125 C 69.433594 12.558594 69.671875 12.972656 70.046875 13.320312 C 70.578125 13.800781 71.417969 14.078125 72.566406 14.160156 C 73.605469 14.160156 74.246094 13.425781 74.484375 11.960938 C 74.484375 11.71875 74.390625 11.601562 74.207031 11.601562 C 74.074219 11.601562 73.992188 11.707031 73.964844 11.921875 C 73.914062 12.558594 73.738281 13.039062 73.445312 13.359375 C 73.230469 13.601562 72.964844 13.71875 72.644531 13.71875 C 72.40625 13.71875 72.207031 13.652344 72.046875 13.519531 C 71.914062 13.414062 71.792969 13.226562 71.6875 12.960938 C 71.550781 12.640625 71.390625 11.933594 71.207031 10.839844 L 70.964844 9.199219 C 70.886719 8.90625 70.753906 8.625 70.566406 8.359375 C 70.40625 8.121094 70.21875 7.90625 70.003906 7.71875 C 69.632812 7.375 69.140625 7.09375 68.527344 6.878906 C 69.003906 6.773438 69.460938 6.613281 69.886719 6.398438 C 70.3125 6.1875 70.6875 5.933594 71.003906 5.640625 C 71.324219 5.375 71.578125 5.066406 71.765625 4.71875 M 69.964844 3.601562 C 69.964844 4 69.925781 4.359375 69.84375 4.679688 C 69.738281 5.054688 69.566406 5.375 69.324219 5.640625 C 69.085938 5.960938 68.738281 6.199219 68.285156 6.359375 C 67.804688 6.546875 67.207031 6.640625 66.484375 6.640625 L 64.285156 6.640625 L 64.285156 1.441406 C 64.285156 1.148438 64.300781 0.960938 64.324219 0.878906 C 64.378906 0.746094 64.511719 0.667969 64.726562 0.640625 L 67.285156 0.679688 C 67.820312 0.734375 68.257812 0.851562 68.605469 1.039062 C 69.03125 1.226562 69.351562 1.519531 69.566406 1.921875 C 69.832031 2.347656 69.964844 2.90625 69.964844 3.601562 M 82.804688 9.039062 C 82.886719 8.988281 82.925781 8.851562 82.925781 8.640625 C 82.925781 8.132812 82.84375 7.652344 82.6875 7.199219 C 82.550781 6.71875 82.339844 6.292969 82.046875 5.921875 C 81.753906 5.546875 81.378906 5.253906 80.925781 5.039062 C 80.445312 4.828125 79.914062 4.71875 79.324219 4.71875 C 78.738281 4.71875 78.191406 4.839844 77.6875 5.078125 C 77.179688 5.320312 76.726562 5.652344 76.324219 6.078125 C 75.953125 6.507812 75.660156 6.988281 75.445312 7.519531 C 75.230469 8.078125 75.125 8.667969 75.125 9.28125 C 75.125 9.945312 75.246094 10.574219 75.484375 11.160156 C 75.726562 11.71875 76.058594 12.214844 76.484375 12.640625 C 76.886719 13.039062 77.351562 13.359375 77.886719 13.601562 C 78.417969 13.839844 78.980469 13.960938 79.566406 13.960938 C 81.191406 13.960938 82.3125 13.078125 82.925781 11.320312 C 82.925781 11.160156 82.832031 11.078125 82.644531 11.078125 C 82.511719 11.078125 82.433594 11.171875 82.40625 11.359375 C 81.925781 12.746094 81.019531 13.441406 79.6875 13.441406 C 79.207031 13.441406 78.753906 13.308594 78.324219 13.039062 C 77.953125 12.800781 77.644531 12.480469 77.40625 12.078125 C 77.003906 11.441406 76.804688 10.441406 76.804688 9.078125 L 82.40625 9.078125 C 82.644531 9.078125 82.777344 9.066406 82.804688 9.039062 M 76.804688 8.640625 C 76.832031 7.945312 76.953125 7.347656 77.164062 6.839844 C 77.324219 6.414062 77.550781 6.066406 77.84375 5.800781 C 78.191406 5.453125 78.6875 5.238281 79.324219 5.160156 C 80.6875 5.160156 81.433594 6.320312 81.566406 8.640625 L 76.804688 8.640625 M 95.164062 8.519531 L 94.6875 8.519531 C 94.527344 9.960938 94.273438 10.988281 93.925781 11.601562 C 93.632812 12.054688 93.230469 12.414062 92.726562 12.679688 C 92.460938 12.8125 92.152344 12.921875 91.804688 13 C 91.460938 13.078125 91.074219 13.121094 90.644531 13.121094 L 89.003906 13.121094 C 88.550781 13.121094 88.273438 13.066406 88.164062 12.960938 C 88.058594 12.851562 88.003906 12.625 88.003906 12.28125 L 88.003906 1.601562 C 88.003906 1.199219 88.085938 0.945312 88.246094 0.839844 C 88.484375 0.679688 89.046875 0.601562 89.925781 0.601562 L 90.566406 0.601562 L 90.566406 0 C 90.085938 0.0273438 88.964844 0.0390625 87.207031 0.0390625 C 85.632812 0.0390625 84.617188 0.0273438 84.164062 0 L 84.164062 0.601562 L 84.644531 0.601562 C 85.367188 0.601562 85.820312 0.667969 86.003906 0.800781 C 86.140625 0.90625 86.207031 1.160156 86.207031 1.558594 L 86.207031 12.160156 C 86.207031 12.535156 86.140625 12.773438 86.003906 12.878906 C 85.820312 13.039062 85.367188 13.121094 84.644531 13.121094 L 84.164062 13.121094 L 84.164062 13.71875 L 94.605469 13.71875 L 95.164062 8.519531 M 110.40625 0.601562 L 110.40625 0 L 105.644531 0 L 105.644531 0.601562 C 106.125 0.601562 106.527344 0.652344 106.84375 0.761719 C 107.113281 0.867188 107.3125 1 107.445312 1.160156 C 107.605469 1.375 107.6875 1.691406 107.6875 2.121094 L 107.6875 9.078125 C 107.6875 9.773438 107.578125 10.414062 107.367188 11 C 107.152344 11.535156 106.859375 11.988281 106.484375 12.359375 C 106.140625 12.761719 105.726562 13.054688 105.246094 13.238281 C 104.792969 13.453125 104.324219 13.558594 103.84375 13.558594 C 102.964844 13.453125 102.300781 13.199219 101.84375 12.800781 C 101.445312 12.480469 101.140625 12.054688 100.925781 11.519531 L 100.644531 10.519531 L 100.527344 9.199219 L 100.527344 1.558594 C 100.527344 1.160156 100.605469 0.90625 100.765625 0.800781 C 100.925781 0.667969 101.378906 0.601562 102.125 0.601562 L 102.605469 0.601562 L 102.605469 0 C 102.125 0.0273438 101.140625 0.0390625 99.644531 0.0390625 C 98.125 0.0390625 97.140625 0.0273438 96.6875 0 L 96.6875 0.601562 L 97.164062 0.601562 C 97.886719 0.601562 98.339844 0.667969 98.527344 0.800781 C 98.660156 0.90625 98.726562 1.160156 98.726562 1.558594 L 98.726562 9.121094 C 98.726562 9.8125 98.871094 10.480469 99.164062 11.121094 C 99.40625 11.734375 99.765625 12.265625 100.246094 12.71875 C 100.726562 13.171875 101.257812 13.519531 101.84375 13.761719 C 102.484375 14.027344 103.140625 14.160156 103.804688 14.160156 C 104.367188 14.160156 104.914062 14.054688 105.445312 13.839844 C 105.925781 13.625 106.367188 13.332031 106.765625 12.960938 C 107.164062 12.558594 107.5 12.105469 107.765625 11.601562 C 108.003906 11.09375 108.164062 10.558594 108.246094 10 C 108.300781 9.734375 108.324219 9.265625 108.324219 8.601562 L 108.324219 2.160156 C 108.324219 1.707031 108.417969 1.375 108.605469 1.160156 C 108.738281 1 108.9375 0.867188 109.207031 0.761719 C 109.527344 0.652344 109.925781 0.601562 110.40625 0.601562 Z M 110.40625 0.601562 "/>
<g clip-path="url(#clip1)" clip-rule="nonzero">
<path style="fill:none;stroke-width:0.8;stroke-linecap:round;stroke-linejoin:round;stroke:rgb(0%,0%,0%);stroke-opacity:1;stroke-miterlimit:4;" d="M 84.804688 184.441406 L 84.804688 184.878906 L 169.246094 184.878906 M 84.804688 34.519531 L 84.804688 184.441406 M 84.804688 203.359375 L 84.804688 184.878906 L 0.40625 184.878906 "/>
</g>
<path style="fill:none;stroke-width:0.8;stroke-linecap:round;stroke-linejoin:round;stroke:rgb(100%,0%,0%);stroke-opacity:1;stroke-miterlimit:4;" d="M 0.40625 184.480469 L 84.765625 184.480469 L 84.804688 184.441406 L 168.125 86.199219 "/>
</g>
</svg>
