<?xml version="1.0" encoding="UTF-8"?>
<svg xmlns="http://www.w3.org/2000/svg" xmlns:xlink="http://www.w3.org/1999/xlink" width="500pt" height="443pt" viewBox="0 0 500 443" version="1.1">
<defs>
<clipPath id="clip1">
  <path d="M 5 0.378906 L 495 0.378906 L 495 443 L 5 443 Z M 5 0.378906 "/>
</clipPath>
</defs>
<g id="surface1">
<path style=" stroke:none;fill-rule:nonzero;fill:rgb(1.713562%,2.252197%,2.304077%);fill-opacity:1;" d="M 100.183594 406.867188 C 99.527344 407.234375 98.910156 407.648438 97.28125 408.3125 C 97.03125 407.863281 95.800781 405.660156 94.558594 403.429688 C 94.558594 403.417969 94.5625 403.40625 94.5625 403.398438 C 94.558594 403.398438 94.554688 403.40625 94.546875 403.40625 C 94.503906 403.332031 94.464844 403.261719 94.421875 403.1875 C 95.214844 402.738281 96.09375 402.25 96.554688 402.015625 C 101.554688 399.386719 104.269531 404.585938 100.183594 406.867188 Z M 90.203125 396.523438 C 90.867188 396.152344 91.597656 395.742188 92.6875 395.132812 C 97.050781 392.699219 100.019531 398.179688 95.113281 399.726562 C 94.988281 400.371094 94.714844 401.84375 94.417969 403.175781 C 93.171875 400.949219 91.949219 398.753906 91.695312 398.28125 C 91.273438 397.527344 90.742188 396.957031 90.203125 396.523438 Z M 100.621094 397.957031 C 102.75 394.476562 98.742188 388.589844 92.113281 392.28125 C 89.988281 393.480469 87.046875 395.109375 86.808594 395.238281 C 86.539062 396.589844 86.292969 397.902344 86.011719 399.269531 C 86.425781 399.136719 87.621094 399.117188 88.234375 400.203125 C 89.5625 402.585938 93.890625 410.371094 95.171875 412.65625 C 99.902344 410.40625 101.613281 409.46875 103.230469 408.304688 C 108.984375 404.183594 105.027344 397.773438 100.621094 397.957031 "/>
<path style=" stroke:none;fill-rule:nonzero;fill:rgb(1.713562%,2.252197%,2.304077%);fill-opacity:1;" d="M 80 416.320312 C 79.578125 416.492188 76.71875 417.710938 76.011719 418.011719 C 74.714844 414.960938 72.152344 408.925781 71.53125 407.46875 C 70.367188 404.714844 67.808594 404 66.996094 403.917969 C 66.59375 405.21875 66.207031 406.507812 65.777344 407.832031 C 66.207031 407.738281 67.398438 407.847656 67.882812 409 C 68.953125 411.503906 72.011719 418.707031 73.453125 422.113281 C 75.164062 421.382812 83.972656 417.640625 85.230469 417.109375 C 84.234375 416.480469 82.636719 415.449219 81.59375 414.757812 C 81.5625 415.644531 80.382812 416.148438 80 416.320312 "/>
<path style=" stroke:none;fill-rule:nonzero;fill:rgb(1.713562%,2.252197%,2.304077%);fill-opacity:1;" d="M 144.65625 380.023438 C 143.085938 377.09375 140.617188 372.464844 139.859375 371.066406 C 139.519531 370.410156 139.050781 369.722656 138.390625 369.464844 C 139.800781 368.707031 140.679688 368.238281 140.875 368.132812 C 142.03125 367.519531 142.765625 367.542969 143.128906 367.882812 C 143.445312 366.449219 143.695312 365.1875 144.082031 363.269531 C 141.882812 364.457031 132.476562 369.488281 130.179688 370.714844 C 130.023438 371.433594 129.441406 374.171875 129.191406 375.34375 C 129.710938 374.535156 130.25 373.808594 131.574219 373.09375 C 132.597656 372.550781 132.695312 372.496094 133.863281 371.878906 C 134.710938 371.421875 135.699219 371.667969 136.273438 372.734375 C 137.5625 375.148438 141.683594 382.847656 143.425781 386.101562 C 144.441406 384.59375 145.785156 382.597656 146.507812 381.523438 C 146.0625 381.484375 145.359375 381.347656 144.65625 380.023438 "/>
<path style=" stroke:none;fill-rule:nonzero;fill:rgb(1.713562%,2.252197%,2.304077%);fill-opacity:1;" d="M 404.792969 393.175781 C 406.183594 393.976562 407.042969 394.460938 407.238281 394.570312 C 408.386719 395.21875 408.75 395.855469 408.660156 396.347656 C 410.035156 395.839844 411.234375 395.390625 413.0625 394.699219 C 410.890625 393.457031 401.625 388.1875 399.363281 386.894531 C 398.667969 387.144531 396.046875 388.109375 394.921875 388.519531 C 395.875 388.527344 396.785156 388.601562 398.085938 389.34375 C 399.089844 389.917969 399.1875 389.976562 400.332031 390.632812 C 401.171875 391.113281 401.492188 392.074219 400.890625 393.132812 C 399.539062 395.496094 395.210938 403.089844 393.394531 406.292969 C 395.210938 406.351562 397.613281 406.421875 398.910156 406.46875 C 398.699219 406.074219 398.449219 405.398438 399.1875 404.109375 C 400.828125 401.214844 403.433594 396.660156 404.214844 395.269531 C 404.585938 394.625 404.921875 393.871094 404.792969 393.175781 "/>
<path style=" stroke:none;fill-rule:nonzero;fill:rgb(1.713562%,2.252197%,2.304077%);fill-opacity:1;" d="M 349.136719 370.113281 C 348.183594 370.53125 346.613281 371.207031 345.816406 371.535156 C 347.097656 368.980469 348.453125 366.246094 349.003906 365.160156 C 349.386719 364.386719 349.566406 363.628906 349.613281 362.9375 C 350.285156 363.269531 351.019531 363.628906 352.109375 364.179688 C 356.589844 366.40625 353.179688 373.296875 349.136719 370.113281 Z M 354.140625 362.097656 C 351.96875 361.011719 351.113281 360.589844 348.75 359.417969 L 348.746094 359.410156 C 348.742188 359.410156 348.742188 359.410156 348.742188 359.410156 C 347.484375 359.945312 346.257812 360.488281 344.988281 361.027344 C 345.324219 361.289062 346.019531 362.273438 345.460938 363.386719 C 344.242188 365.828125 340.535156 373.285156 338.894531 376.585938 C 340.4375 376.558594 342.785156 376.496094 344.386719 376.445312 C 344.105469 376.019531 343.867188 375.46875 344.535156 374.128906 C 345.132812 372.925781 345.519531 372.132812 345.8125 371.550781 C 356.425781 379.894531 362.394531 366.203125 354.140625 362.097656 "/>
<path style=" stroke:none;fill-rule:nonzero;fill:rgb(1.713562%,2.252197%,2.304077%);fill-opacity:1;" d="M 133 387.320312 C 131.054688 387.039062 129.480469 386.558594 127.070312 385.363281 C 133.714844 380.1875 126.96875 372.132812 120.144531 376.039062 C 118.035156 377.253906 115.109375 378.933594 114.871094 379.070312 C 114.621094 380.410156 114.394531 381.734375 114.128906 383.105469 C 114.539062 382.960938 115.734375 382.933594 116.355469 384.011719 C 117.714844 386.375 122.390625 394.53125 123.691406 396.800781 C 124.605469 395.40625 125.890625 393.367188 126.648438 392.152344 C 126.191406 392.121094 125.492188 392.019531 124.730469 390.683594 C 124.214844 389.777344 123.503906 388.519531 122.917969 387.492188 C 121.628906 385.253906 120.339844 383.007812 119.792969 382.054688 C 119.363281 381.296875 118.835938 380.730469 118.285156 380.304688 C 118.941406 379.925781 119.664062 379.511719 120.75 378.890625 C 125.085938 376.398438 128.449219 382.414062 123.5625 384.015625 C 123.371094 385.046875 122.988281 387.066406 122.917969 387.492188 C 127.484375 390.183594 130.5625 390.988281 132.488281 391.097656 C 136.078125 391.328125 137.761719 387.246094 138.175781 385.488281 C 137.964844 386.191406 136.285156 387.769531 133 387.320312 "/>
<path style=" stroke:none;fill-rule:nonzero;fill:rgb(1.713562%,2.252197%,2.304077%);fill-opacity:1;" d="M 328.4375 365.1875 C 329.914062 363.726562 331.34375 362.328125 332.09375 361.597656 C 332.199219 363.089844 332.320312 364.914062 332.464844 366.769531 C 330.890625 366.15625 329.320312 365.535156 328.4375 365.1875 Z M 340.085938 367.183594 C 339.828125 367.707031 338.738281 368.636719 336.554688 368.269531 C 336.132812 363.28125 335.484375 353.667969 335.484375 353.667969 L 320.195312 368.738281 L 323.496094 370.035156 C 323.496094 370.035156 324.707031 368.835938 326.242188 367.339844 C 327.570312 367.859375 330.871094 369.144531 332.660156 369.851562 C 332.695312 370.171875 332.914062 373.539062 332.980469 374.316406 C 334.539062 374.132812 335.644531 374.003906 337.78125 373.761719 C 336.867188 373.144531 336.769531 371.730469 336.683594 370.601562 C 338.644531 370.132812 339.769531 368.300781 340.085938 367.183594 "/>
<path style=" stroke:none;fill-rule:nonzero;fill:rgb(1.713562%,2.252197%,2.304077%);fill-opacity:1;" d="M 418.574219 411.960938 C 420.140625 410.601562 421.648438 409.296875 422.433594 408.609375 C 422.457031 410.113281 422.457031 411.933594 422.488281 413.792969 C 420.957031 413.070312 419.429688 412.363281 418.574219 411.960938 Z M 430.066406 414.675781 C 429.773438 415.191406 428.632812 416.050781 426.476562 415.539062 C 426.363281 410.539062 426.320312 400.914062 426.320312 400.914062 L 410.132812 415 L 413.339844 416.492188 C 413.339844 416.492188 414.621094 415.386719 416.242188 413.984375 C 417.539062 414.582031 420.746094 416.066406 422.5 416.878906 C 422.507812 417.199219 422.519531 420.574219 422.542969 421.363281 C 424.109375 421.273438 425.222656 421.210938 427.367188 421.097656 C 426.496094 420.429688 426.480469 419.007812 426.46875 417.878906 C 428.449219 417.527344 429.691406 415.777344 430.066406 414.675781 "/>
<path style=" stroke:none;fill-rule:nonzero;fill:rgb(1.713562%,2.252197%,2.304077%);fill-opacity:1;" d="M 116.367188 397.285156 C 115.078125 398.035156 114.523438 398.355469 112.644531 399.453125 C 111.828125 398.058594 110.851562 396.371094 109.847656 394.648438 C 110.515625 394.261719 111.046875 393.945312 111.589844 393.636719 C 112.730469 392.96875 113.457031 392.96875 113.832031 393.296875 C 114.082031 391.855469 114.289062 390.59375 114.609375 388.667969 C 114.125 388.941406 110.449219 391.085938 108.453125 392.261719 C 107.605469 390.816406 107.097656 389.9375 106.867188 389.546875 C 106.429688 388.792969 105.894531 388.230469 105.339844 387.804688 C 107.140625 386.753906 107.464844 386.558594 108.734375 385.828125 C 109.875 385.160156 110.605469 385.160156 110.980469 385.488281 C 111.238281 384.03125 111.441406 382.777344 111.761719 380.847656 C 107.644531 383.261719 105.867188 384.292969 101.929688 386.589844 C 101.835938 387.210938 101.46875 389.261719 101.214844 390.628906 C 101.621094 390.484375 102.816406 390.453125 103.445312 391.53125 C 104.820312 393.890625 108.761719 400.652344 110.621094 403.84375 C 112.609375 402.679688 119.460938 398.691406 121.683594 397.394531 C 120.390625 396.796875 119.007812 396.140625 117.765625 395.511719 C 117.863281 396.40625 116.722656 397.078125 116.367188 397.285156 "/>
<path style=" stroke:none;fill-rule:nonzero;fill:rgb(1.713562%,2.252197%,2.304077%);fill-opacity:1;" d="M 368.304688 388.546875 C 367.015625 387.792969 366.460938 387.46875 364.574219 386.398438 C 365.382812 384.984375 366.347656 383.3125 367.34375 381.574219 C 368.015625 381.964844 368.546875 382.265625 369.085938 382.578125 C 370.226562 383.234375 370.597656 383.867188 370.507812 384.355469 C 371.871094 383.859375 373.070312 383.402344 374.90625 382.722656 C 374.421875 382.445312 370.734375 380.320312 368.722656 379.171875 C 369.554688 377.722656 370.066406 376.851562 370.292969 376.445312 C 370.726562 375.6875 370.949219 374.953125 371.039062 374.257812 C 372.84375 375.292969 373.179688 375.480469 374.445312 376.21875 C 375.589844 376.871094 375.949219 377.511719 375.851562 377.992188 C 377.238281 377.503906 378.4375 377.050781 380.273438 376.367188 C 376.132812 373.988281 374.355469 372.972656 370.394531 370.695312 C 369.8125 370.921875 367.84375 371.617188 366.539062 372.085938 C 366.859375 372.367188 367.488281 373.386719 366.863281 374.46875 C 365.507812 376.835938 361.601562 383.617188 359.753906 386.820312 C 361.757812 387.96875 368.632812 391.917969 370.855469 393.210938 C 370.730469 391.785156 370.613281 390.25 370.53125 388.878906 C 369.8125 389.398438 368.65625 388.742188 368.304688 388.546875 "/>
<path style=" stroke:none;fill-rule:nonzero;fill:rgb(1.713562%,2.252197%,2.304077%);fill-opacity:1;" d="M 88.835938 410.886719 C 87.394531 407.878906 85.199219 403.300781 84.515625 401.867188 C 83.222656 399.179688 80.644531 398.570312 79.828125 398.53125 C 79.476562 399.859375 79.15625 401.148438 78.789062 402.496094 C 79.210938 402.390625 80.40625 402.445312 80.941406 403.574219 C 82.121094 406.03125 85.730469 413.574219 87.328125 416.90625 C 88.417969 415.429688 89.847656 413.503906 90.605469 412.464844 C 90.167969 412.402344 89.480469 412.226562 88.835938 410.886719 "/>
<path style=" stroke:none;fill-rule:nonzero;fill:rgb(1.713562%,2.252197%,2.304077%);fill-opacity:1;" d="M 410.191406 410.257812 C 411.875 407.390625 414.4375 403.003906 415.238281 401.632812 C 416.742188 399.050781 415.796875 396.578125 415.378906 395.871094 C 414.085938 396.332031 412.820312 396.78125 411.511719 397.238281 C 411.835938 397.523438 412.457031 398.546875 411.824219 399.628906 C 410.449219 401.984375 406.238281 409.207031 404.367188 412.394531 C 406.195312 412.46875 408.601562 412.5625 409.890625 412.621094 C 409.6875 412.222656 409.449219 411.546875 410.191406 410.257812 "/>
<path style=" stroke:none;fill-rule:nonzero;fill:rgb(1.713562%,2.252197%,2.304077%);fill-opacity:1;" d="M 363.777344 372.984375 C 365.242188 370.375 364.25 367.917969 363.816406 367.226562 C 362.53125 367.699219 361.28125 368.179688 359.972656 368.644531 C 360.304688 368.929688 360.945312 369.945312 360.324219 371.03125 C 358.996094 373.410156 354.898438 380.699219 353.089844 383.925781 C 354.910156 383.96875 357.316406 384.023438 358.609375 384.046875 C 358.402344 383.664062 358.144531 382.992188 358.878906 381.691406 C 360.5 378.792969 363 374.359375 363.777344 372.984375 "/>
<path style=" stroke:none;fill-rule:nonzero;fill:rgb(1.713562%,2.252197%,2.304077%);fill-opacity:1;" d="M 234.171875 421.636719 C 233.492188 422.421875 232.382812 423.730469 231.824219 424.386719 C 231.824219 421.523438 231.824219 418.476562 231.824219 417.25 C 231.824219 416.386719 231.65625 415.628906 231.390625 414.996094 C 232.140625 414.996094 232.960938 414.996094 234.183594 414.996094 C 239.171875 414.996094 239.203125 422.675781 234.171875 421.636719 Z M 235.070312 412.222656 C 232.640625 412.222656 231.699219 412.222656 229.050781 412.222656 C 229.050781 412.222656 229.046875 412.222656 229.042969 412.214844 C 229.042969 412.222656 229.042969 412.222656 229.042969 412.222656 C 228.152344 413.265625 227.300781 414.292969 226.394531 415.335938 C 226.8125 415.425781 227.871094 415.996094 227.871094 417.246094 C 227.871094 419.976562 227.871094 428.285156 227.871094 431.984375 C 229.242188 431.273438 231.320312 430.171875 232.734375 429.414062 C 232.289062 429.160156 231.824219 428.765625 231.824219 427.269531 C 231.824219 425.941406 231.824219 425.042969 231.824219 424.398438 C 245.042969 427.144531 244.289062 412.222656 235.070312 412.222656 "/>
<path style=" stroke:none;fill-rule:nonzero;fill:rgb(1.713562%,2.252197%,2.304077%);fill-opacity:1;" d="M 259.074219 417.332031 C 259.074219 420.054688 259.074219 429.453125 259.074219 432.070312 C 260.566406 431.316406 262.695312 430.183594 263.953125 429.503906 C 263.578125 429.257812 263.019531 428.8125 263.019531 427.28125 C 263.019531 426.242188 263.03125 424.789062 263.03125 423.601562 C 263.03125 421.015625 263.03125 418.425781 263.03125 417.332031 C 263.03125 416.46875 262.859375 415.714844 262.59375 415.0625 C 263.359375 415.0625 264.1875 415.0625 265.4375 415.0625 C 270.4375 415.0625 270.359375 421.960938 265.328125 420.914062 C 264.648438 421.707031 263.3125 423.28125 263.03125 423.601562 C 265.65625 428.214844 267.933594 430.4375 269.542969 431.496094 C 272.550781 433.476562 276.03125 430.773438 277.269531 429.457031 C 276.738281 429.964844 274.496094 430.496094 271.875 428.46875 C 270.324219 427.269531 269.195312 426.066406 267.695312 423.828125 C 276.023438 422.632812 274.195312 412.292969 266.324219 412.292969 C 263.894531 412.292969 260.527344 412.292969 260.25 412.292969 C 259.363281 413.34375 258.503906 414.371094 257.605469 415.421875 C 258.023438 415.507812 259.074219 416.078125 259.074219 417.332031 "/>
<path style=" stroke:none;fill-rule:nonzero;fill:rgb(1.713562%,2.252197%,2.304077%);fill-opacity:1;" d="M 254.117188 415.820312 C 255.078125 414.6875 255.890625 413.710938 257.136719 412.203125 C 252.363281 412.203125 250.3125 412.207031 245.75 412.207031 C 245.351562 412.691406 244 414.289062 243.09375 415.335938 C 243.519531 415.421875 244.574219 415.988281 244.574219 417.242188 C 244.574219 419.96875 244.570312 427.789062 244.570312 431.484375 C 246.875 431.484375 254.800781 431.484375 257.375 431.484375 C 256.5625 430.320312 255.691406 429.054688 254.933594 427.894531 C 254.5625 428.707031 253.242188 428.714844 252.839844 428.714844 C 251.34375 428.714844 250.703125 428.714844 248.53125 428.714844 C 248.53125 427.097656 248.53125 425.15625 248.53125 423.160156 C 249.300781 423.160156 249.921875 423.160156 250.539062 423.160156 C 251.863281 423.160156 252.496094 423.53125 252.652344 424 C 253.59375 422.886719 254.410156 421.894531 255.65625 420.382812 C 255.101562 420.382812 250.84375 420.382812 248.53125 420.382812 C 248.527344 418.71875 248.527344 417.707031 248.527344 417.25 C 248.527344 416.382812 248.351562 415.625 248.082031 414.976562 C 250.167969 414.976562 250.542969 414.976562 252.011719 414.976562 C 253.328125 414.976562 253.964844 415.34375 254.117188 415.820312 "/>
<path style=" stroke:none;fill-rule:nonzero;fill:rgb(1.713562%,2.252197%,2.304077%);fill-opacity:1;" d="M 281 422.503906 C 283.859375 422.691406 284.527344 424.867188 287.601562 424.867188 C 290.445312 424.867188 292.222656 423.132812 293 421.300781 C 291.441406 422.65625 289.984375 422.835938 288.621094 422.835938 C 286.109375 422.835938 284.71875 420.453125 281.914062 420.453125 C 277.894531 420.453125 276.691406 423.4375 276.4375 424.015625 C 278.660156 422.253906 280.546875 422.480469 281 422.503906 "/>
<path style=" stroke:none;fill-rule:nonzero;fill:rgb(1.713562%,2.252197%,2.304077%);fill-opacity:1;" d="M 211.871094 420.367188 C 207.855469 420.367188 206.652344 423.339844 206.398438 423.925781 C 208.617188 422.164062 210.503906 422.382812 210.957031 422.417969 C 213.824219 422.59375 214.484375 424.777344 217.5625 424.777344 C 220.410156 424.777344 222.1875 423.042969 222.953125 421.210938 C 221.402344 422.5625 219.945312 422.738281 218.585938 422.738281 C 216.074219 422.738281 214.683594 420.367188 211.871094 420.367188 "/>
<path style=" stroke:none;fill-rule:nonzero;fill:rgb(1.713562%,2.252197%,2.304077%);fill-opacity:1;" d="M 151.917969 373.640625 C 151.878906 371.550781 151.839844 369.539062 151.824219 368.488281 C 152.632812 369.144531 154.1875 370.4375 155.832031 371.796875 C 154.289062 372.523438 152.765625 373.238281 151.917969 373.640625 Z M 162.042969 371.777344 C 164.78125 369.671875 163.863281 367.03125 163.089844 365.742188 C 163.355469 366.441406 163.34375 368.277344 159.785156 369.945312 C 155.289062 366.265625 148.394531 360.605469 148.394531 360.605469 L 148.832031 382.046875 L 152.046875 380.542969 C 152.046875 380.542969 152.011719 378.867188 151.976562 376.71875 C 153.273438 376.109375 156.105469 374.78125 158.226562 373.78125 C 159.839844 375.121094 161.226562 376.265625 161.683594 376.617188 C 162.601562 375.363281 163.886719 373.628906 164.5625 372.746094 C 163.765625 372.917969 162.886719 372.421875 162.042969 371.777344 "/>
<path style=" stroke:none;fill-rule:nonzero;fill:rgb(1.713562%,2.252197%,2.304077%);fill-opacity:1;" d="M 169.554688 360.359375 C 166.871094 360.421875 165.203125 360.339844 164.617188 358.839844 C 164.136719 357.628906 164.714844 356.109375 166.847656 355.273438 C 168.949219 354.445312 169.984375 355.210938 170.21875 355.980469 L 171.476562 352.226562 C 170.101562 351.816406 167.96875 351.992188 165.9375 352.792969 C 161.683594 354.464844 160.039062 357.832031 161.25 360.914062 C 162.277344 363.53125 164.882812 364.425781 168.296875 364.296875 C 170.765625 364.214844 172.226562 364.210938 172.859375 365.820312 C 173.429688 367.273438 172.722656 368.816406 170.863281 369.546875 C 169.140625 370.222656 167.71875 369.585938 167.507812 368.722656 L 164.984375 371.667969 C 166.839844 373.035156 169.628906 372.859375 171.6875 372.046875 C 176.246094 370.265625 177.507812 366.8125 176.3125 363.785156 C 175.207031 360.960938 172.957031 360.261719 169.554688 360.359375 "/>
<path style=" stroke:none;fill-rule:nonzero;fill:rgb(1.713562%,2.252197%,2.304077%);fill-opacity:1;" d="M 318.289062 357.523438 C 316.292969 355.742188 315.132812 354.53125 315.722656 353.054688 C 316.210938 351.832031 317.671875 351.113281 319.800781 351.96875 C 321.894531 352.808594 322.121094 354.070312 321.769531 354.796875 L 325.25 352.917969 C 324.542969 351.671875 322.863281 350.347656 320.828125 349.542969 C 316.585938 347.84375 313.078125 349.179688 311.851562 352.246094 C 310.808594 354.867188 312.097656 357.304688 314.679688 359.539062 C 316.535156 361.175781 317.601562 362.167969 316.960938 363.777344 C 316.378906 365.234375 314.8125 365.867188 312.953125 365.128906 C 311.234375 364.441406 310.636719 363 311.070312 362.222656 L 307.222656 362.644531 C 307.625 364.914062 309.785156 366.691406 311.84375 367.519531 C 316.394531 369.335938 319.671875 367.679688 320.871094 364.660156 C 321.996094 361.832031 320.828125 359.796875 318.289062 357.523438 "/>
<path style=" stroke:none;fill-rule:nonzero;fill:rgb(1.713562%,2.252197%,2.304077%);fill-opacity:1;" d="M 393.421875 388.34375 C 394.554688 386.414062 393.855469 384.558594 393.539062 384.03125 C 392.570312 384.371094 391.621094 384.699219 390.636719 385.035156 C 390.882812 385.257812 391.34375 386.027344 390.867188 386.832031 C 390.253906 387.871094 388.152344 391.425781 386.121094 394.867188 C 386.121094 394.867188 384.902344 380.605469 383.339844 378.007812 C 382.230469 378.382812 381.023438 378.808594 379.476562 379.355469 C 379.769531 379.644531 380.398438 380.648438 379.773438 381.699219 C 378.742188 383.449219 373.652344 392.089844 372.246094 394.464844 C 373.613281 394.53125 375.417969 394.609375 376.382812 394.648438 C 376.230469 394.355469 376.050781 393.847656 376.613281 392.886719 C 377.328125 391.683594 379.488281 388.027344 380.96875 385.523438 C 381.570312 391.105469 382.722656 400.648438 382.722656 400.648438 C 382.722656 400.648438 385.882812 400.789062 386.855469 400.835938 C 386.699219 400.542969 386.523438 400.039062 387.085938 399.078125 C 388.351562 396.933594 392.816406 389.363281 393.421875 388.34375 "/>
<path style=" stroke:none;fill-rule:nonzero;fill:rgb(1.713562%,2.252197%,2.304077%);fill-opacity:1;" d="M 446.074219 410.464844 C 446.820312 410.820312 447.027344 411.890625 446.339844 412.628906 C 444.871094 414.222656 443.152344 415.847656 440.4375 418.785156 C 439.371094 414.734375 437.855469 408.5625 437.414062 406.859375 C 437.175781 405.929688 436.621094 405.03125 436.070312 404.503906 C 435.226562 405.085938 433.570312 406.242188 432.707031 406.832031 C 433.113281 407.023438 433.921875 407.894531 433.625 408.992188 C 433.085938 410.96875 430.460938 420.648438 429.738281 423.324219 C 431.074219 423.023438 432.824219 422.625 433.773438 422.40625 C 433.550781 422.164062 433.238281 421.722656 433.53125 420.640625 C 433.808594 419.605469 434.59375 416.742188 435.183594 414.527344 L 438.117188 425.601562 L 445.710938 417.464844 C 444.820312 420.742188 443.726562 424.773438 443.136719 426.949219 C 444.917969 426.550781 447.261719 426.023438 448.519531 425.734375 C 448.21875 425.398438 447.8125 424.820312 448.203125 423.378906 C 449.078125 420.171875 450.40625 415.265625 450.820312 413.730469 C 451.597656 410.855469 450.042969 408.703125 449.449219 408.136719 C 448.320312 408.910156 447.222656 409.691406 446.074219 410.464844 "/>
<path style=" stroke:none;fill-rule:nonzero;fill:rgb(1.713562%,2.252197%,2.304077%);fill-opacity:1;" d="M 67.671875 319.566406 C 63.960938 325.660156 56.214844 331.25 45.199219 338.636719 C 42.042969 344.941406 31.21875 352.390625 15.070312 358.949219 C 23.398438 349.109375 25.667969 337.25 24.746094 330.046875 C 15.65625 350.75 7.070312 360.859375 0 367.921875 C 21.96875 370.445312 71.714844 332.695312 71.714844 332.695312 C 71.714844 332.695312 73.230469 324.117188 67.671875 319.566406 "/>
<path style=" stroke:none;fill-rule:nonzero;fill:rgb(1.713562%,2.252197%,2.304077%);fill-opacity:1;" d="M 20.707031 315.015625 C 46.960938 290.253906 73.230469 288.742188 75.25 252.863281 C 63.128906 281.160156 32.828125 291.269531 20.707031 315.015625 "/>
<path style=" stroke:none;fill-rule:nonzero;fill:rgb(1.713562%,2.252197%,2.304077%);fill-opacity:1;" d="M 226.675781 277.6875 C 225.242188 278.605469 222.308594 279.875 221.429688 280.960938 L 221.253906 241.257812 C 217.867188 241.246094 216.160156 241.25 213.175781 241.257812 L 194.929688 241.257812 C 194.9375 241.269531 194.941406 241.277344 194.949219 241.289062 C 193.824219 241.28125 192.695312 241.273438 191.539062 241.257812 C 191.539062 241.257812 188.589844 241.761719 188.730469 238.394531 C 188.808594 236.519531 190.382812 235.355469 191.929688 235.570312 C 192.519531 235.554688 224.308594 235.542969 226.71875 235.5625 Z M 192.164062 231.335938 C 189.644531 230.808594 185.0625 233.046875 185.085938 237.003906 C 185.085938 240.207031 185.085938 242.980469 185.085938 247.675781 C 185.875 248.121094 188.867188 248.628906 191.625 248.714844 C 191.675781 249.441406 189.539062 253.988281 185.085938 253.738281 C 185.085938 260.457031 185.085938 264.617188 185.085938 270.429688 C 185.65625 270.914062 188.628906 271.695312 192.121094 271.8125 C 192.179688 272.542969 189.414062 277.578125 185.085938 276.761719 C 185.085938 279.289062 185.085938 279.890625 185.085938 281.359375 C 185.085938 281.648438 185.105469 281.910156 185.125 282.152344 C 185.144531 282.320312 185.171875 282.46875 185.195312 282.632812 C 185.195312 282.640625 185.195312 282.65625 185.195312 282.671875 C 185.832031 286.601562 189.265625 287.722656 191.386719 286.460938 C 198.210938 286.78125 220.878906 286.441406 221.285156 286.449219 C 222.550781 284.242188 227.425781 282.105469 229.273438 281.246094 C 229.921875 281.230469 230.28125 281.253906 230.777344 281.253906 C 230.777344 280.59375 230.789062 231.34375 230.789062 231.34375 C 230.789062 231.34375 197.300781 231.316406 192.164062 231.335938 "/>
<path style=" stroke:none;fill-rule:nonzero;fill:rgb(1.713562%,2.252197%,2.304077%);fill-opacity:1;" d="M 260.171875 349.820312 C 262.929688 342.988281 269.921875 339.136719 279.992188 338.320312 C 275.261719 332.949219 267.625 335.53125 267.625 335.53125 C 267.625 335.53125 273.234375 330.671875 273.617188 324.550781 C 267.625 323.484375 261.75 328.597656 261.75 328.597656 C 261.75 328.597656 264.847656 322.21875 262.890625 316.160156 C 256.195312 317.539062 253.730469 324.996094 253.730469 324.996094 C 253.730469 324.996094 254.550781 317.039062 250.011719 313.253906 C 250.007812 313.261719 250.003906 313.273438 250 313.28125 C 250 313.273438 249.996094 313.261719 249.992188 313.253906 C 245.449219 317.039062 246.269531 324.996094 246.269531 324.996094 C 246.269531 324.996094 243.804688 317.546875 237.117188 316.160156 C 235.152344 322.21875 238.253906 328.597656 238.253906 328.597656 C 238.253906 328.597656 232.378906 323.484375 226.386719 324.550781 C 226.765625 330.679688 232.378906 335.539062 232.378906 335.539062 C 232.378906 335.539062 224.742188 332.949219 220.003906 338.320312 C 230.078125 339.136719 237.074219 342.988281 239.839844 349.820312 L 260.171875 349.820312 "/>
<path style=" stroke:none;fill-rule:nonzero;fill:rgb(1.713562%,2.252197%,2.304077%);fill-opacity:1;" d="M 259.539062 364.546875 C 260.503906 371.367188 261.890625 374.640625 264.6875 379.882812 C 265.15625 381.027344 263.921875 383.394531 261.464844 381.972656 C 261.464844 385.0625 257.679688 387.085938 254.742188 384.777344 C 254.046875 388.757812 250.011719 388.109375 250.011719 388.109375 L 250.011719 388.089844 C 250.003906 388.097656 249.992188 388.109375 249.992188 388.109375 C 249.992188 388.109375 245.953125 388.757812 245.261719 384.777344 C 242.324219 387.085938 238.535156 385.0625 238.535156 381.972656 C 236.078125 383.394531 234.84375 381.027344 235.320312 379.882812 C 238.113281 374.640625 239.5 371.367188 240.464844 364.546875 L 259.539062 364.546875 "/>
<path style=" stroke:none;fill-rule:nonzero;fill:rgb(1.713562%,2.252197%,2.304077%);fill-opacity:1;" d="M 381.421875 85.347656 C 377.546875 81.632812 373.570312 77.113281 371.394531 72.757812 C 367.707031 65.3125 370.164062 58.792969 381.78125 60.464844 C 385.867188 66.890625 387.628906 78.058594 381.421875 85.347656 Z M 354.863281 57.441406 C 359.152344 52.964844 367.539062 50.378906 377.925781 56.398438 C 367.351562 56.179688 364.453125 60.71875 364.511719 64.757812 C 364.640625 73.148438 370.507812 80.464844 378.304688 87.796875 C 376.515625 89.183594 375.0625 89.707031 373.789062 90.210938 C 376.863281 92.265625 379.945312 92.839844 383.019531 92.253906 C 389.855469 98.691406 397.371094 105.230469 400.25 113.34375 C 399.308594 106.742188 395.257812 97.863281 387.664062 90.882812 C 390.734375 89.515625 393.109375 87.53125 393.941406 86.195312 C 398.734375 95.917969 416.914062 115.867188 443.6875 110.3125 C 413.128906 100.96875 409.089844 76.351562 394.695312 60.433594 C 415.65625 66.5 430.179688 92.574219 449.996094 93.203125 C 450.753906 87.144531 466.476562 88.277344 474.613281 84.492188 C 482.769531 80.707031 489.292969 60.597656 463.84375 53.761719 C 466.980469 59.523438 468.714844 75.023438 460.792969 78.429688 C 468.558594 78.050781 472.15625 68.582031 470.449219 61.199219 C 485.039062 70.664062 471.3125 87.667969 457.957031 79.570312 C 440.152344 68.769531 433.710938 63.46875 415.402344 57.40625 C 422.980469 54.761719 440.652344 53.371094 449.996094 59.9375 C 445.835938 48.191406 439.644531 46.042969 433.332031 45.289062 C 437.121094 41.496094 441.289062 20.53125 418.175781 14.09375 C 428.027344 18.894531 428.40625 42.894531 406.0625 43.265625 C 394.566406 43.464844 377.226562 42.425781 363.828125 45.101562 C 346.820312 48.488281 342.234375 63.089844 350 74.074219 C 348.683594 68.546875 350.574219 61.921875 354.863281 57.441406 "/>
<path style=" stroke:none;fill-rule:nonzero;fill:rgb(1.713562%,2.252197%,2.304077%);fill-opacity:1;" d="M 118.21875 60.464844 C 129.824219 58.792969 132.289062 65.3125 128.597656 72.757812 C 126.425781 77.113281 122.449219 81.632812 118.570312 85.347656 C 112.371094 78.058594 114.132812 66.890625 118.21875 60.464844 Z M 25.378906 84.492188 C 33.523438 88.277344 49.238281 87.148438 50 93.203125 C 69.816406 92.574219 84.34375 66.5 105.300781 60.433594 C 90.902344 76.351562 86.863281 100.96875 56.3125 110.3125 C 83.082031 115.867188 101.257812 95.917969 106.054688 86.199219 C 106.886719 87.53125 109.257812 89.515625 112.335938 90.882812 C 104.734375 97.863281 100.6875 106.742188 99.746094 113.34375 C 102.625 105.230469 110.140625 98.695312 116.976562 92.253906 C 120.046875 92.84375 123.140625 92.265625 126.210938 90.210938 C 124.355469 89.476562 123.039062 88.851562 121.695312 87.796875 C 129.226562 80.5625 135.675781 73.292969 135.421875 64.253906 C 135.296875 59.785156 131.433594 56.152344 122.066406 56.398438 C 141.980469 45.207031 152.828125 62.992188 149.996094 74.074219 C 157.765625 63.089844 153.175781 48.488281 136.171875 45.101562 C 122.769531 42.425781 105.429688 43.464844 93.933594 43.265625 C 71.585938 42.894531 71.96875 18.894531 81.816406 14.09375 C 58.710938 20.539062 62.875 41.503906 66.664062 45.289062 C 60.351562 46.042969 54.160156 48.191406 49.996094 59.9375 C 59.339844 53.375 77.015625 54.761719 84.589844 57.40625 C 66.285156 63.46875 59.847656 68.773438 42.042969 79.570312 C 28.683594 87.667969 14.960938 70.664062 29.539062 61.199219 C 27.839844 68.582031 31.4375 78.050781 39.203125 78.429688 C 31.25 75.210938 33.109375 59.082031 36.136719 53.785156 C 10.78125 60.597656 17.230469 80.707031 25.378906 84.492188 "/>
<path style=" stroke:none;fill-rule:nonzero;fill:rgb(1.713562%,2.252197%,2.304077%);fill-opacity:1;" d="M 241.945312 11.660156 C 241.945312 11.660156 240.871094 9.578125 239.703125 9.578125 C 238.535156 9.578125 237.625 11.691406 237.625 11.691406 C 237.625 11.691406 239.253906 13.539062 239.703125 14.789062 C 240.679688 12.859375 241.945312 11.660156 241.945312 11.660156 "/>
<path style=" stroke:none;fill-rule:nonzero;fill:rgb(1.713562%,2.252197%,2.304077%);fill-opacity:1;" d="M 233.640625 8.09375 C 233.675781 8.382812 234.65625 8.558594 234.71875 8.785156 C 235.527344 11.894531 237.703125 9.964844 238.0625 8.726562 C 237.023438 7.570312 234.972656 6.640625 233.640625 8.09375 "/>
<path style=" stroke:none;fill-rule:nonzero;fill:rgb(1.713562%,2.252197%,2.304077%);fill-opacity:1;" d="M 244.515625 8.882812 C 244.578125 8.648438 245.554688 8.480469 245.59375 8.1875 C 244.269531 6.730469 242.417969 7.449219 241.167969 8.816406 C 241.519531 10.058594 243.707031 11.992188 244.515625 8.882812 "/>
<path style=" stroke:none;fill-rule:nonzero;fill:rgb(1.713562%,2.252197%,2.304077%);fill-opacity:1;" d="M 475.25 330.046875 C 474.769531 337.0625 475.835938 347.964844 484.917969 358.941406 C 478.390625 356.195312 460.011719 348.414062 454.796875 338.636719 C 443.78125 331.242188 436.03125 325.660156 432.324219 319.566406 C 426.773438 324.113281 428.285156 332.695312 428.285156 332.695312 C 428.285156 332.695312 478.03125 370.445312 500 367.921875 C 492.929688 360.859375 484.34375 350.75 475.25 330.046875 "/>
<path style=" stroke:none;fill-rule:nonzero;fill:rgb(1.713562%,2.252197%,2.304077%);fill-opacity:1;" d="M 220.199219 156.390625 C 235.980469 163.085938 249.992188 173.3125 249.992188 173.3125 L 250 173.304688 L 250.011719 173.3125 C 250.011719 173.3125 264.023438 163.085938 279.796875 156.390625 C 265.917969 155.894531 250.011719 167.347656 250.011719 167.347656 L 250 167.359375 L 249.992188 167.347656 C 249.992188 167.347656 234.085938 155.894531 220.199219 156.390625 "/>
<path style=" stroke:none;fill-rule:nonzero;fill:rgb(1.713562%,2.252197%,2.304077%);fill-opacity:1;" d="M 479.289062 315.015625 C 467.167969 291.265625 436.871094 281.160156 424.746094 252.863281 C 426.773438 288.742188 453.03125 290.253906 479.289062 315.015625 "/>
<path style=" stroke:none;fill-rule:nonzero;fill:rgb(1.713562%,2.252197%,2.304077%);fill-opacity:1;" d="M 262.835938 357.3125 C 262.835938 359.191406 261.308594 360.71875 259.429688 360.71875 L 240.882812 360.71875 C 239.003906 360.71875 237.476562 359.191406 237.476562 357.3125 C 237.476562 355.433594 239.003906 353.90625 240.882812 353.90625 L 259.429688 353.90625 C 261.308594 353.90625 262.835938 355.433594 262.835938 357.3125 "/>
<path style=" stroke:none;fill-rule:nonzero;fill:rgb(1.713562%,2.252197%,2.304077%);fill-opacity:1;" d="M 312.589844 277.78125 C 311.15625 278.699219 308.222656 279.96875 307.34375 281.054688 L 307.164062 241.355469 C 303.78125 241.339844 302.074219 241.34375 299.089844 241.355469 L 280.839844 241.355469 C 280.851562 241.363281 280.855469 241.375 280.859375 241.382812 C 279.738281 241.375 278.609375 241.367188 277.453125 241.355469 C 277.453125 241.355469 274.503906 241.855469 274.644531 238.484375 C 274.722656 236.613281 276.296875 235.445312 277.839844 235.664062 C 278.429688 235.648438 310.222656 235.636719 312.632812 235.65625 Z M 278.074219 231.429688 C 275.5625 230.898438 270.976562 233.140625 271 237.097656 C 271 240.300781 271 243.074219 271 247.769531 C 271.785156 248.214844 274.777344 248.71875 277.539062 248.808594 C 277.589844 249.535156 275.453125 254.082031 271 253.832031 C 271 260.550781 271 264.714844 271 270.523438 C 271.566406 271.007812 274.539062 271.789062 278.035156 271.902344 C 278.089844 272.636719 275.324219 277.671875 271 276.859375 C 271 279.382812 271 279.984375 271 281.453125 C 271 281.738281 271.015625 282.003906 271.039062 282.246094 C 271.058594 282.414062 271.085938 282.5625 271.105469 282.722656 C 271.105469 282.734375 271.109375 282.75 271.109375 282.765625 C 271.746094 286.695312 275.179688 287.816406 277.300781 286.550781 C 284.121094 286.875 306.792969 286.535156 307.199219 286.542969 C 308.464844 284.339844 313.339844 282.195312 315.1875 281.339844 C 315.832031 281.324219 316.195312 281.347656 316.691406 281.347656 C 316.691406 280.6875 316.703125 231.4375 316.703125 231.4375 C 316.703125 231.4375 283.214844 231.40625 278.074219 231.429688 "/>
<g clip-path="url(#clip1)" clip-rule="nonzero">
<path style=" stroke:none;fill-rule:nonzero;fill:rgb(1.713562%,2.252197%,2.304077%);fill-opacity:1;" d="M 408.589844 332.695312 C 412.121094 339.269531 413.25 351.007812 410.984375 357.824219 C 409.691406 361.6875 406.246094 367.238281 395.453125 364.386719 C 386.609375 362.0625 378.03125 357.070312 374.746094 355.304688 C 370.980469 351.089844 366.757812 353.925781 364.992188 355.472656 C 345.925781 345.332031 328.550781 337.914062 317.011719 339.109375 C 323.566406 328.046875 329.363281 315.253906 330.980469 302.796875 C 331.089844 302.894531 331.195312 302.976562 331.3125 303.015625 C 336.117188 304.777344 343.941406 307.308594 344.699219 311.101562 C 370.957031 312.871094 384.199219 321.058594 387.222656 320.03125 C 390.753906 318.828125 391.765625 314.796875 393.277344 314.289062 C 394.839844 315.710938 395.976562 316.65625 396.730469 317.335938 C 400.757812 320.9375 406.183594 328.238281 408.589844 332.695312 Z M 438.859375 399.960938 C 444.566406 401.6875 450.976562 403.332031 457.054688 403.757812 C 458.519531 409.371094 458.257812 415.765625 455.515625 421.515625 C 455.050781 422.4375 454.566406 423.300781 454.078125 424.105469 C 453.941406 424.300781 453.835938 424.5 453.703125 424.691406 C 453.683594 424.726562 453.664062 424.753906 453.644531 424.789062 C 452.777344 426.050781 451.753906 427.277344 450.597656 428.425781 C 447.207031 431.46875 442.785156 432.585938 436.1875 431.230469 C 418.480469 427.574219 397.917969 415.628906 376.140625 402.980469 C 347.277344 386.21875 317.523438 368.933594 293.0625 371.242188 C 296.054688 367.9375 298.988281 364.492188 301.816406 360.953125 C 305.273438 356.609375 309.46875 351.007812 313.597656 344.605469 C 324.214844 339.785156 348.4375 351.382812 372.441406 364.746094 C 372.300781 365.464844 372.390625 366.558594 373.109375 368.238281 C 374.621094 366.15625 378.222656 368.613281 381.253906 370.328125 C 381.625 371.652344 381.75 373.230469 384.84375 375.0625 C 385.527344 373.417969 386.523438 373.585938 388.8125 374.078125 C 390.015625 374.765625 391.207031 375.460938 392.390625 376.144531 C 410.554688 386.65625 427.714844 396.589844 438.859375 399.960938 Z M 318.679688 400.617188 C 312.300781 409.753906 306.070312 418.398438 300.453125 431.804688 C 293.957031 435.636719 269.085938 438.375 250 438.472656 C 230.914062 438.375 206.035156 435.636719 199.546875 431.804688 C 193.925781 418.398438 187.699219 409.753906 181.316406 400.625 C 200.105469 405.40625 227.589844 406.359375 249.992188 406.597656 L 250 406.554688 L 250.011719 406.597656 C 272.40625 406.359375 299.890625 405.40625 318.679688 400.617188 Z M 123.851562 402.980469 C 102.085938 415.628906 81.519531 427.574219 63.808594 431.230469 C 57.21875 432.59375 52.792969 431.476562 49.410156 428.425781 C 48.253906 427.28125 47.238281 426.066406 46.371094 424.808594 C 46.34375 424.765625 46.308594 424.714844 46.28125 424.660156 C 46.160156 424.496094 46.054688 424.316406 45.941406 424.144531 C 45.429688 423.316406 44.949219 422.4375 44.472656 421.503906 C 41.738281 415.753906 41.484375 409.363281 42.949219 403.757812 C 49.023438 403.332031 55.429688 401.6875 61.144531 399.960938 C 72.285156 396.589844 89.441406 386.65625 107.605469 376.144531 C 108.785156 375.460938 109.980469 374.769531 111.179688 374.078125 C 113.472656 373.585938 114.472656 373.417969 115.148438 375.0625 C 118.242188 373.230469 118.371094 371.652344 118.746094 370.328125 C 121.777344 368.613281 125.378906 366.160156 126.890625 368.238281 C 127.605469 366.558594 127.691406 365.464844 127.558594 364.746094 C 151.554688 351.382812 175.78125 339.785156 186.398438 344.617188 C 190.527344 351.011719 194.722656 356.617188 198.179688 360.953125 C 201.003906 364.492188 203.941406 367.9375 206.933594 371.242188 C 182.476562 368.933594 152.714844 386.21875 123.851562 402.980469 Z M 89.011719 357.832031 C 86.738281 351.007812 87.875 339.269531 91.410156 332.695312 C 93.808594 328.238281 99.234375 320.9375 103.265625 317.335938 C 104.035156 316.640625 105.234375 315.691406 106.851562 314.21875 C 108.894531 315.867188 108.894531 318.328125 112.496094 319.941406 C 115.410156 321.25 129.042969 312.871094 155.296875 311.101562 C 156.054688 307.308594 163.882812 304.777344 168.6875 303.015625 C 168.800781 302.976562 168.90625 302.894531 169.015625 302.796875 C 170.632812 315.257812 176.425781 328.046875 182.984375 339.109375 C 171.441406 337.914062 154.074219 345.332031 135.003906 355.480469 C 133.238281 353.925781 129.019531 351.089844 125.25 355.304688 C 121.96875 357.070312 113.390625 362.0625 104.542969 364.386719 C 93.746094 367.238281 90.300781 361.6875 89.011719 357.832031 Z M 130.800781 290.761719 C 132.824219 288.238281 137.875 282.171875 141.914062 273.582031 C 145.957031 264.988281 151.511719 253.875 153.023438 242.257812 C 168.761719 213.074219 134.632812 192.203125 109.054688 177.289062 C 151.816406 192.25 174.148438 179.9375 185.4375 173.1875 C 183.566406 180.578125 173.230469 193.648438 153.78125 195.164062 C 185.320312 206.34375 207.328125 171.484375 212.371094 165.179688 C 215.90625 177.035156 216.914062 186.726562 216.1875 190.125 C 204.171875 191.542969 198.023438 200.058594 196.230469 202.710938 C 194.523438 202.707031 175.851562 202.695312 171.097656 202.71875 L 168.460938 202.734375 L 168.460938 205.371094 C 168.460938 213.3125 168.453125 220.523438 168.449219 227.535156 C 168.4375 237.671875 168.433594 247.511719 168.4375 258.664062 C 167.453125 258.972656 166.472656 259.816406 165.90625 260.441406 C 163.375 263.273438 163.863281 270.804688 161.105469 274.46875 C 158.832031 277.503906 162.625 286.085938 158.332031 294.429688 C 155.40625 300.105469 153.65625 301.882812 140.523438 302.894531 C 127.394531 303.902344 128.78125 293.289062 130.800781 290.761719 Z M 91.914062 166.371094 C 84.273438 159.753906 80.941406 152.980469 81.136719 147.355469 C 88.117188 148.234375 95.171875 150.167969 101.789062 153.378906 C 102.132812 154.203125 112.207031 174.007812 130.554688 178.488281 C 120.492188 177.21875 107.15625 171.972656 93.382812 167.550781 C 92.84375 167.152344 92.359375 166.75 91.914062 166.371094 Z M 83.835938 140.109375 C 87.246094 135.988281 92.4375 134.414062 98.488281 134.113281 C 98.222656 138.933594 98.773438 143.90625 100.167969 148.714844 C 94.277344 145.9375 87.863281 144.179688 82.027344 143.289062 C 82.484375 142.050781 82.976562 141.152344 83.835938 140.109375 Z M 210.144531 118.890625 C 209.441406 116.136719 210.917969 112.503906 214.160156 110.507812 C 219.53125 112.960938 222.027344 117.96875 225.355469 120.207031 C 222.8125 120.726562 220.09375 121.273438 217.011719 121.839844 C 213.25 122.527344 210.816406 121.480469 210.144531 118.890625 Z M 237.199219 105.234375 C 242.976562 108.160156 244.773438 113.734375 247.570312 116.980469 C 243.476562 117.179688 239.964844 117.570312 236.625 118.082031 C 231.941406 115.324219 230.433594 109.867188 224.355469 107.371094 C 228.394531 106.484375 232.816406 105.757812 237.199219 105.234375 Z M 234.714844 92.539062 C 234.777344 89.492188 239.640625 87.175781 239.695312 87.148438 C 239.695312 87.144531 239.703125 87.128906 239.703125 87.128906 C 239.703125 87.128906 244.628906 89.453125 244.691406 92.523438 C 244.75 95.511719 244.785156 98.105469 244.796875 99.996094 C 241.507812 100.179688 238.046875 100.511719 234.601562 100.96875 C 234.609375 99.046875 234.644531 96.0625 234.714844 92.539062 Z M 245.617188 71.554688 L 243.136719 71.554688 L 242.324219 70.191406 C 242.324219 70.191406 241.28125 64.734375 242.800781 63.34375 C 244.191406 62.335938 247.21875 60.5625 247.21875 60.5625 C 247.21875 60.5625 247.792969 66.1875 245.617188 71.554688 Z M 231.8125 16.871094 C 231.5625 12.957031 231.246094 7.523438 234.277344 4.300781 C 235.726562 2.980469 237.746094 3.105469 239.703125 3.066406 C 241.820312 3.03125 243.660156 3.589844 244.566406 4.492188 C 247.21875 7.144531 246.589844 14.480469 246.867188 15.828125 C 247.21875 17.503906 248.191406 18.105469 248.761719 18.671875 C 263.089844 27.925781 268.128906 53.292969 268.128906 53.292969 C 268.128906 53.292969 241.914062 38.851562 244.4375 23.191406 C 238.253906 28.746094 241.964844 38.621094 245.699219 42.511719 C 249.4375 46.402344 255.808594 52.394531 255.808594 52.394531 C 255.808594 52.394531 255.304688 56.179688 249.753906 58.828125 C 249.660156 58.472656 249.03125 56.734375 248.632812 55.160156 C 246.09375 57.4375 243.050781 58.546875 243.050781 58.546875 C 243.050781 58.546875 242.550781 56.914062 241.96875 52.765625 L 241.933594 52.773438 L 240.675781 44.449219 C 227.003906 33.902344 230.5625 21.5625 231.8125 16.871094 Z M 260.300781 87.128906 C 260.300781 87.128906 260.308594 87.144531 260.308594 87.148438 C 260.359375 87.175781 265.222656 89.488281 265.289062 92.539062 C 265.359375 96.0625 265.390625 99.046875 265.402344 100.96875 C 261.953125 100.511719 258.496094 100.179688 255.207031 99.996094 C 255.222656 98.105469 255.25 95.507812 255.3125 92.523438 C 255.375 89.453125 260.300781 87.128906 260.300781 87.128906 Z M 251.386719 71.554688 C 250.851562 71.191406 250.449219 70.699219 250.511719 70.0625 C 250.945312 65.679688 251.257812 63.089844 251.257812 63.089844 C 251.257812 63.089844 253.019531 61.765625 254.726562 60.433594 C 256.015625 62.300781 257.992188 66.613281 260.074219 71.554688 Z M 271.820312 119.535156 C 269.828125 119.027344 267.726562 118.65625 265.535156 118.433594 C 263.660156 118.109375 261.761719 117.824219 259.769531 117.585938 C 255.355469 113.914062 254.976562 107.863281 248.597656 104.398438 C 249.097656 104.386719 249.589844 104.382812 250.074219 104.382812 C 254.089844 104.394531 258.652344 104.730469 263.265625 105.289062 C 268.675781 109.609375 269.070312 116.070312 271.820312 119.535156 Z M 279.089844 134.050781 C 279.421875 136.945312 280.90625 144.707031 272.214844 146.003906 C 271.230469 145.429688 270.167969 144.863281 268.949219 144.277344 C 257.964844 145.222656 250.011719 150.117188 250.011719 150.117188 L 250 150.164062 L 249.992188 150.121094 C 249.992188 150.121094 242.039062 145.222656 231.054688 144.277344 C 229.835938 144.863281 228.773438 145.429688 227.792969 146.003906 C 222.96875 145.625 219.1875 141.714844 220.910156 134.050781 C 225.058594 128.289062 229.976562 124.441406 237.261719 122.582031 C 240.425781 122.097656 243.71875 121.726562 247.535156 121.527344 C 247.726562 124.671875 248.484375 135.941406 249.953125 146.789062 C 249.96875 146.921875 249.980469 147.050781 249.992188 147.179688 C 249.996094 147.160156 250 147.144531 250 147.128906 C 250.003906 147.144531 250.007812 147.160156 250.011719 147.179688 C 250.019531 147.050781 250.03125 146.921875 250.050781 146.796875 C 251.519531 135.941406 252.277344 124.664062 252.472656 121.527344 C 256.285156 121.722656 259.574219 122.097656 262.738281 122.582031 C 270.027344 124.441406 274.9375 128.289062 279.089844 134.050781 Z M 276.945312 107.664062 C 279.476562 108.242188 281.839844 108.882812 283.878906 109.5625 C 288.480469 111.097656 290.6875 115.628906 289.847656 118.890625 C 289.21875 121.328125 287 122.378906 283.609375 121.917969 C 279.515625 117.8125 280.15625 111.988281 275.546875 107.347656 C 275.808594 107.40625 276.945312 107.664062 276.945312 107.664062 Z M 249.367188 238.023438 L 249.253906 238.085938 L 249.105469 237.988281 C 249.191406 238.003906 249.28125 238.019531 249.367188 238.023438 Z M 220.75 195.292969 C 227.820312 197.585938 232.6875 202.769531 237.007812 207.386719 C 240.851562 211.492188 244.496094 215.378906 249.144531 216.59375 C 249.347656 216.667969 249.535156 216.71875 249.703125 216.734375 C 249.785156 216.75 249.886719 216.757812 250.007812 216.757812 C 250.121094 216.757812 250.210938 216.75 250.292969 216.742188 C 250.464844 216.71875 250.660156 216.667969 250.875 216.59375 C 255.515625 215.375 259.152344 211.492188 262.992188 207.386719 C 267.25 202.847656 272.015625 197.753906 278.898438 195.410156 C 280.230469 194.902344 281.066406 194.902344 281.066406 194.902344 C 287.59375 195.429688 292.046875 198.246094 294.753906 200.691406 C 289.765625 201.003906 283.566406 203.078125 279.015625 209.214844 C 276.578125 207.710938 273.828125 207.316406 271.054688 208.109375 C 267.09375 209.265625 263.761719 212.8125 262.765625 216.953125 C 262.066406 219.898438 262.613281 222.808594 264.285156 225.21875 C 259.007812 229.929688 253.453125 233.179688 250 233.523438 C 246.546875 233.171875 241 229.929688 235.71875 225.21875 C 237.382812 222.808594 237.9375 219.898438 237.238281 216.953125 C 236.246094 212.8125 232.914062 209.265625 228.949219 208.117188 C 226.175781 207.316406 223.421875 207.710938 220.984375 209.21875 C 216.433594 203.078125 210.222656 201.003906 205.242188 200.695312 C 207.949219 198.246094 212.40625 195.4375 218.933594 194.902344 C 218.933594 194.902344 219.382812 194.851562 220.75 195.292969 Z M 223.648438 150.363281 C 226.117188 151.058594 228.148438 151.636719 228.941406 151.859375 C 241.242188 155.605469 249.992188 160.054688 249.992188 160.054688 L 250 160.007812 L 250.011719 160.054688 C 250.011719 160.054688 258.75 155.605469 271.054688 151.859375 C 271.851562 151.636719 273.882812 151.058594 276.359375 150.363281 C 277.039062 150.179688 277.714844 150.003906 278.414062 149.828125 C 278.394531 149.816406 278.371094 149.804688 278.347656 149.796875 C 278.601562 149.722656 278.855469 149.652344 279.105469 149.582031 C 280.148438 149.28125 283.246094 146.441406 284.125 142.433594 C 283.601562 152.355469 281.894531 161.941406 280.488281 169.84375 C 278.863281 178.988281 277.636719 186.003906 278.441406 190.824219 C 275.570312 191.683594 273.042969 192.890625 270.78125 194.34375 C 265.484375 197.976562 261.542969 202.289062 259.679688 204.28125 C 256.246094 207.949219 253.261719 211.125 250 212.121094 C 246.738281 211.125 243.753906 207.949219 240.320312 204.28125 C 238.457031 202.289062 228.269531 192.175781 221.558594 190.824219 C 222.359375 186.003906 221.132812 178.988281 219.507812 169.84375 C 218.105469 161.941406 216.398438 152.355469 215.871094 142.433594 C 216.746094 146.441406 219.851562 149.28125 220.894531 149.582031 C 221.144531 149.65625 221.398438 149.722656 221.648438 149.796875 C 221.628906 149.804688 221.605469 149.820312 221.582031 149.832031 C 222.28125 150.003906 222.96875 150.183594 223.648438 150.363281 Z M 173.773438 274.039062 C 173.726562 256 173.742188 242.066406 173.753906 227.542969 C 173.757812 221.316406 173.761719 214.929688 173.761719 208.011719 C 184.613281 207.988281 210.523438 208.03125 213.359375 208.035156 C 215.195312 209.3125 216.976562 211.105469 218.492188 213.675781 L 219.964844 216.171875 L 222.035156 214.140625 C 223.738281 212.488281 225.691406 211.910156 227.683594 212.488281 C 230.097656 213.179688 232.199219 215.457031 232.8125 218.007812 C 233.175781 219.523438 233.152344 221.742188 231.023438 223.738281 L 229.265625 225.375 L 231 227.039062 C 233.886719 229.8125 237.515625 232.730469 241.167969 234.882812 L 241.167969 285.121094 L 182.730469 327.542969 C 177.285156 316.554688 173.898438 305.765625 173.855469 296.308594 C 173.835938 292.324219 173.824219 288.535156 173.808594 284.914062 C 175.050781 280.847656 176.738281 277.378906 179.289062 276.238281 C 176.890625 274.476562 174.914062 274.175781 173.773438 274.039062 Z M 243.75 402.300781 C 232.148438 402.066406 218.816406 401.472656 206.359375 400.152344 C 210.023438 396.433594 216.789062 388.765625 217.539062 382.167969 C 226.652344 390.886719 235.796875 397.945312 243.75 402.300781 Z M 250.011719 402.398438 L 250 402.449219 L 249.992188 402.398438 L 250 402.375 Z M 282.453125 382.167969 C 283.210938 388.765625 289.972656 396.433594 293.636719 400.152344 C 281.183594 401.472656 267.859375 402.066406 256.257812 402.300781 C 264.210938 397.945312 273.351562 390.886719 282.453125 382.167969 Z M 250 399.503906 C 232.648438 391.746094 208.09375 368.226562 191.601562 342.941406 L 250.003906 300.558594 L 308.394531 342.941406 C 291.902344 368.226562 267.355469 391.746094 250 399.503906 Z M 326.1875 284.914062 C 326.175781 288.535156 326.160156 292.324219 326.136719 296.308594 C 326.09375 305.765625 322.710938 316.554688 317.265625 327.542969 L 258.847656 285.132812 L 258.847656 234.867188 C 262.496094 232.722656 266.117188 229.804688 269.003906 227.039062 L 270.742188 225.375 L 268.984375 223.738281 C 266.84375 221.742188 266.824219 219.523438 267.1875 218.007812 C 267.796875 215.457031 269.910156 213.179688 272.320312 212.488281 C 274.316406 211.910156 276.257812 212.488281 277.960938 214.140625 L 280.027344 216.164062 L 281.507812 213.675781 C 283.023438 211.105469 284.800781 209.3125 286.640625 208.035156 C 289.476562 208.027344 315.386719 207.988281 326.238281 208.011719 C 326.238281 214.929688 326.242188 221.316406 326.242188 227.542969 C 326.257812 242.066406 326.269531 256 326.222656 274.039062 C 325.078125 274.175781 323.105469 274.476562 320.707031 276.238281 C 323.261719 277.378906 324.941406 280.847656 326.1875 284.914062 Z M 287.75 165.175781 C 300.746094 183.910156 320.988281 204.410156 346.210938 195.164062 C 326.226562 193.433594 316.964844 180.769531 314.535156 173.210938 C 322.15625 178.011719 334.847656 183.625 349.21875 184.351562 C 364.492188 185.113281 378.925781 181.324219 390.542969 177.507812 C 366.34375 191.597656 331.085938 212.800781 346.976562 242.257812 C 348.488281 253.875 354.039062 264.988281 358.085938 273.582031 C 362.121094 282.171875 367.175781 288.238281 369.191406 290.757812 C 371.210938 293.289062 372.597656 303.902344 359.472656 302.886719 C 346.339844 301.882812 344.589844 300.105469 341.664062 294.429688 C 337.375 286.085938 341.164062 277.503906 338.886719 274.46875 C 336.132812 270.804688 336.621094 263.273438 334.09375 260.441406 C 333.523438 259.816406 332.546875 258.964844 331.554688 258.660156 C 331.558594 247.511719 331.554688 237.671875 331.546875 227.535156 C 331.535156 220.523438 331.535156 213.3125 331.535156 205.367188 L 331.535156 202.730469 L 328.898438 202.71875 C 324.398438 202.695312 313.496094 202.699219 303.851562 202.710938 C 302.050781 199.585938 295.050781 191.445312 283.886719 190.121094 C 282.75 186.210938 285.164062 172.996094 287.75 165.175781 Z M 398.210938 153.378906 C 404.824219 150.167969 411.878906 148.230469 418.859375 147.34375 C 419.058594 152.96875 415.730469 159.738281 408.074219 166.371094 C 407.640625 166.75 407.15625 167.140625 406.632812 167.539062 C 392.851562 171.960938 379.511719 177.214844 369.445312 178.488281 C 384.195312 175.144531 394.433594 160.597656 398.210938 153.378906 Z M 401.503906 134.113281 C 407.558594 134.410156 412.753906 135.980469 416.160156 140.109375 C 417.015625 141.152344 417.480469 142.050781 417.941406 143.289062 C 412.101562 144.183594 406.152344 146.078125 399.832031 148.714844 C 401.222656 143.90625 401.773438 138.933594 401.503906 134.113281 Z M 404.851562 293.679688 C 422.261719 293.765625 432.066406 309.179688 435.355469 311.101562 C 435.410156 309.433594 436.898438 308.265625 441.027344 309.367188 C 460.390625 314.542969 486.125 335.546875 494.949219 342.296875 C 495.453125 326.765625 483.332031 251.855469 417.175781 222.050781 C 474.75 258.933594 485.476562 318.300781 487.496094 327.902344 C 472.347656 312.992188 457.324219 304.527344 434.597656 291.898438 C 428.027344 291.136719 403.601562 282.234375 389.40625 269.398438 C 377.523438 265.375 370.078125 247.179688 377.652344 232.40625 C 364.167969 241.214844 369.839844 258.457031 370.835938 261.585938 C 353.476562 249.542969 348 228.695312 353.855469 215.667969 C 366.421875 188.976562 414.378906 178.511719 422.214844 152.992188 C 427.503906 135.804688 407.320312 128.75 393.785156 130.878906 C 393.613281 129.609375 393.253906 127.691406 392.171875 127.09375 C 388.09375 140.773438 371.304688 144.128906 357.988281 138.015625 C 354.75 132.25 359.9375 130.191406 363.503906 128.894531 C 364.824219 128.417969 374.171875 132.007812 375.492188 123.976562 C 379.214844 123.617188 383.050781 122.65625 384.371094 121.101562 C 380.894531 121.214844 374.078125 119.882812 369.496094 120.738281 C 364.339844 121.695312 363.625 123.019531 362.535156 125.53125 C 361.601562 127.738281 359.921875 124.535156 356.1875 123.496094 C 360.144531 119.179688 371.109375 110.882812 393.183594 119.40625 C 419.445312 119.65625 431.820312 130.199219 434.597656 142.125 C 442.925781 177.984375 383.585938 194.90625 380.554688 216.621094 C 391.921875 214.980469 400.757812 216.375 409.089844 218.511719 C 406.441406 216.496094 400.507812 212.839844 391.667969 211.066406 C 395.085938 200.050781 426.726562 186.324219 437.367188 165.050781 C 447.1875 164.574219 457.265625 166.679688 463.261719 174.070312 C 459.378906 163.503906 449.664062 160.683594 439.101562 160.980469 C 440.601562 156.859375 441.316406 152.464844 440.980469 147.769531 C 450.511719 149.402344 457.246094 152.953125 462.40625 157.78125 C 471.304688 166.121094 466.765625 183.386719 453.40625 184.964844 C 442.996094 186.191406 438.160156 179.5625 438.453125 175.023438 C 430.617188 190.171875 447.472656 199.324219 447.472656 199.324219 C 447.472656 199.324219 435.226562 231.648438 469.316406 240.359375 C 451.890625 228.242188 456.0625 207.402344 465.152344 196.800781 C 474.238281 186.191406 480.195312 172.9375 470.417969 159.183594 C 465.550781 152.335938 455.636719 145.625 440.355469 143.335938 C 437.019531 127.296875 423.394531 117.269531 395.132812 115.085938 C 377.929688 89.972656 333.121094 87.402344 328.792969 65.554688 C 331.816406 69.53125 338.828125 72.941406 347.917969 73.507812 C 337.503906 70.285156 328.128906 59.089844 323.074219 52.269531 C 312.667969 89.171875 374.410156 95.824219 389.390625 113.644531 C 364.242188 105.867188 352.40625 122.324219 352.40625 122.324219 C 352.40625 122.324219 344.488281 122.503906 345.511719 131.175781 C 343.703125 134.179688 339.359375 136.195312 335.0625 137.871094 C 335.019531 135.769531 335.144531 133.582031 335.285156 131.410156 L 335.496094 131.410156 C 337.78125 131.410156 339.632812 129.5625 339.632812 127.277344 C 339.632812 125.039062 337.859375 123.230469 335.65625 123.152344 C 336.691406 110.972656 347.769531 112.792969 352.667969 114.382812 C 349.0625 103.066406 335.570312 106.148438 335.570312 106.148438 C 335.570312 106.148438 337.238281 91.238281 330.035156 86.101562 C 322.835938 91.238281 324.511719 106.148438 324.511719 106.148438 C 324.511719 106.148438 311.007812 103.066406 307.410156 114.382812 C 312.308594 112.792969 323.386719 110.972656 324.425781 123.152344 C 322.210938 123.230469 320.441406 125.039062 320.441406 127.277344 C 320.441406 129.5625 322.292969 131.410156 324.574219 131.410156 L 324.796875 131.410156 C 325.328125 139.902344 325.695312 148.648438 316.28125 151.921875 C 322.042969 154.996094 327.792969 152.621094 330.035156 149.238281 C 332.277344 152.621094 338.039062 154.996094 343.796875 151.921875 C 339.183594 150.320312 336.921875 147.398438 335.875 143.84375 C 342.40625 143.007812 348.308594 143.84375 355.109375 142.566406 C 360.5 144.367188 381.730469 149.882812 393.730469 134.289062 C 394.796875 134.203125 395.863281 134.144531 396.902344 134.101562 C 396.597656 144.289062 390.246094 152.777344 382.320312 157.535156 C 369.699219 165.113281 339.898438 171.035156 321.214844 159.429688 C 309.476562 152.128906 300.527344 136.261719 286.601562 126.480469 C 291.0625 125.9375 293.472656 123.050781 294.25 120.015625 C 295.300781 115.917969 293.652344 110.65625 289.398438 107.414062 L 289.457031 67.320312 L 289.457031 54.1875 L 286.527344 55.714844 L 281.878906 30.636719 L 281.878906 29.855469 C 282.800781 29.558594 283.46875 28.703125 283.46875 27.671875 C 283.46875 26.402344 282.445312 25.367188 281.191406 25.367188 C 279.9375 25.367188 278.917969 26.402344 278.917969 27.671875 C 278.917969 28.722656 279.613281 29.601562 280.554688 29.878906 L 280.554688 30.648438 L 275.914062 55.707031 L 272.992188 54.1875 L 272.992188 64.734375 L 272.972656 64.734375 L 272.972656 71.554688 L 272.246094 71.554688 C 270.496094 67.53125 268.726562 63.214844 265.898438 55.511719 C 267.230469 56.652344 271.203125 58.734375 272.152344 58.925781 C 268.554688 46.425781 265.011719 25 251.570312 17.128906 C 251.023438 16.804688 249.835938 15.519531 249.929688 13.085938 C 250.03125 10.648438 250.148438 5.890625 247.851562 3.230469 C 246.015625 1.109375 242.566406 0.472656 239.703125 0.390625 C 237.300781 0.316406 235.230469 0.605469 233.203125 1.839844 C 227.394531 5.378906 229.035156 16.109375 229.035156 16.109375 C 229.035156 16.109375 227.765625 20.851562 227.765625 22.878906 C 219.941406 33.738281 232.945312 43.871094 237.117188 47.753906 C 238.21875 56.210938 238.632812 56.652344 239.386719 61.199219 C 239.195312 62.832031 238.289062 68.699219 235.90625 71.554688 L 227.027344 71.554688 L 227.011719 54.191406 L 224.085938 55.714844 L 219.4375 30.648438 L 219.4375 29.878906 C 220.386719 29.601562 221.082031 28.726562 221.082031 27.671875 C 221.082031 26.402344 220.058594 25.367188 218.804688 25.367188 C 217.546875 25.367188 216.53125 26.402344 216.53125 27.671875 C 216.53125 28.703125 217.199219 29.5625 218.113281 29.859375 L 218.113281 30.648438 L 213.480469 55.648438 L 210.535156 54.191406 L 210.535156 67.320312 L 210.539062 67.320312 L 210.597656 107.414062 C 206.347656 110.65625 204.691406 115.917969 205.742188 120.015625 C 206.523438 123.054688 208.9375 125.945312 213.394531 126.480469 C 199.472656 136.261719 190.519531 152.128906 178.777344 159.429688 C 160.097656 171.035156 130.296875 165.113281 117.675781 157.535156 C 109.746094 152.777344 103.417969 144.289062 103.101562 134.101562 C 104.140625 134.144531 105.199219 134.207031 106.269531 134.296875 C 118.265625 149.886719 139.492188 144.367188 144.890625 142.570312 C 151.6875 143.84375 157.59375 143.007812 164.125 143.847656 C 163.070312 147.398438 160.8125 150.320312 156.195312 151.921875 C 161.964844 154.996094 167.71875 152.621094 169.957031 149.238281 C 172.203125 152.621094 177.949219 154.996094 183.71875 151.921875 C 174.292969 148.648438 174.664062 139.90625 175.203125 131.414062 L 175.421875 131.414062 C 177.703125 131.414062 179.554688 129.566406 179.554688 127.277344 C 179.554688 125.039062 177.785156 123.234375 175.574219 123.152344 C 176.609375 110.976562 187.6875 112.792969 192.589844 114.382812 C 188.988281 103.066406 175.488281 106.148438 175.488281 106.148438 C 175.488281 106.148438 177.160156 91.238281 169.957031 86.101562 C 162.757812 91.238281 164.429688 106.148438 164.429688 106.148438 C 164.429688 106.148438 150.929688 103.066406 147.332031 114.382812 C 152.230469 112.792969 163.308594 110.976562 164.34375 123.152344 C 162.136719 123.234375 160.363281 125.039062 160.363281 127.277344 C 160.363281 129.566406 162.210938 131.414062 164.503906 131.414062 L 164.714844 131.414062 C 164.855469 133.585938 164.980469 135.769531 164.933594 137.871094 C 160.640625 136.195312 156.292969 134.179688 154.488281 131.175781 C 155.503906 122.503906 147.589844 122.324219 147.589844 122.324219 C 147.589844 122.324219 135.753906 105.867188 110.605469 113.644531 C 125.585938 95.828125 187.144531 89.359375 176.925781 52.269531 C 171.878906 59.089844 162.496094 70.289062 152.078125 73.507812 C 161.167969 72.941406 168.179688 69.53125 171.207031 65.554688 C 166.871094 87.398438 121.917969 90.070312 104.703125 115.15625 C 76.71875 117.089844 62.742188 127.566406 59.648438 143.335938 C 42.761719 146.035156 34.386719 152.726562 29.832031 158.933594 C 19.667969 172.769531 25.757812 186.191406 34.84375 196.800781 C 43.9375 207.402344 48.101562 228.242188 30.679688 240.359375 C 64.769531 231.648438 52.523438 199.332031 52.523438 199.332031 C 52.523438 199.332031 69.378906 190.171875 61.550781 175.023438 C 61.839844 179.566406 57.003906 186.191406 46.589844 184.964844 C 33.238281 183.386719 28.683594 166.117188 37.59375 157.78125 C 42.617188 153.082031 49.460938 149.386719 59.003906 147.753906 C 58.65625 152.453125 59.386719 156.859375 60.886719 160.988281 C 50.320312 160.695312 40.613281 163.5 36.738281 174.074219 C 42.726562 166.679688 52.808594 164.578125 62.628906 165.054688 C 73.28125 186.324219 104.914062 200.054688 108.332031 211.066406 C 99.488281 212.839844 93.554688 216.496094 90.902344 218.511719 C 99.242188 216.375 108.078125 214.984375 119.441406 216.621094 C 116.414062 194.910156 57.070312 177.984375 65.402344 142.128906 C 68.171875 130.199219 80.550781 119.65625 106.8125 119.40625 C 128.886719 110.882812 139.851562 119.179688 143.8125 123.496094 C 140.078125 124.539062 138.394531 127.738281 137.449219 125.535156 C 136.375 123.019531 135.65625 121.695312 130.492188 120.738281 C 125.917969 119.882812 119.105469 121.214844 115.621094 121.101562 C 116.941406 122.65625 120.785156 123.617188 124.5 123.976562 C 125.824219 132.011719 135.171875 128.417969 136.496094 128.894531 C 140.058594 130.191406 145.246094 132.25 142.011719 138.015625 C 128.695312 144.128906 111.902344 140.773438 107.828125 127.09375 C 106.746094 127.691406 106.386719 129.609375 106.210938 130.878906 C 92.675781 128.75 72.492188 135.8125 77.777344 152.992188 C 85.621094 178.515625 133.839844 189.289062 146.40625 215.984375 C 150.308594 226.234375 150.308594 243.390625 131.546875 260.140625 C 130.105469 261.121094 129.164062 261.585938 129.164062 261.585938 C 129.164062 261.585938 136.359375 241.117188 122.347656 232.40625 C 129.925781 247.179688 122.472656 265.375 110.589844 269.398438 C 96.402344 282.234375 71.96875 291.140625 65.402344 291.898438 C 42.675781 304.527344 27.648438 312.992188 12.5 327.902344 C 14.519531 318.300781 25.253906 258.933594 82.828125 222.050781 C 16.664062 251.855469 4.542969 326.769531 5.050781 342.296875 C 45.597656 309.746094 65.28125 305.460938 64.644531 311.101562 C 69.820312 306.972656 78.320312 294.003906 94.949219 293.664062 C 104.261719 293.472656 93.570312 305.90625 90.148438 313.128906 C 82.949219 328.28125 79.925781 337.367188 80.300781 341.914062 C 80.742188 347.257812 74.492188 344.941406 73.230469 339.269531 C 73.230469 341.667969 72.726562 342.296875 72.726562 346.339844 C 72.726562 350.371094 81.816406 361.359375 82.574219 371.710938 C 88.882812 370.445312 89.074219 374.558594 100.183594 375.0625 C 100.257812 375.0625 100.324219 375.0625 100.394531 375.0625 C 84.328125 384.34375 69.484375 392.683594 59.820312 395.613281 C 55.023438 397.0625 49.707031 398.464844 44.667969 399.050781 C 46.519531 395.183594 49.246094 392.015625 52.527344 390.210938 C 46.847656 380.925781 38.511719 372.976562 29.921875 368.300781 C 14.773438 367.921875 6.1875 393.554688 16.289062 402.144531 C 22.738281 402.902344 35.742188 424.507812 47.390625 432.652344 C 50.304688 434.929688 53.949219 436.34375 58.683594 436.34375 C 60.527344 436.34375 62.53125 436.136719 64.722656 435.683594 C 83.164062 431.882812 104.03125 419.75 126.132812 406.910156 C 149.375 393.414062 173.210938 379.566406 193.738281 376.292969 C 197.550781 383.5625 183.929688 391.316406 179.035156 393.1875 C 175.96875 394.34375 170.277344 394.660156 172.671875 397.605469 C 172.976562 397.996094 173.253906 398.34375 173.5 398.648438 C 180.878906 407.90625 188.1875 418.296875 194.695312 433.921875 L 194.941406 434.519531 L 195.46875 434.894531 C 202.808594 440.148438 232.128906 442.90625 249.960938 443 C 249.976562 443 249.988281 443 250 443 C 250.015625 443 250.023438 443 250.042969 443 C 267.871094 442.90625 297.226562 440.285156 305.078125 434.5625 C 310.078125 422.402344 315.722656 412.042969 327.289062 397.640625 C 327.769531 397.039062 327.992188 396.558594 327.90625 396.148438 C 327.5625 394.507812 323.410156 394.109375 320.960938 393.1875 C 316.0625 391.316406 302.449219 383.5625 306.257812 376.292969 C 326.78125 379.566406 350.617188 393.414062 373.867188 406.910156 C 395.957031 419.746094 416.835938 431.882812 435.265625 435.683594 C 437.460938 436.136719 439.464844 436.34375 441.308594 436.34375 C 446.039062 436.34375 449.675781 434.941406 452.585938 432.664062 C 464.234375 424.527344 477.25 402.902344 483.710938 402.140625 C 493.808594 393.554688 485.222656 367.921875 470.070312 368.300781 C 461.484375 372.976562 453.148438 380.925781 447.46875 390.210938 C 450.75 392.015625 453.480469 395.183594 455.328125 399.050781 C 450.289062 398.464844 444.976562 397.0625 440.175781 395.613281 C 430.519531 392.683594 415.664062 384.34375 399.605469 375.0625 C 399.679688 375.0625 399.734375 375.0625 399.816406 375.0625 C 410.925781 374.554688 411.117188 370.445312 417.421875 371.710938 C 418.175781 361.359375 427.277344 350.371094 427.277344 346.339844 C 427.277344 342.296875 426.769531 341.667969 426.773438 339.265625 C 425.503906 344.941406 419.253906 347.25 419.699219 341.914062 C 420.078125 337.367188 417.050781 328.28125 409.847656 313.121094 C 408.136719 309.515625 403.761719 303.445312 402.25 299.660156 C 401.210938 297.070312 400.050781 293.652344 404.851562 293.679688 "/>
</g>
</g>
</svg>
