<svg version="1" xmlns="http://www.w3.org/2000/svg" width="833.333" height="833.333" viewBox="0 0 625.000000 625.000000"><path d="M291.7 37c-3.1 1.9-4.9 7-5.8 16.6-.4 5.2-1.5 10.7-2.4 12.4-3.5 6.8-.9 14.6 8 24 5.2 5.4 5.3 5.6 6.6 14.6 1.1 8.4 1.1 9.6-.7 14.5l-1.9 5.4-5.8.3-5.7.3v-11c0-10.3-.1-10.9-2-10.4-2.2.6-2 1.2-5.5-17.6-1.8-9.8-2.1-13.8-1.4-14.8 1.4-1.6.4-4.3-1.6-4.3s-3 2.7-1.6 4.3c.8 1 .4 5-1.5 14.8-3.5 19.3-3.2 18.2-5.4 17.6-2-.5-2 .2-2 32.5v32.9l-2.7 3.5c-1.7 2.3-2.8 5.2-3.1 8.2-.3 4.1 0 5.3 2.2 7.9 1.5 1.8 3.5 3.4 4.5 3.8 1.3.4-2.5 4.8-17.3 19.9-10.5 10.7-20.9 20.6-23.1 22-16.8 10.7-48 10.8-71.2.1-12.5-5.8-21.2-16.1-22.9-27.3-.6-3.6-.4-4.2 1.1-4.2 1 0 3.6 1.6 5.8 3.6 9.2 8.3 24 11.4 38.7 8.1 4.7-1 9.5-1.2 17.7-.8 6.2.4 11.5.9 11.8 1.3 1 1-1.1 4.3-4.6 7.2-3.5 3-3.5 3.3.7 4.1 2 .4 4.4-.1 7.5-1.8l4.7-2.3 2.7 2c2.6 1.9 10.7 2.8 12.1 1.3.4-.3-.8-1.9-2.6-3.4-4.4-3.7-6-7.9-6-16.2 0-6 .2-6.9 2-7.4 3.8-1 3.9-8 .1-9.2-1.6-.5-1.8-1.1-1.1-3.4 2.1-7.3 5.6-9.5 14.4-8.9 6.5.4 7-.6 2.6-5.1-3-2.9-10.7-5.4-15.5-4.8-1.8.2-2.1-.6-2.6-7.8-.6-7.8-2.3-12.9-5.2-15.3-3.1-2.6-7.5 6.2-8 16.5-.4 6-.7 6.8-2.3 6.6-4.6-.6-12.5 1.9-15.4 4.8-4.6 4.6-4 5.5 3.5 5.1 6.3-.4 6.6-.3 10 3.1 4 4 4.6 8 1.4 9.7-2.8 1.6-2.3 7.1.9 8.5 1.7.8 2.2 1.8 2.2 4.8 0 3.5-.2 3.8-2.2 3.2-1.3-.4-4.1-1.9-6.3-3.4-3.1-2.1-4.1-3.5-4.6-6.4-.7-4.1-3.1-7.3-6.3-8.3-1.1-.4-3.8-2.2-6-4.1-2.1-2-6.4-4.7-9.5-6.2-4.9-2.3-6.9-2.6-15.6-2.6-5.5 0-11.5.3-13.4.8l-3.5.7 2.5-2.6c3.7-4 11.9-8.5 32.4-18.1 28.6-13.4 39.9-21.4 45.4-32.5 2.7-5.2 3.1-7.2 3.1-13.8 0-4.2-.3-7.9-.6-8.3-.3-.3-2.7 2-5.3 5.1-5.9 7-11.8 12.4-17.9 16.3-3.5 2.2-4.1 2.9-2.4 2.9 3.3 0 12.7-3.8 14.7-6 4.8-5.3 3.3 1.4-1.6 7.3-4.7 5.7-13.5 11.1-32.8 20.4-20.8 10-31.8 17-39.9 25.2-5.7 6-6 6.1-13.3 7.1-27.6 3.9-41.6 13.4-48.2 33-.3 1-2.9 2-6.8 2.8-14.7 3-28.6 12.7-33.9 23.7-2 4-2.5 6.5-2.5 13 0 9.6 2.6 16.1 11 27 7.6 9.9 9.7 15.2 10.3 25.6.6 11.4-1.3 17-7.9 24.4l-5 5.4 4.6-1.6c18.1-6.1 26.8-22.9 22.4-43.3l-1.1-5.2 5.1-4.7c5.8-5.4 8.1-10.1 8.1-16.8 0-7-1.2-8.2-3.8-3.9-1.1 1.9-3.6 4.2-5.4 5.2-4.1 2.1-13.4 2.2-17.5.1-6.6-3.4-11.3-11.5-11.3-19.2.1-9.5 10.8-19.8 24.9-23.9 3-.9 6-1.6 6.6-1.6.8 0 1.4 2.4 1.8 6.2.3 3.5.8 7.1 1.2 8 .5 1.4-.3 1.8-5.2 2.4-11 1.3-18.7 5.4-21.9 11.6l-1.7 3.2 3.2-2.6c4.3-3.6 12.9-6.7 21-7.4l6.8-.7 3.9 5.9c5.4 8.2 13.8 16.3 30.5 29.7 14.8 11.7 19.1 15.6 21.6 19.4 1.8 2.8 1.2 3.9-2.8 4.7-4.1.8-14.9 5.6-14.9 6.7 0 .4 1.7.2 3.8-.4 2-.6 9.4-1.1 16.4-1.1 7.1-.1 12.8-.5 12.8-.9 0-1.9-4.4-9.1-7.8-12.9-2-2.2-10.2-9.3-18.2-15.6-20.5-16.3-26.4-21.6-31.4-28.1-7.2-9.4-9.9-15.5-10.4-24.2-.6-10.7 1.5-17.3 7.7-24.1 8.3-9.1 17.4-12.8 36.8-15.3 5.9-.7 13.3-2 16.3-2.9 7-2 19.5-2.1 25.1-.1 5.1 1.8 11.9 6.1 11.9 7.5 0 .5-1.4 1.7-3.1 2.6-3.1 1.5-3.1 1.5-5.9-1.8l-2.8-3.3-10.6-.3c-6.8-.3-10.6 0-10.6.6 0 1.1 1.3 1.6 6.5 2.7 1.9.3 3.6 1.6 4.6 3.4 1.8 3.1 5.3 4.2 10.5 3.4 6-1 12.2 4.2 11 9.3-.8 3-8.4 5.4-17.7 5.4-11.1 0-19-3.9-23.6-11.8-2.4-4-4.3-4.8-4.3-1.6 0 1.1-.9 1.3-3.7.8-5.2-.8-17.6 2-22.9 5.1-9.6 5.7-12.5 16.2-7.4 27 3.8 8 16.5 19.9 32 30 31.9 20.8 37.4 24.9 45 34 8.3 10 11 19.5 9 31.7-2 11.4-11.2 26.9-20.4 33.9l-2.8 2.2.7-4.4c1.4-7.7.8-17.3-1.3-22-2.1-4.7-8.2-11.3-6.8-7.4 1.9 5.2 2.8 12.3 2.2 17.4-1.2 10.2-7.8 21.1-14.9 24.4-1.8.9-5.1 3-7.3 4.8-11.9 9.5-36.5 21.7-49.4 24.4-6 1.3-38.9 20.7-51.4 30.3-3.4 2.6-8.6 6.9-11.5 9.6-3 2.7-5.6 4.5-5.8 3.9-.5-1.5 3-14.9 6.8-26.4 3.6-10.9 13.6-32.3 19.9-42.4 11.5-18.7 30.6-40.1 46.5-52 10.8-8 11.1-8.4 3-4.1-28.1 15.1-52.2 41.7-67.8 74.6-9.6 20.2-18.2 51.8-17.5 63.8l.3 5 13.5-10c21.7-16 38.7-25.9 50.5-29.3 4.6-1.4 6.3-1.5 7.7-.6 1.6 1 2.9.3 9.1-5.4 8.2-7.5 18.3-13 25.6-14 10.6-1.4 11.6 1.7 4.5 14C110 431.2 101 453 101 458.9c-.1 7.5-4 9.6-7.9 4.3l-2-2.7-.1 4.7c0 3.5.9 6.4 4 12.1 2.2 4.2 5.1 10.8 6.4 14.8 2.2 6.4 2.7 7.2 5.2 7.5 1.4.2 4.3.9 6.3 1.7 2 .8 5.6 1.8 8 2.2l4.4.7-8.4 4.9c-17.6 10.3-38.1 19.8-48.3 22.4-12.8 3.3-13 3.3-11.2-.4.9-1.6 3-4.1 4.7-5.5 2.9-2.4 3.1-2.9 1.9-5-4.4-8.4-23.2-24.6-28.4-24.6-12.7 0-24.4 21.8-19.2 35.5 1.3 3.3 3 5.3 6.6 7.7 2.6 1.8 10 9.2 16.3 16.4 18.2 20.7 23.5 24.5 34.1 24.5 16.1 0 35.6-8.5 86.1-37.4 40.9-23.4 64.7-34.4 78.9-36.3l4.6-.7v3.2c0 6-11.1 15.4-22 18.7-2.7.8-5.2 1.8-5.4 2.3-.3.5 1.7 3.8 4.4 7.4 7.7 10.2 13.5 19.6 19 30.8 6 12.2 6.8 12.8 21.6 15.8 16.7 3.4 30.9 4.6 53.4 4.5 28.2-.1 50.2-2.9 63-8 3.4-1.4 4.3-2.7 10.4-14.7 3.7-7.5 10-17.9 14.6-24.1 4.4-5.9 7.7-11.2 7.4-11.7-.2-.5-2.7-1.5-5.4-2.3-10.9-3.3-22-12.7-22-18.7v-3.2l4.6.7c14.2 1.9 37.8 12.8 79.1 36.4 50.7 29 69.9 37.3 85.9 37.3 10.6 0 15.8-3.7 34-24.5 6.4-7.2 13.7-14.6 16.4-16.4 3.6-2.4 5.3-4.4 6.6-7.7 5.2-13.7-6.5-35.5-19.2-35.5-5.2 0-24 16.2-28.4 24.6-1.2 2.1-1 2.6 1.9 5 1.7 1.4 3.8 3.9 4.7 5.5 1.8 3.7 1.6 3.7-11.2.4-10.2-2.6-30.7-12.1-48.3-22.4l-8.4-4.9 4.4-.7c2.4-.4 6-1.4 8-2.2 2-.8 4.9-1.5 6.3-1.7 2.5-.3 3-1.1 5.2-7.5 1.3-4 4.2-10.6 6.4-14.8 3-5.5 4-8.6 4-12v-4.6l-2.5 2.7c-4.4 4.7-7.4 2.9-7.5-4.6 0-5.8-8.5-26.3-17.5-42.3-6.9-12.3-5.9-15.5 4.3-14 9.1 1.3 18.1 6.6 28.9 16.8 3.6 3.4 4.4 3.8 5.7 2.7 4.9-4 30.3 8.9 58.6 29.8l13.5 10 .3-5c.7-10.7-6.6-39-14.9-58.1-5.2-12.1-13.6-26.7-21.1-36.9-12-16.3-32.3-34.2-49.3-43.4-8.1-4.3-7.8-3.9 3 4.1 15.9 11.9 35 33.3 46.5 52 6.3 10.1 16.3 31.5 19.9 42.4 3.8 11.5 7.3 24.9 6.8 26.4-.2.6-2.8-1.2-5.8-3.9-2.9-2.7-8.1-7-11.5-9.6-12.5-9.6-45.4-29-51.4-30.3-12.9-2.7-37.5-14.9-49.4-24.4-2.2-1.8-5.5-3.9-7.3-4.8-7.1-3.3-13.7-14.2-14.9-24.4-.6-5.1.3-12.2 2.2-17.4.6-1.8.4-1.7-2 .5-6.1 5.5-8.8 16.1-6.7 26 .6 2.9.9 5.5.7 5.8-.8.7-6.3-4.3-10.8-9.6-7.8-9.3-12.2-20.9-12.1-32.2.1-18.5 9.8-29.8 45.3-52.7 20.3-13.1 26.1-17.5 33.1-25.1 7.1-7.6 10.2-14 10.3-21.3.2-10.5-7.2-17.5-21.5-20.5-4.1-.9-9.1-1.3-11.1-1-2.9.5-3.8.3-3.8-.8 0-3.2-1.9-2.4-4.3 1.6-4.6 7.9-12.5 11.8-23.6 11.8-9.3 0-16.9-2.4-17.7-5.4-1.2-5.1 5-10.3 11-9.3 5.2.8 8.7-.3 10.5-3.4 1.2-2.1 2.8-3.1 6.3-4 8.2-1.9 5.6-3.1-5.8-2.7l-10.6.3-2.8 3.3c-2.8 3.3-2.8 3.3-5.9 1.8-1.7-.9-3.1-2.1-3.1-2.6 0-1.4 6.8-5.7 11.9-7.5 5.6-2 18.1-1.9 25.1.1 3 .9 10.4 2.2 16.3 2.9 19.4 2.5 28.5 6.2 36.8 15.3 6.1 6.7 8.3 13.3 7.7 23.6-.8 15.5-9.1 26.5-37 48.9-10.7 8.5-21 17.3-23.1 19.6-3.3 3.7-7.7 11-7.7 12.8 0 .4 5.7.8 12.8.9 7 0 14.4.5 16.5 1.1 2 .6 3.7.8 3.7.4 0-1.1-10.8-5.9-14.9-6.7-4-.8-4.6-1.9-2.8-4.7 2.5-3.8 6.8-7.7 21.6-19.4 16.7-13.4 25.1-21.5 30.5-29.7l3.9-5.9 6.8.7c8.1.7 16.7 3.8 21 7.4l3.2 2.6-1.7-3.2c-3.2-6.2-10.9-10.3-21.9-11.6-4.9-.6-5.7-1-5.2-2.4.4-.9.9-4.5 1.2-8 .4-3.8 1-6.2 1.8-6.2.6 0 3.6.7 6.6 1.6 14.1 4.1 24.8 14.4 24.9 23.9 0 7.7-4.7 15.8-11.3 19.2-4.1 2.1-13.4 2-17.5-.1-1.8-1-4.3-3.3-5.4-5.2-2.6-4.3-3.8-3.1-3.8 3.9 0 6.7 2.3 11.4 8.1 16.8l5.1 4.7-1.1 5.2c-4.4 20.4 4.3 37.2 22.4 43.3l4.6 1.6-5-5.4c-5.9-6.6-8.2-12.8-8.2-22.4 0-7.7 2.6-16.4 6.6-22 1.4-2 4.5-6.4 6.9-9.8 12.1-16.9 11.4-32.8-2.1-46-6.2-6.1-16.8-11.5-26.2-13.5-3.9-.8-6.5-1.8-6.8-2.8-5.4-15.9-15.5-25-33.3-29.9-4-1.1-10.8-2.5-15.1-3.1l-7.8-1.1-6.2-6.5c-8.1-8.3-18-14.6-39.4-24.9-19-9.1-27.7-14.5-32.4-20.2-4.9-5.9-6.4-12.6-1.6-7.3 2 2.2 11.4 6 14.7 6 1.7 0 1.1-.7-2.4-2.9-6.1-3.9-12-9.3-17.9-16.3-2.6-3.1-5-5.4-5.3-5.1-.3.4-.6 4-.6 8.2 0 18.6 11.1 29.1 50 47.1 18.7 8.7 27.2 13.4 30.9 17.4l2.5 2.6-3.5-.7c-1.9-.5-7.9-.8-13.4-.8-8.7 0-10.7.3-15.6 2.6-3.1 1.5-7.4 4.2-9.5 6.2-2.2 1.9-4.9 3.7-6 4.1-3.2 1-5.6 4.2-6.3 8.3-.5 2.9-1.5 4.3-4.6 6.4-2.2 1.5-5 3-6.2 3.4-2.1.6-2.3.3-2.3-3.2 0-3 .5-4 2.3-4.8 3.1-1.4 3.6-6.9.8-8.5-3.2-1.7-2.6-5.7 1.4-9.7 3.4-3.4 3.7-3.5 10-3.1 7.5.4 8.1-.5 3.5-5.1-2.9-2.9-10.8-5.4-15.4-4.8-1.6.2-1.9-.6-2.3-6.6-.5-10.3-4.9-19.1-8-16.5-2.9 2.4-4.6 7.5-5.2 15.3-.5 7.2-.8 8-2.6 7.8-4.8-.6-12.5 1.9-15.5 4.8-4.4 4.5-3.9 5.5 2.6 5.1 8.8-.6 12.3 1.6 14.4 8.9.7 2.3.5 2.9-1.1 3.4-3.8 1.2-3.7 8.2.1 9.2 1.8.5 2 1.4 2 7.4 0 8.3-1.6 12.5-6 16.2-1.8 1.5-3 3.1-2.6 3.4 1.4 1.5 9.5.6 12.1-1.3l2.7-2 4.7 2.3c3.1 1.7 5.5 2.2 7.5 1.8 4.2-.8 4.2-1.1.7-4.1-3.5-2.9-5.6-6.2-4.6-7.2.3-.4 5.6-.9 11.8-1.3 8.2-.4 13-.2 17.7.8 14.7 3.3 29.5.2 38.7-8.1 2.2-2 4.8-3.6 5.8-3.6 1.5 0 1.7.6 1.1 4.2-1.7 11.2-10.4 21.5-22.9 27.3-23.2 10.7-54.4 10.6-71.2-.1-2.2-1.4-12.6-11.3-23.1-22-14.8-15.1-18.6-19.5-17.3-19.9 1-.4 3-2 4.5-3.8 2.2-2.6 2.5-3.8 2.2-7.9-.3-3-1.4-5.9-3.1-8.2l-2.7-3.5v-32.9c0-32.3 0-33-2-32.5-2.2.6-1.9 1.7-5.4-17.6-1.9-9.8-2.3-13.8-1.5-14.8 1.4-1.6.4-4.3-1.6-4.3s-3 2.7-1.6 4.3c.7 1 .4 5-1.4 14.8-3.5 18.8-3.3 18.2-5.5 17.6-1.9-.5-2 .1-2 10.1 0 6.1-.4 10.2-.9 9.7-1-1.1-7.1-16.3-7.1-17.6 0-.5 1.4-.2 3.1.6 1.7.9 3.2 1.5 3.4 1.3.1-.2-1.3-5.9-3.1-12.8-5.4-19.5-11.9-31.3-20.7-37.6-2.6-1.8-3-2.9-3.7-9.3-1.1-9.8-2.7-11.4-11.7-11.8-3.8-.2-7.6.1-8.6.7zm12.9 2.8c1.9 1.3 3.1 4.6 3.9 10.7.7 5.7 1 6.3 6.4 11.1 3.3 3.1 7.3 8.1 9.9 12.7 4.4 7.6 11 25.3 9.9 26.4-.8.7-4.4-1.6-12.6-8.1-8.5-6.7-14.6-15.1-16.2-22.2-1.2-5.3-1.3-5.4-2.5-3.2-1.8 3.2-1.7 11.3.2 15.1.9 1.8 5 6.6 9.1 10.8 6.7 6.9 7.4 7.9 6.4 9.8-.7 1.1-2.3 2.9-3.8 3.8-2.4 1.6-2.6 1.6-3.9-.1-1.3-1.8-1.5-1.8-3.9-.2-1.4.9-2.9 1.5-3.4 1.2-.4-.3-1.4-4-2.1-8.3-1.1-6.8-1.7-8.3-5-12-6.3-6.8-8.4-11.7-8.4-19.8 0-3.9.3-9 .7-11.5.3-2.5.6-6.1.6-8.1.1-2.1 1-4.8 2.2-6.3 1.7-2.1 2.9-2.6 6.7-2.6 2.6 0 5.2.4 5.8.8zm3.4 81.5c-1.4 4.6-3.9 4.7-5.2.2-1.2-4.3-.2-7.2 3-8.9 2.7-1.4 2.7-1.4 3 1.7.2 1.8-.1 4.9-.8 7zm14.1-3.8c1.6 3.5 2.9 6.7 2.9 7 0 .3-2.6.5-5.7.3l-5.8-.3.2-5.4c.2-5 1.9-8 4.6-8.1.5 0 2.1 2.9 3.8 6.5zm-18.9 29.2c2.4 2.3 2.8 3.5 2.8 7.9 0 5.8-.7 6.4-8.7 6.4H293v-5.4c0-4.4.5-6 2.6-8.5 3.2-3.8 4-3.8 7.6-.4zm26.2.4c2.1 2.5 2.6 4.1 2.6 8.5v5.4h-4.2c-8 0-8.8-.6-8.8-6.3 0-4.2.5-5.6 2.7-7.9 3.4-3.6 4.5-3.5 7.7.3zm1.4 21.2c1.9 1.8 8.2 13.5 8.2 15.3 0 .7-10.8-.6-13.7-1.7-1.2-.4-3.7-3.2-5.6-6.1-1.9-2.9-4.4-6.2-5.6-7.2-1.1-1.1-2.1-2.2-2.1-2.6 0-.4 3.7-.5 8.3-.2 6.5.3 8.7.9 10.5 2.5zm-31 .3c2.6 1.8 9.3 11.4 8.7 12.4-.3.4-3.3 1-6.7 1.2l-6.3.5-7.1-6.8-7.1-6.8 4.1-1c6.4-1.4 12-1.2 14.4.5zm58 5.1c2.9 1.8 5.3 7.2 4.6 10.1-.3 1.1-1.9 2.6-3.5 3.2-3.9 1.7-5.3.4-9.7-9-2-4.1-3.8-7.8-4-8.2-.5-1.1 9.9 2.1 12.6 3.9zm-82.9 4.9c3.4 3.1 6.1 5.9 6.1 6.3 0 1.4-12.9 3.2-15 2.1-3.1-1.7-4.2-4.4-2.9-7.7 1.1-3 3.7-6.3 5-6.3.4 0 3.5 2.5 6.8 5.6zm35.5 18.6c.4 5.7 1.1 12.3 1.5 14.8.6 4.2.8 3.8 1.9-5.8.7-5.6 1.2-12.3 1.2-14.7 0-4.3.1-4.5 2.8-4.5 5.1 0 14.5 2.1 18.5 4.2 2.2 1.1 5.9 4 8.3 6.5 3.9 3.9 4.4 5 4.4 9 0 5.6-1.3 8.1-5.2 9.7-2.3 1-3.8 1.1-5.9.3-3.5-1.4-12.6.3-20.2 3.7l-5.2 2.3-5.1-2.3c-7.7-3.4-16.8-5.1-20.3-3.7-2.1.8-3.6.7-5.9-.3-3.9-1.6-5.2-4.1-5.2-9.7 0-4 .5-5.1 4.4-9 2.4-2.5 5.9-5.3 7.7-6.3 3.9-2.1 12.8-4.2 18-4.3l3.6-.1.7 10.2zm-187 12.5c.3 3.8.9 7.8 1.2 9 .6 2.1.5 2.1-7.8-.8-4.5-1.6-9.5-2.9-11-2.9-1.6 0-2.8-.6-2.8-1.3 0-4.5 9.4-10.4 17.1-10.6 2.5-.1 2.6.2 3.3 6.6zm391.5-3.7c6.4 3.2 9.4 9 4.7 9-1.4 0-6.4 1.3-11.1 3-8.7 2.9-8.7 2.9-8.1.7.3-1.2.9-5.3 1.2-9.1l.7-6.8 4.4.6c2.3.3 6.1 1.5 8.2 2.6zm-227.4 19.4c7.2 2.3 15.8 5.5 19.1 7l6.2 2.8 4.3-2.2c2.4-1.3 10.9-4.4 18.9-7 12.9-4.3 14.8-5.2 16.9-8.1l2.3-3.4-.6 7.3c-.4 4-2 14.9-3.7 24.4-1.6 9.4-2.9 19.5-2.9 22.2v5.1l-5.2 2.5c-3.3 1.5-9.1 6.1-15.3 12.1-11 10.6-13.6 12.3-16.6 11.4-1.1-.4-6.7-5.1-12.4-10.4-5.7-5.4-12.8-11.1-15.9-12.7l-5.6-2.9v-5.1c0-2.8-1.3-12.8-2.9-22.2-1.7-9.5-3.3-20.4-3.7-24.4l-.6-7.3 2.3 3.4c2.1 3 3.9 3.8 15.4 7.5zm-174-3.6c10.5 2.8 13.1 4.4 17.4 10.8 5.4 8 14.8 17.2 21.8 21.2l5.8 3.4-4-.7c-7.1-1.2-37.2-11.4-40-13.6-4.7-3.8-10.4-11.9-12-17.1-2.2-7.6-2.3-7.5 11-4zm409.7.8c-.6 5.2-3.9 11.2-9.4 16.7-5.2 5.4-5.6 5.6-22.3 11-9.4 3-18.8 5.8-21 6.2l-4 .7 5.8-3.4c7.3-4.2 16.5-13.2 21.9-21.4 3.2-4.9 5-6.6 8.2-7.8 5.6-2.1 18.9-5.6 20.1-5.2.6.2.9 1.6.7 3.2zm-253.7 37c1.7 11.2 1.3 13.1-2.9 14-5.6 1.2-12.3 5.2-17.2 10.4l-4.9 5H211V357.7l-2.4 2.2c-1.5 1.4-2.9 4.4-3.6 7.5-.6 2.8-1.7 6.7-2.5 8.6-.8 1.9-1.6 7.8-1.8 13.1-.3 8.1-.8 10.4-3.1 14.6-3.3 6-6.2 7.8-15 9.4-9.5 1.6-15.4.8-18.3-2.6-3.6-4.2-3.1-9 1.7-15.4 9.2-12.3 19.4-33.6 23.5-49.3 1.4-5.1 3.4-11.8 4.5-14.8 5.4-15-.8-31.7-17.2-46.4-6.2-5.6-24.7-18.6-34-24-2.7-1.5-4.8-2.8-4.8-3 0-.2 3.7.8 8.2 2.1 12.7 3.6 24 5.3 36.2 5.3 17.2 0 26.8-2.1 40.9-9.1 4.3-2.2 8.1-3.9 8.3-3.9.3 0-.7 2.3-2.3 5.1-5.3 9.8-17.6 18.3-30.2 21-5.5 1.2-5.5 1.2-2.6 2.1 1.7.6 6.6 1 11 1 17.6.1 32.7-8.8 49.5-29.2l8.5-10.2 1.3 4.3c.7 2.4 1.9 8.5 2.7 13.5zm93.1-14.3c4.3 6.6 14.8 17.9 21.6 23.2 12.6 9.9 26 14.5 37.7 13 9.3-1.2 10.4-2.1 4-3.4-7.3-1.5-16.4-6-21.8-10.7-4.4-3.8-10.1-11.7-10.1-14 0-.8 3.1.3 8 2.7 4.4 2.2 12.4 5.1 17.7 6.5 9 2.4 11.1 2.5 25.8 2.1 13.8-.4 17.6-.9 27.8-3.6 6.5-1.7 12.1-3.1 12.4-3.1.3 0-4.5 3.2-10.8 7.1-23.2 14.5-35.2 25.7-41.7 38.8-4.7 9.5-5.4 17.7-2.3 26.6 1.2 3.3 3.2 10.2 4.6 15.3 4.1 15.7 15 38.6 23.7 49.6 2.7 3.5 3.8 5.8 3.8 8.3 0 9-6.8 11.9-21.5 9.2-8.4-1.5-10.7-3-13.9-9-2.5-4.4-3-6.6-3.3-14.8-.3-5.3-1.1-11-1.8-12.6-.7-1.7-1.8-5.5-2.4-8.6-.8-3.6-2.1-6.5-3.6-7.9l-2.5-2.3V289h-33.3l-4.7-4.9c-4.8-5-12-9.3-17.7-10.5-1.7-.4-3.4-1.4-3.7-2.2-1.1-2.8 3.7-29.4 5.2-29.4.4 0 1.7 1.5 2.8 3.3zm-81.5 36.3c2.8 1.4 8.7 6.1 13.2 10.6 13.4 13.3 16.4 15 22.1 12.3 1.9-.9 7.4-5.6 12.3-10.4 10.1-10 18-15.1 23.5-15.1 3.7 0 10.7 2.6 14.3 5.3 1.9 1.5 1.9 1.6-1 2.2-5.5 1.2-10.3 3.7-13.5 7-2.8 2.9-3.5 3.1-5.9 2.2-9.3-3.5-20.5 8-17.2 17.5 1.2 3.2 1.1 3.4-2.5 6.5-5.5 4.8-11.9 7.7-15.6 6.9-3.4-.7-11.5-5.5-14.2-8.4-1.3-1.6-1.4-2.4-.5-5.1 3.3-9.5-7.9-20.9-17.2-17.4-2.4.9-3.1.7-5.9-2.2-3.2-3.3-8-5.8-13.4-7-3.5-.7-2.7-1.7 4-5.1 6.4-3.1 11.2-3 17.5.2zm-12.5 15.2c1.1.9 3.1 3.2 4.4 5l2.2 3.3 2.4-2.2c3.4-3.2 8.1-3 11.1.5 2.9 3.5 3 8.2.1 11.3l-2.2 2.3 3.5 3c1.9 1.7 5.3 4.4 7.7 6.1l4.2 3v30.8c0 30.6 0 30.8-2.2 32.8-4.9 4.3-69.4 50.6-70.7 50.7-1.6.1-7-12.1-9.6-21.9-.9-3.3-1.9-11.3-2.2-17.7-.6-12.3 0-15.3 4-21.1l1.9-2.8-3.1-1.2-3.1-1.1V295h24.8c21.9 0 24.9.2 26.8 1.8zM408 336.3v41.3l-3.1 1.1-3.1 1.2 1.9 2.8c4 5.8 4.6 8.8 4 21.1-.3 6.4-1.3 14.4-2.2 17.7-2.6 9.8-8 22-9.6 21.9-1.3-.1-65.8-46.4-70.6-50.7-2.3-2-2.3-2.2-2.3-32.8v-30.8l4.3-3c2.3-1.7 5.7-4.4 7.6-6.1l3.5-3-2.2-2.3c-2.9-3.1-2.8-7.8.1-11.3 3-3.5 7.7-3.7 11.1-.5l2.4 2.2 2.2-3.3c4.8-7 3.9-6.8 31.3-6.8H408v41.3zm-59.8 100.3c19.4 14.1 35.7 26 36.2 26.5 2.3 2.1-17.2 26.5-34.5 43.5-12.1 11.7-23.1 20.5-31.9 25.3l-5.4 2.9-4.6-2.3c-13-6.6-36.8-27.9-52.4-47-10-12.2-15.8-20.4-15.4-21.6.3-.9 70.8-52.7 72-52.8.4-.1 16.6 11.4 36 25.5zM213.6 424c1.4 5.4 4.9 14.5 8.4 21.8 3.3 6.8 6 12.5 6 12.7 0 .1-3 .5-6.7.9-9.1.9-21.9 5.4-38.5 13.3-12.3 5.9-14.1 6.5-16.4 5.5-3.9-1.8-5.7-1.5-11.9 2.3-13.2 7.9-28.1 12.5-34.5 10.6-7.1-2.1-10-7.9-10-20.2 0-13.7 5.5-25.5 17.8-37.8l5.3-5.4 3.3 3.7c1.9 2 4.2 3.6 5.1 3.6 1 0 6.1-1.3 11.4-2.9 12.5-3.9 20.6-5.7 31.6-7.1 6.6-.9 9.5-1.7 10.9-3.2 2.1-2.2 13.6-8 15-7.5.4.1 1.9 4.5 3.2 9.7zm208-7.1c3.4 1.6 7 3.8 8 4.9 1.2 1.3 3.9 2.2 7.4 2.6 11.3 1.4 22.2 3.7 33.2 7.1 6.2 1.9 12.1 3.5 13.1 3.5s3.3-1.7 5.2-3.7l3.4-3.7 5.8 6C510 446.2 515 457.3 515 472c0 9.7-2.7 15.6-8.4 18.4-3.4 1.7-4.6 1.8-9.6.8-6.9-1.2-18.7-6-26.5-10.7-6.3-3.8-7.4-4-12-2.4-2.8 1-4 .7-13-3.8-18.8-9.4-36.3-15.3-45.6-15.3-1.6 0-2.9-.2-2.9-.4s2.7-5.9 6-12.7c5.6-11.8 10-24.7 10-29.6 0-3 1.2-2.9 8.6.6zm-188.8 49.3c.6.6 3.6 4.5 6.6 8.7 2.9 4.2 8.3 11.2 12 15.6l6.7 8-8.8.7c-23.3 2-43.5 10.6-95.4 40.4-42.8 24.6-63.5 33.9-78.5 35.1-7.4.7-12.7-1.7-16.7-7.4-4.4-6.5-5.7-10.7-5.7-19.2v-8l3.8-.6c18.4-2.8 34.3-9.5 66.7-27.9 13.6-7.7 17.5-9.5 19.7-9.1 2.2.5 2.9.1 4.2-2.3 1.5-2.9 6.5-5.7 9.7-5.5 1.1.1 1.9-.7 2.1-2 .2-1.6 4.2-4.1 18.3-11.2 18.4-9.3 33.4-15.1 42.1-16.3 5.7-.8 11.4-.4 13.2 1zm185.7 2.6c15 4.9 46.9 21 47.3 23.9.2 1.3 1 2.1 2.1 2 3.2-.2 8.2 2.6 9.7 5.5 1.3 2.4 2 2.8 4.2 2.3 2.2-.4 6.1 1.4 19.7 9.1 32.4 18.4 48.3 25.1 66.8 27.9l3.7.6v8c0 8.5-1.3 12.7-5.7 19.2-10.4 15-31.7 8.7-95.8-28-52.1-29.9-71.6-38.1-94.8-40.1l-8.8-.7 6.1-7.2c5.5-6.6 16-20.6 17.9-24.1 1.1-1.9 6.6-3 12.1-2.5 2.5.3 9.5 2.1 15.5 4.1zm-133 55.9c2.8 2.2 8.2 6.2 12 8.8l7 4.7-16-.6c-19.8-.8-29.5-1.7-29.5-2.6 0-.4 1.8-2.9 4-5.6 3.7-4.5 7.2-10.6 8.5-14.8.5-1.7 1-1.5 4.8 2 2.3 2.2 6.5 5.9 9.2 8.1zm68.5-8.8c0 1.7 5.5 10.6 10.2 16.3 1.2 1.5 2 3 1.7 3.2-.6.6-29.6 2.6-38.2 2.6h-7.1l7-4.6c7.5-5.1 19.8-14.9 22.8-18.3 2.1-2.3 3.6-1.9 3.6.8zm-114.5 22.5c16.7 2.8 28.9 3.7 60 4.3 40.8.7 77.5-1.5 93.9-5.8 2.1-.6 4-.9 4.1-.7.2.2-2.6 4.8-6.2 10.3-3.6 5.5-8.7 14.3-11.3 19.6l-4.9 9.6-5.8 1.6c-14.5 4.1-25.8 5.1-56.8 5.1-31 0-42.3-1-56.8-5.1l-5.8-1.6-4.9-9.6c-2.6-5.3-7.4-13.7-10.7-18.6-8.2-12.5-7.9-11.8-5.7-11.2 1.1.4 6 1.3 10.9 2.1z"/><path d="M293 44.7c0 .5.5 1.5 1 2.3.7 1.2 1.2 1.2 2.2.2 1-1 1-1.5-.2-2.2-1.8-1.2-3-1.3-3-.3zM303.1 45c-1.4.8-.7 3 .9 3 1.1 0 2.1-2.8 1.2-3.4-.5-.3-1.4-.1-2.1.4zM298.2 48.3c-.7.8-.6 1.8.3 3 1.3 1.8 1.4 1.8 2.4-.2 1.4-2.5 1.4-2.8-.3-3.4-.8-.3-1.9 0-2.4.6zM286.5 235.8c5 2.6 12.6 7.1 17.1 10 4.5 2.9 8.5 5.2 8.9 5.2.4 0 4.4-2.3 8.9-5.2 4.5-2.9 12.2-7.4 17.1-10 7.5-4 8.5-4.8 6-4.8-4.4 0-18.6 5.2-25.6 9.4-3.3 2-6.2 3.6-6.4 3.6-.2 0-3.1-1.6-6.4-3.6-7-4.2-21.2-9.4-25.6-9.4-2.5 0-1.5.8 6 4.8zM236 325.3c-3.7 1.9-5 5.4-4.8 12.7l.3 6.4 3.5 1c4.5 1.2 4.3 1.1 3.1 3.4-.6 1.1-2.4 2.5-4.1 3.1l-3.1 1 .3 10.3.3 10.2 4.3.9c2.3.4 4.2 1.2 4.2 1.6 0 1.3-4.4 4.9-6.5 5.3-1.6.3-2 1.1-1.9 4.6.1 7.4.4 7.4 23.8 7.3 20.2-.2 20.7-.3 24.3-2.7 2-1.3 4.7-2.7 6-3l2.3-.6V324h-24.7c-17.9 0-25.5.4-27.3 1.3zm47.3 4.4c.2.5.2 12.5-.1 26.9l-.4 26.1-2.9 1.7-2.9 1.7v-14.8c0-8.1-.3-19.2-.7-24.5l-.6-9.8-19.6-.2-19.6-.3-.3-2.8c-.3-2.1.2-2.9 2-3.6 2.7-1.2 44.5-1.4 45.1-.4zM343 325.6c-3.5 1.5-4 3-4 12v7.4l4 .6c2.2.4 4 1 4 1.4 0 1-4.2 4.6-6.2 5.3-1.6.6-1.8 2-1.8 11.1v10.4l4 .7c2.2.4 4 1.1 4 1.6 0 1.7-4 4.9-6 4.9-1.7 0-2 .7-2 4.3 0 8.1-.2 8 24.1 7.8 19.4-.2 21.6-.4 23.4-2.1 1.1-1.1 3.7-2.6 5.8-3.5l3.7-1.5v-60.9l-25.1-.3c-17.2-.2-26.1.1-27.9.8zm48 30.7v26.4l-2.7 1.4c-1.6.7-3.1 1.5-3.5 1.7-.5.2-.8-10.7-.8-24.2V337l-19.6-.2c-17.1-.3-19.8-.5-20.7-2-.8-1.2-.7-2.1.2-3.2 1.2-1.4 4.6-1.6 24.2-1.6H391v26.3zM310.5 429.4c-.9 1.4-1.9 4.3-2.2 6.5l-.5 3.9-4.2-4.4c-2.4-2.4-5.1-4.4-6.1-4.4-1.6 0-1.7.7-1.3 6.9l.5 6.9-4.1-1.9c-3.8-1.7-9.6-2.6-9.6-1.4 0 1.7 3.4 8.3 5.2 10.2l2.1 2.3h-4.2c-2.3 0-5.6.8-7.4 1.7l-3.2 1.7 3.5.9c10.6 2.7 18.1 7.2 19.5 11.8.6 1.8 1.7 1.9 14 1.9s13.4-.1 14-1.9c1.4-4.6 8.9-9.1 19.5-11.8l3.5-.9-3.2-1.7c-1.8-.9-5.1-1.7-7.4-1.7h-4.2l2.1-2.3c1.8-1.9 5.2-8.5 5.2-10.2 0-1.2-5.8-.3-9.6 1.4l-4.1 1.9.5-6.9c.4-6.2.3-6.9-1.3-6.9-1 0-3.8 2-6.2 4.5-4.1 4.3-4.3 4.4-4.3 2 0-3-2.3-9-3.9-9.9-.5-.4-1.7.5-2.6 1.8zM298.2 479.2c-.6.6-1.2 1.9-1.2 2.8 0 3.4 2.1 4 15.6 4 14.2 0 15.9-.6 15.2-5.2-.3-2.3-.5-2.3-14.3-2.6-10.1-.2-14.4.1-15.3 1zM300.7 491.7c-.2.4-.8 2.5-1.1 4.7-.4 2.1-1.8 6.3-3.2 9.3-2.4 5.6-2.4 7.3.1 7.3.8 0 1.9.9 2.6 2.1.8 1.6 1.8 2 4.4 1.7 2.4-.3 3.6.1 4.4 1.4.7 1.2 2.3 1.8 4.6 1.8s3.9-.6 4.6-1.8c.8-1.3 2-1.7 4.4-1.4 2.6.3 3.6-.1 4.4-1.7.7-1.2 1.8-2.1 2.6-2.1 2.5 0 2.5-1.7.3-6.6-1.2-2.7-2.7-7.2-3.3-9.9l-1.1-5-11.6-.3c-6.4-.1-11.8.1-12.1.5zM207.4 476.4c-3.5 1.5-6.4 5.1-6.4 7.8 0 3 3.7 5.8 7.6 5.8 4.5 0 7.4 1.5 7.4 4 0 2.4-1.7 3.4-5.4 3.5-3.3 0-4.7 2.1-2.1 3.1 2.6 1.1 9.4-1.5 11.1-4.1 3.2-4.9-.3-10.5-6.6-10.5-5.1 0-7-.8-7-3s1.8-3.7 5-4.2c2.9-.4 4.1-3.8 1.3-3.8-1 .1-3.2.7-4.9 1.4z"/><path d="M186 499.4c0 6.9.2 12.6.4 12.6 2 0 3.6-1.6 3.6-3.6 0-3.6 5.9-6.3 9.5-4.4 2.2 1.2 2.8 1.2 4.3-.4 1.4-1.4 1.5-1.8.3-2.5-1-.7-1.1-1.3-.2-2.9 1.7-3.3 1.4-4.8-.7-2.9-2.7 2.4-3.9 2.1-9.1-2.1-9-7.4-8.1-8-8.1 6.2zm7 1.6c-2.5 1.6-3 1.2-3-2.2v-3.2l2.3 2.2c1.9 1.9 2 2.4.7 3.2zM171 494.2c-7.7 4.3-9 5.3-9 7.6 0 1 .5.9 2.2-.2 3.7-2.6 5.6-1.9 7.9 2.6 1.2 2.4 3.3 6.3 4.7 8.7l2.5 4.3 1.8-2.3c1.6-2.2 1.6-2.4 0-4.8-1-1.4-3.2-5-4.9-7.9l-3.2-5.3 2.8-1.1c1.5-.7 2.8-1.2 2.8-1.3.7-.2 1.3-4.5.7-4.5-.4 0-4.2 1.9-8.3 4.2zM147.7 507c-3.1 1.9-4.7 3.7-4.7 5 0 1.1.4 2 .9 2s3 3.6 5.5 8c2.6 4.4 5 8 5.5 8 .4 0 1.3-1.1 1.9-2.5.6-1.4.8-2.5.3-2.5-.4 0-1.3-1.1-1.9-2.5-1.4-2.9-1.4-2.9 2.6-.9 5.7 2.8 9.7 2.9 12.1.3l2.2-2.4-5.3-.5c-7.1-.7-8.3-1.5-6.3-4.3 2.2-3.2 1.8-6.3-1.1-8.6-3.6-2.8-6.2-2.6-11.7.9zm7.7 1.6c1.8.7 2.2 4.9.5 5.9-.6.4-1.4 1.6-1.8 2.7-.7 1.8-1 1.6-3.3-2.3-2.4-4-2.4-4.4-.9-5.6 1.8-1.4 3.2-1.6 5.5-.7zM133 515.3c-6.1 3.7-7.1 5.8-4.3 9 1.1 1.2 3.7 5.2 5.8 8.9l3.9 6.7 3-1.8c1.7-1 4.6-2.7 6.4-3.7 3.6-2 3.9-2.9 1.6-3.8-.9-.3-2.7.3-4.1 1.4-3.3 2.5-4.9 2.5-6.3-.1-1.4-2.4-.6-4.9 1.4-4.9 1.5 0 3.2-3.7 2.3-4.7-.3-.3-2 .3-3.7 1.4-3.1 1.8-3.1 1.8-5-.7-2.6-3.4-2.5-3.7 1.5-5.1 2.6-1 3.5-1.9 3.5-3.6 0-1.3-.1-2.3-.2-2.3-.2 0-2.8 1.5-5.8 3.3zM113.5 526.8c-5.6 3-6.6 5.4-3.7 8.5 1 1.2 3.6 5.2 5.6 9l3.7 6.7 3.2-1.6c6.9-3.5 9.7-6.3 9.7-9.8 0-3.2-2.5-6.6-4.8-6.6-.7 0-1.2-1.3-1.2-2.9 0-3.1-3-6.1-6-6.1-.8 0-3.7 1.3-6.5 2.8zm7.3 2.4c1.7 1.7 1.5 2.9-1.2 6.1l-2.3 2.9-2.2-3.7c-1.2-2.1-2.1-3.9-1.9-4 1.2-.9 4.5-2.4 5.4-2.5.5 0 1.5.5 2.2 1.2zm6.1 9.2c1.4 1.7.5 4.3-2 5.6-2.8 1.6-3.7 1.2-5.4-2-1.4-2.7-1.4-3 .3-3.9 2.4-1.5 5.8-1.3 7.1.3zM99.4 535.5c-.4.8.1 2.4.9 3.3.9 1 3.2 5.3 5.2 9.6l3.5 7.8 1.8-2.2c1.8-2.2 1.7-2.4-2.7-10.9-4.5-8.4-7.4-11-8.7-7.6zM83.4 541.5c-.4.9.5 3.7 1.8 6.3 1.4 2.6 3.3 6.8 4.3 9.4 1 2.7 2.3 4.8 2.9 4.8.6 0 4-1.2 7.4-2.7 5.6-2.4 6.2-2.8 4.7-3.9s-2.4-1-5.6.7l-3.9 2-.9-2.3c-4.8-12.4-9.2-18.3-10.7-14.3zM393 472.3c-4 2-4 7.5 0 12.1 1.7 1.9 3 4.3 2.8 5.3-.5 2.6-4.4 2.8-6.5.4-2-2.4-4.3-2.8-4.3-.7 0 2.5 5 5.6 9 5.6 7.5 0 9.3-6.7 3.5-13.1-2.1-2.3-3.2-4.5-2.9-5.4.8-2 6-2 7.2 0 .5 1 1.5 1.3 2.5.9 2.3-.8 2.1-1.9-.6-3.7-3.4-2.2-7.9-2.8-10.7-1.4zM409.6 486.9c-8.8 8.8-9.9 11.7-3.6 9.1 2.2-.9 3.7-.9 6.4 0 3.1 1 3.6 1.6 3.6 4.1 0 2.6.3 3 2.2 2.7 1.3-.2 2.4-1.1 2.7-2.3.2-1.1.9-2.4 1.7-2.8.8-.4 1.4-1.3 1.4-1.8 0-.6-.5-.7-1.1-.3-1.8 1.1-2.9-1.7-3-8.1-.1-10.6-.4-10.6-10.3-.6zm6.3 5.3c.1 1-3.3 1-4.2.1-.4-.3.1-1.5 1-2.5 1.7-1.9 1.8-1.9 2.4-.1.4 1 .8 2.1.8 2.5zM433.3 485.7c-.7.2-1.3 1.1-1.3 1.9 0 .8-1.8 5-4 9.4s-4 8.2-4 8.5c0 .3 1.4.5 3 .5 1.8 0 3-.5 3-1.3 0-.7.6-2.1 1.3-3.1 1.2-1.6 1.5-1.6 4.2-.2 4 2.1 5.7 2 8.9-.5 4.8-3.8 3.2-10.5-3.4-13.9-3.9-2-5.4-2.3-7.7-1.3zm7.5 5.3c2.5 2.3 2.7 3.3 1.2 6-.8 1.4-2 1.9-5 1.7-2.2-.1-4-.2-4-.4 0-.9 4.5-9.3 5-9.3.3 0 1.6.9 2.8 2zM451.2 495.7c-.6.2-1 .9-.6 1.4.3.5-1.5 4.5-4 9s-4.6 8.3-4.6 8.5c0 .2 1.4.4 3 .4 1.7 0 3-.5 3-1.1 0-.6 1.5-3.7 3.4-6.9 5.3-9 5.2-13.5-.2-11.3zM460.3 499.7c-.7.2-1.3 1.1-1.3 1.8s-2 4.8-4.5 9.1c-2.4 4.3-4.1 8.2-3.7 8.5.4.4 3.3 2.1 6.5 3.9 5.4 3 5.7 3.1 5.7 1.1 0-1.3-1.2-2.6-3.5-3.7-4.1-1.9-4-1.6-1.9-5.5 1.5-3 1.6-3 4-1.4 1.5 1 3.3 1.3 4.6.9 1.9-.6 1.8-.8-1.3-2.7-1.9-1.1-3.5-2.2-3.7-2.3-.2-.1.4-1.6 1.3-3.3 1.3-2.6 1.9-3 3.5-2.1 1 .6 2.2 1.5 2.5 2 .3.6 1.5 1 2.5 1 3.8 0 2.9-2-2.2-5-5.3-3-6.3-3.3-8.5-2.3zM476.3 508.7c-.7.2-1.3 1.2-1.3 2s-1.5 4.1-3.4 7.2c-5.8 9.7-6 10.1-3.7 10.1 1.3 0 2.9-1.6 4.7-5 1.5-2.8 3-4.8 3.3-4.4.3.3 1.1 4.2 1.6 8.7.9 7.2 1.3 8.2 3.1 8.5 1.7.2 3-1.3 6.7-7.7 2.6-4.4 4.7-9 4.7-10.1 0-3.8-2.5-1.9-5.4 4.1-1.6 3.2-3.3 5.9-3.8 5.9-.4 0-.8-1.9-.9-4.3-.1-5.8-2.2-15-3.4-15.3-.5-.1-1.6 0-2.2.3zM496.5 519.9c-1.9.8-1.9.8.2 1.5 1.3.4 3 1.4 3.8 2.3 1.7 1.6 2.2.5-6.1 14.8l-2.6 4.5h2.9c2.5 0 3.3-.9 7.1-8 2.4-4.4 4.7-8 5.1-8 .5 0 1.4.7 2.1 1.5.7.8 2.1 1.5 3.1 1.5 4 0 2.6-2.1-4-5.9-8.4-4.9-9-5.2-11.6-4.2zM516.7 531.1c-.9.6-1.7 1.5-1.7 2.2 0 .7-2 4.7-4.5 8.9-2.5 4.3-4.5 8-4.5 8.3 0 .3 1.4.5 3 .5 1.7 0 3-.4 3-.9s1.8-4 4-7.9c5-8.7 5.4-13.7.7-11.1zM522.7 545.4c-8.3 7.3-9.5 8.6-8 9.5 1.3.7 2.3.5 3.5-.6 1.5-1.4 2.1-1.4 5.5 0 3.1 1.2 3.9 2 4.1 4.6.3 2.5.8 3.1 2.8 3.1 1.8 0 2.4-.5 2.4-2.1 0-1.2.8-2.8 1.8-3.5 1.6-1.2 1.6-1.3 0-1.4-1.5 0-1.8-1.3-2-9.1l-.3-9.1-9.8 8.6zm5.3 3.6c0 3.2-.6 3.6-3 2-1.2-.7-1.2-1.2.4-2.9 2.5-2.7 2.6-2.7 2.6.9zM543.2 542.2c-.7.7-1.2 2.1-1.2 3.1 0 1.1-1 5.5-2.2 9.8-1.1 4.4-1.8 8.2-1.5 8.5 1.5 1.5 3.5-.7 4.1-4.5.3-2.3 1-4.1 1.5-4.1.4 0 1.4 2.5 2.1 5.5.7 3 1.6 5.5 1.9 5.5.3 0 2.5-1.9 4.9-4.3l4.3-4.2-.7 3c-.4 1.6-1.1 4-1.5 5.2-.8 2-.5 2.3 1.9 2.3 2.6 0 2.8-.4 4.6-8.3 1.1-4.5 2.1-8.7 2.3-9.2.2-.6-.3-1.9-1.1-3-1.2-1.6-1.6-1.7-3-.6-.9.7-1.6 2.1-1.6 3 0 1.6-5.8 8.1-7.2 8.1-.3 0-1.4-3.3-2.3-7.3-2-8.1-3.4-10.4-5.3-8.5zM285.4 552.2c-.5.7-.8 6.1-.6 12l.3 10.7 2.5-1.1c1.8-.9 2.4-1.9 2.4-4.5 0-3.1.2-3.3 3.4-3.3 7.5 0 11.5-8 6.3-12.8-1.8-1.7-3.6-2.2-7.9-2.2-3.3 0-5.9.5-6.4 1.2zm10.4 3c1.8 1.8 1.5 5.8-.5 6.5-1 .3-2.5 1.2-3.5 2-1.5 1.3-1.6.9-2-4.1-.3-5.4-.2-5.6 2.3-5.6 1.4 0 3 .5 3.7 1.2zM305.3 553c-.8 1.2-.9 2.1-.3 2.5.6.3 1 4.6 1 9.6v8.9h7.6c6.7 0 7.5-.2 6.4-1.5-.7-.9-2.9-1.5-5.1-1.5-3.8 0-3.9-.1-3.9-3.6 0-3.3.2-3.6 2.5-3.2 1.6.3 3-.1 4.1-1.3 1.6-1.8 1.5-1.9-2.4-1.9-2.7 0-4.2-.5-4.2-1.3 0-.6-.3-2.3-.7-3.5-.5-2.2-.3-2.4 3.3-2.1 2.2.2 4.5 0 5.2-.5 2.8-1.7.8-2.6-5.6-2.6-5.6 0-6.9.3-7.9 2zM324.3 552.2c-.5.7-.7 6.1-.5 12l.4 10.7 2.4-1.1c1.9-.9 2.4-1.9 2.4-4.6v-3.5l4.1 4.7c4.1 4.6 7.5 5.8 10.7 3.7 1-.6.5-1.2-1.8-2.1-1.7-.7-4-2.4-5.1-3.9-1.9-2.4-2-2.6-.2-3.8 3.7-2.5 4.3-3.4 4.3-6.2 0-4.5-3.7-7.1-10.2-7.1-3.3 0-5.9.5-6.5 1.2zm10.5 3c2.3 2.3 1.4 5.3-2.2 6.9l-3.4 1.6-.4-4.9c-.3-4.6-.2-4.8 2.3-4.8 1.4 0 3 .5 3.7 1.2zM260.4 562.5c-1.8 1.5-1.8 1.5.7.9 1.6-.3 3.9.1 5.7 1 4 2.1 7.6 2 9.3 0 1.2-1.5 1.1-1.6-.8-1-1.3.4-3.4.1-5.2-.8-3.8-2-7.2-2-9.7-.1zM347.9 562.6c-1.2 1.5-1.1 1.6.8 1 1.2-.4 3.7 0 5.8.9 4.6 1.9 7.9 1.9 9.4.1.9-1.1.7-1.2-1.3-.9-1.3.3-3.7-.2-5.4-1.1-4-2.1-7.6-2-9.3 0zM92.9 56.9c-11.1 7-15.9 20-11.4 30.8.8 2 1.4 3.7 1.3 3.8-.2.1-2.3.7-4.6 1.4-2.4.7-5.9 2.7-7.7 4.4-3.2 3-7.9 10.6-7.1 11.5.2.2 1.7-.3 3.3-1.1 7.1-3.7 28.7-4.8 36.4-1.8 2.3.9 2.3.9.4 1.7-14.9 5.6-20.1 8.3-38.8 19.6-18.8 11.5-23.6 12.3-31.1 5.7-3.8-3.3-5.1-7.2-4.1-11.9.7-3.1 5-9 6.6-9 .5 0 .9 2.3.9 5.1 0 5.6 1 8 4.8 12.1 3.7 4 4.4 3.5 2.2-1.5-2.3-5-2.6-15.3-.5-21l1.3-3.9-2.6.7c-5.1 1.2-12.7 6.2-15.6 10.2-6.2 8.9-3.6 22.1 5.3 26.8 1.6.8 7.7 2.4 13.7 3.6 11.2 2.2 16.4 4.1 16.4 6.1s8.9.2 15.3-3.1c3.4-1.8 9.8-6.1 14.2-9.7 16.8-13.7 26.1-20.7 30.5-22.9 9.3-4.6 9.3-4.4 1.7 7.3-4 6-9.5 14.4-12.4 18.8-9.8 15.1-20.4 24.4-33.6 29.8-5 2-5.5 2.4-3.5 3 4 1 13.1.6 19.7-.9 13-3.1 28.2-13.6 35.2-24.5l3.2-4.9 3.6 2.7c2 1.4 3.8 2.7 4 2.9.2.1-1.5 2.3-3.8 4.9-4.2 4.8-10.9 17-9.8 18 .3.3 1.1-.5 1.8-1.8.6-1.2 5-6.2 9.7-11.1 7.7-7.8 8.9-8.7 12.2-8.7 2 0 4.4-.6 5.4-1.3 1.6-1.2 1.6-1.4-.9-2.5l-2.7-1.2 6-6.4c9.2-9.8 13.4-21.1 10.2-27.1-1.6-2.9-6.7-5.5-10.9-5.5-1.7 0-3.1-.4-3.1-1 0-1.3 9.5-4 13.9-4 10.6.1 20 10.4 20.1 22.1l.1 3.4 1.7-3c1.1-2 1.7-5.3 1.7-9.7 0-5.8-.4-7.2-3-10.9-7.3-10.4-16.1-12.7-50.5-13.5-13.5-.3-26.5-1-28.9-1.6-2.8-.7-6-2.6-8.7-5.2-6.8-6.6-8.1-15.7-3.5-24.6 1.1-2.2 1.7-4 1.3-4-.5 0-2.8 1.3-5.3 2.9zm64.6 54.5c4.8 2 6.1 5.3 4.5 10.9-1.3 4.9-10.7 18-13.2 18.5-.9.2-2.3-1.2-3.4-3.5-2.7-5.5-2.5-16.3.3-22.6 1.9-4.1 2.6-4.7 5.3-4.7 1.7 0 4.6.7 6.5 1.4zM528.1 58c4.6 8.9 3.3 18-3.5 24.6-2.7 2.6-5.9 4.5-8.7 5.2-2.4.6-15.4 1.3-28.9 1.6-34.4.8-43.2 3.1-50.5 13.5-2.6 3.7-3 5.1-3 10.9 0 4.4.6 7.7 1.7 9.7l1.7 3 .1-3.4c.1-11.7 9.5-22 20.1-22.1 4.4 0 13.9 2.7 13.9 4 0 .6-1.4 1-3.1 1-4.2 0-9.3 2.6-10.9 5.5-3.2 6 1 17.3 10.2 27.1l6 6.4-2.7 1.2c-2.5 1.1-2.5 1.3-.9 2.5 1 .7 3.4 1.3 5.4 1.3 3.3 0 4.5.9 12.2 8.7 4.7 4.9 9.1 9.9 9.7 11.1.7 1.3 1.5 2.1 1.8 1.8 1.1-1-5.6-13.2-9.8-18-2.3-2.6-4-4.8-3.8-4.9.2-.2 2-1.5 4-2.9l3.6-2.7 3.2 4.9c7 10.9 22.2 21.4 35.2 24.5 6.6 1.5 15.7 1.9 19.7.9 2-.6 1.5-1-3.5-3-13.2-5.4-24-14.9-33.6-29.8-2.9-4.4-8.4-12.8-12.4-18.8-7.6-11.7-7.6-11.9 1.7-7.3 4.4 2.2 13.7 9.2 30.5 22.9 4.4 3.6 10.8 7.9 14.2 9.7 6.4 3.3 15.3 5.1 15.3 3.1 0-2 5.2-3.9 16.4-6.1 11.4-2.3 15-3.7 17.7-6.7 7.3-8.3 6.2-21.3-2.4-27.8-3.4-2.6-11.4-6.5-13.3-6.6-.8 0-.8 1.1.2 3.7 2 5.7 1.7 16-.6 21-2.2 5-1.5 5.5 2.2 1.5 3.8-4.1 4.8-6.5 4.8-12.1 0-2.8.4-5.1.9-5.1 1.6 0 5.9 5.9 6.6 9 1 4.7-.3 8.6-4.1 11.9-7.5 6.6-12.3 5.8-31.1-5.7-18.7-11.3-23.9-14-38.8-19.6-1.9-.8-1.9-.8.4-1.7 7.7-3 29.3-1.9 36.4 1.8 1.6.8 3.1 1.3 3.3 1.1.8-.9-3.9-8.5-7.1-11.5-1.8-1.7-5.3-3.7-7.7-4.4-2.3-.7-4.4-1.3-4.6-1.4-.1-.1.5-1.8 1.3-3.8 3.1-7.4 1.4-17.9-3.8-24.3-2.8-3.4-11-9.4-12.9-9.4-.4 0 .2 1.8 1.3 4zm-48.8 56.7c2.8 6.3 3 17.1.3 22.6-1.1 2.3-2.5 3.7-3.4 3.5-2.5-.5-11.9-13.6-13.2-18.5-2.1-7.4 2.1-12.2 10.8-12.3 3 0 3.5.5 5.5 4.7zM91 357.8c-5.5 10.3-16 21.7-36 38.9-12.2 10.5-20.2 18.8-25 25.7-3.7 5.4-2.9 5.3 4.5-1 2.8-2.3 11.1-8.3 18.5-13.4s16.3-11.5 19.8-14.2c6.5-5.2 13.8-14.5 16.7-21.3 1.5-3.5 4.7-18.6 4.1-19.2-.1-.1-1.3 1.9-2.6 4.5zM531.4 355.5c.3 1.6.8 4.8 1.2 7 1.8 11 9.6 23.3 19.6 31.3 3.5 2.7 12.4 9.1 19.8 14.2s15.8 11.1 18.5 13.4c7.4 6.3 8.2 6.4 4.5 1-4.8-6.9-12.8-15.2-25-25.7-20-17.2-29.1-27-35.9-38.7-2.6-4.5-3.1-5-2.7-2.5zM81.1 439.2c-1.9 2.2-8 7.4-13.5 11.5-5.6 4.1-11.8 9.4-13.9 11.8-2.1 2.4-6.8 6.4-10.6 8.9-7.4 5-21.9 12.2-22.7 11.3-.3-.2.8-2.4 2.4-4.8 4.2-6.3 7.2-15.2 7.8-22.8l.5-6.6-5.1 9.8c-5.9 11.6-12.3 21.4-18.2 28.3-8.3 9.7-8.1 8.8-1.2 8.1 11.9-1.2 31.4-10 55.1-24.8C82.3 457 90 451.1 90 448.2c0-3.7-2.1-10-3.9-11.6-1.4-1.3-2-1-5 2.6zM538.6 436.9c-1.9 2.1-3.6 7.4-3.6 11.2 0 3 7.3 8.6 28.3 21.8 23.7 14.8 43.2 23.6 55.1 24.8 6.9.7 7.1 1.6-1.2-8.1-5.9-6.9-12.3-16.8-18.2-28.3l-5.1-9.8.6 6.8c.7 7.9 3.6 16.4 7.7 22.6 1.6 2.4 2.7 4.6 2.4 4.8-.8.9-15.3-6.3-22.7-11.3-3.8-2.5-8.5-6.5-10.6-8.9-2.1-2.4-8.3-7.7-13.8-11.7-5.5-4.1-11.7-9.3-13.6-11.6-3.5-4.1-3.7-4.1-5.3-2.3z"/></svg>